<svg xmlns="http://www.w3.org/2000/svg" xmlns:xlink="http://www.w3.org/1999/xlink" id="_&#xEB;&#xCE;&#xD3;&#xC8;_1" width="2101.69" height="1664" viewBox="0 0 2101.69 1664"><defs><clipPath id="clippath"><rect x="768.46" y="778.51" width="901.88" height="595.1" transform="translate(307.72 -270.67) rotate(14.48)" fill="none"></rect></clipPath></defs><circle cx="1374.37" cy="825.54" r="700.06" transform="translate(-181.2 1213.62) rotate(-45)" fill="#f8f8fc"></circle><path d="m2068.73,477.71h0c-49.25-8.95-106.22-18.24-152.41,7.07-35.97,19.71-54.85,57.06-55.84,97.26-1.05,42.69,14.89,85.12,38.24,120.28,26.71,40.21,80.42,100.48,37.92,148.12-39.77,44.58-111.81,35.08-165.2,37.84-45.85,2.37-88.99,13.3-123.39,45.25-66.58,61.82-81.64,170.95-41.42,250.95,51.18,101.81,166.3,153.01,275.23,161.22" fill="none" stroke="#fff" stroke-miterlimit="10" stroke-width="25.65"></path><path d="m1718.1,212.89c0,50.89-41.4,92.29-92.29,92.29-50.89,0-92.29-41.4-92.29-92.29,0-50.89,41.4-92.29,92.29-92.29,50.89,0,92.29,41.4,92.29,92.29Z" fill="none" stroke="#fff" stroke-miterlimit="10" stroke-width="25.65"></path><path d="m420.34,1169.33c-197.07,32.8-397.14-78.38-387.46-352.59,8.91-252.29,208.05-406.37,223.95-668.19,82.56,82.56,31.32,261.82,31.32,261.82,29.63,179.48,278.53,303.09,267.26,437.35-10.22,121.71-135.08,321.61-135.08,321.61Z" fill="#71efa3"></path><path d="m487.1,1062.79c-.96,0-1.93-.25-2.82-.76-104.41-60.68-182.49-144.88-232.06-250.25-43.49-92.45-57.14-184.13-63.63-245.05-.33-3.08,1.91-5.85,4.99-6.18,3.07-.33,5.85,1.91,6.18,4.99,15.5,145.58,62.44,354.43,290.17,486.77,2.68,1.56,3.59,5,2.03,7.68-1.04,1.79-2.93,2.79-4.86,2.79Z" fill="#fff"></path><path d="m268.79,838.08c-.78,0-1.57-.16-2.32-.51-122.72-55.89-230.51-16-231.58-15.59-2.89,1.11-6.14-.35-7.25-3.24-1.11-2.9.34-6.14,3.24-7.25,4.56-1.75,113.09-42.06,240.25,15.85,2.82,1.29,4.07,4.62,2.78,7.44-.94,2.07-2.98,3.29-5.12,3.29Z" fill="#fff"></path><path d="m288.15,410.37s51.24-179.26-31.32-261.82c-15.9,261.82-215.04,415.9-223.95,668.19-.89,25.25.16,49.34,2.93,72.28,3.44-107.84,221.86-311.02,252.34-478.65Z" fill="#1e224f"></path><path d="m218.84,709.26h0c-3.1,0-5.61-2.51-5.61-5.61,0-3.52.98-87.32,86.35-188.49,2-2.37,5.54-2.67,7.91-.67,2.37,2,2.67,5.54.67,7.91-82.51,97.79-83.7,180.43-83.7,181.25,0,3.1-2.52,5.61-5.62,5.61Z" fill="#fff"></path><path d="m246.69,791.05c-.18,0-.37,0-.56-.03-3.09-.3-5.34-3.05-5.04-6.14.61-6.22,15.83-153.07,96.06-216.85,2.43-1.93,5.96-1.53,7.89.9,1.93,2.43,1.53,5.96-.9,7.89-76.48,60.8-91.73,207.67-91.87,209.15-.28,2.9-2.73,5.07-5.58,5.07Z" fill="#fff"></path><path d="m340.64,943.18c-.72,0-1.44-.14-2.15-.43-140.53-58.24-294.95-15.88-296.49-15.45-2.98.84-6.08-.9-6.93-3.88-.84-2.99.9-6.09,3.88-6.93,1.58-.44,159.75-43.83,303.84,15.88,2.87,1.19,4.23,4.47,3.04,7.34-.9,2.16-2.99,3.47-5.19,3.47Z" fill="#fff"></path><path d="m412.46,1011.86c-.54,0-1.1-.08-1.64-.25-220.66-67.31-346.64-16.84-347.89-16.33-2.86,1.19-6.15-.17-7.34-3.03-1.19-2.86.17-6.15,3.03-7.34,5.24-2.18,130.98-52.53,355.47,15.96,2.97.9,4.64,4.04,3.73,7.01-.74,2.42-2.96,3.98-5.37,3.98Z" fill="#fff"></path><path d="m379.32,404.43c-13.76-77.16,171.65-255.8,183.5-371.78,16.82,16.82,57.78,69.16,93.59,138.65l-18.66,34.61,37.18,4.14c47.48,107.81,73.51,244.26-8.82,354.77l-262.45,51.99-24.34-212.38Z" fill="#71efa3"></path><path d="m481.11,585.17c-1.09,0-2.19-.31-3.15-.97-2.57-1.74-3.23-5.24-1.48-7.8,77.82-114.4,128.09-361.55,97.8-480.81-.76-3.01,1.05-6.06,4.06-6.82,3.01-.78,6.06,1.05,6.83,4.06,30.89,121.64-20.2,373.46-99.4,489.89-1.09,1.6-2.85,2.46-4.65,2.46Z" fill="#fff"></path><path d="m568.71,349.55c-2.5,0-4.78-1.68-5.43-4.2-10.19-39.18-44.39-86.11-76.25-104.62-2.68-1.56-3.59-4.99-2.03-7.68,1.56-2.68,5-3.59,7.68-2.04,34.67,20.14,70.46,69.12,81.47,111.5.78,3-1.02,6.07-4.02,6.85-.47.12-.95.18-1.42.18Z" fill="#fff"></path><path d="m564.77,376.84c-1.54,0-3.07-.63-4.18-1.86-2.08-2.31-1.89-5.86.42-7.93,28.83-25.93,82.9-52.5,140.42-42.04,3.05.55,5.07,3.48,4.52,6.53-.55,3.05-3.48,5.07-6.53,4.52-53.5-9.72-103.96,15.11-130.9,39.34-1.07.97-2.42,1.44-3.75,1.44Z" fill="#fff"></path><path d="m585.23,236.48c-2.48,0-4.75-1.66-5.42-4.17-6.63-24.86-24.51-45.34-39.03-56.23-2.48-1.86-2.99-5.38-1.12-7.86,1.86-2.48,5.38-2.98,7.86-1.12,16.02,12.02,35.77,34.7,43.14,62.32.8,3-.98,6.08-3.98,6.87-.48.13-.97.19-1.45.19Z" fill="#fff"></path><path d="m1858.65,692.57l-47.91,28.69-33.65-16.25-6.61-3.2-.82-6.44-2.58-20.08-.91-7.11c-.31-2.47-.47-4.95-.47-7.42,0-8.58,1.89-17.1,5.55-24.91,2.47-5.27,9.25-6.82,13.76-3.15l47.69,38.78,25.95,21.09Z" fill="#e39f6a"></path><path d="m1858.65,692.57l-47.91,28.69-33.65-16.25c-2.47-3.13-5.01-6.43-7.43-9.64l-2.58-20.08,76.36,4.92,15.21,12.36Z" fill="#1e224f"></path><rect x="589.35" y="231.57" width="912.8" height="1582.23" rx="57.88" ry="57.88" transform="translate(-205.89 1779.57) rotate(-75.52)" fill="#e1e2f2"></rect><rect x="553.2" y="170.26" width="912.8" height="1582.23" rx="57.88" ry="57.88" transform="translate(-173.64 1698.59) rotate(-75.52)" fill="#fff"></rect><path d="m1833.65,702.77L413.74,336.17c-30.95-7.99-62.52,10.62-70.51,41.57l-12.86,49.82,1532,395.54,12.86-49.82c7.99-30.95-10.62-62.52-41.57-70.51Z" fill="#1e224f"></path><path d="m1812.69,776.26c-9.91-2.56-15.9-12.71-13.34-22.62,2.56-9.91,12.71-15.9,22.62-13.34s15.9,12.71,13.34,22.62c-2.56,9.91-12.71,15.9-22.62,13.34Z" fill="#fff"></path><path d="m1751.44,760.45c-9.91-2.56-15.9-12.71-13.34-22.62,2.56-9.91,12.71-15.9,22.62-13.34,9.91,2.56,15.9,12.71,13.34,22.62-2.56,9.91-12.71,15.9-22.62,13.34Z" fill="#fff"></path><path d="m1690.19,744.63c-9.91-2.56-15.9-12.71-13.34-22.62,2.56-9.91,12.71-15.9,22.62-13.34s15.9,12.71,13.34,22.62c-2.56,9.91-12.71,15.9-22.62,13.34Z" fill="#fff"></path><path d="m944.91,591.02l8.78-33.99c4.03-15.61-5.36-31.52-20.96-35.55l-206.47-53.31c-15.61-4.03-31.52,5.36-35.55,20.96l-8.78,33.99" fill="#fff"></path><path d="m657.57,516.83l8.78-33.99c4.03-15.61-5.36-31.52-20.96-35.55l-206.47-53.31c-15.61-4.03-31.52,5.36-35.55,20.96l-8.78,33.99" fill="#fff"></path><path d="m1232.26,665.21l8.78-33.99c4.03-15.61-5.36-31.52-20.96-35.55l-206.47-53.31c-15.61-4.03-31.52,5.36-35.55,20.96l-8.78,33.99" fill="#fff"></path><rect x="295.26" y="962.58" width="352.25" height="28.6" transform="translate(259.17 -86.82) rotate(14.48)" fill="#f8f8fc"></rect><rect x="283.26" y="1006.67" width="314.76" height="28.6" transform="translate(269.22 -77.74) rotate(14.48)" fill="#f8f8fc"></rect><rect x="316.68" y="851.89" width="402.36" height="90.43" transform="translate(240.71 -100.97) rotate(14.48)" fill="#eeeff8"></rect><rect x="345.6" y="736.67" width="352.25" height="90.43" transform="translate(212.03 -105.6) rotate(14.48)" fill="#eeeff8"></rect><g clip-path="url(#clippath)"><rect x="749.63" y="766.08" width="939.54" height="619.95" transform="translate(307.72 -270.67) rotate(14.48)" fill="#f8f8fc"></rect><polyline points="1613.79 1427.66 1449.52 1226.69 1248.54 1290.37 1027.08 995.47 705.98 1185.47" fill="none" stroke="#e1e2f2" stroke-miterlimit="10" stroke-width="34.83"></polyline><circle cx="1460.62" cy="1023.98" r="87.67" fill="none" stroke="#e1e2f2" stroke-miterlimit="10" stroke-width="34.83"></circle></g><path d="m1778.26,704.27l98.99-26.56c10.05-2.7,20.77-1.07,29.57,4.5h0c5.12,3.24,8.23,8.88,8.23,14.94h0c0,10.8,5.11,20.96,13.78,27.4h0c5.26,3.91,7.32,10.82,5.06,16.97l-3.95,10.72c-2.72,7.38-2.31,15.54,1.14,22.61l.53,1.08c3.72,7.64,2.68,16.75-2.68,23.35l-1.59,1.96c-5.02,6.19-6.73,14.44-4.57,22.11h0c2.38,8.5.46,17.62-5.15,24.44h0c-7.04,8.55-16.19,15.1-26.55,19l-69.58,26.24c-12.05,4.54-25.72,3.21-36.25-4.21-.39-.27-.77-.55-1.15-.84-10.48-8-14.37-22.02-10.11-34.5l6.57-19.28s-42.03-34.16-4.43-61.98c0,0-34.81-22.33-20.65-49.95,4.6-8.98,13.04-15.39,22.79-18.01Z" fill="#e39f6a"></path><path d="m1872.85,727.38c27.98-8.48,53.31-23.79,73.81-44.64,1.62-1.64-.91-4.18-2.53-2.53-20.08,20.42-44.82,35.41-72.23,43.72-2.2.67-1.26,4.12.95,3.45h0Z" fill="#fff"></path><path d="m1889.57,785.47c31.04-12.05,58.97-30.7,81.91-54.85,1.59-1.67-.94-4.2-2.53-2.53-22.5,23.68-49.88,42.1-80.33,53.93-2.12.82-1.2,4.29.95,3.45h0Z" fill="#fff"></path><path d="m1870.71,838.27c36.23-7.57,70.05-23.66,98.87-46.88,1.79-1.45-.75-3.96-2.53-2.53-28.33,22.82-61.69,38.52-97.29,45.96-2.25.47-1.3,3.92.95,3.45h0Z" fill="#fff"></path><path d="m1762.49,810.8c2.76,19.81,26.86,27.79,44.09,25.32,2.27-.33,1.31-3.78-.95-3.45-15.53,2.23-37.22-5.08-39.69-22.82-.32-2.27-3.77-1.3-3.45.95h0Z" fill="#fff"></path><path d="m1782.84,830.81c-8.55,8.63-14.23,24.36-12.54,36.46,2.18,15.56,13.52,25.18,28.58,27.77,8.02,1.38,15.35.14,23.22-1.58,9.97-2.17,19.79-4.97,29.49-8.12,18.29-5.95,36.07-13.31,54.19-19.74,2.16-.77,1.23-4.22-.95-3.45-30.45,10.81-61.29,25.83-93.68,29.75-15.46,1.87-31.73-5.05-36.3-20.74-3.56-12.22,1.66-28.87,10.54-37.82,1.62-1.64-.91-4.17-2.53-2.53h0Z" fill="#fff"></path><path d="m1174.31,537.84l39.39,10.17c-23.11,86.36-83.84,185.1-331.89,306.63l91.13,311.11-198.1-307.15,67.92-187.12,331.55-133.64Z" fill="#1e224f"></path><path d="m1010.31,1228c2.16.84,107.88,106.21,132.24,130.5,3.16,3.15,4.83,7.5,4.59,11.96h0c-.41,7.78-5.55,14.52-12.94,16.99h0c-4.32,1.44-9.02,1.28-13.23-.45l-58.24-20.69s37.02,50.48,42.04,88.09l42.97,12.18-46.48,20.4s-44.56,19.7-75.85,7.33c0,0-43.06,3.72-56.85-27.03,0,0-54.22-2.39-59.4-45.84l-10.22-148.33,111.37-45.1Z" fill="#e39f6a"></path><path d="m982.04,1254.74s-25.17,39.81-80.62,54.35l-2.48-40.88,83.1-13.47Z" fill="#1e224f"></path><path d="m867.37,1211.83l24.18,64.13s75.28,10.03,118.76-47.96l-37.37-62.26-86.8,40.95-18.76,5.14Z" fill="#c67f4e"></path><path d="m1599.88,647.71l-425.57-109.87c-88.78,192.27-331.5,300.02-335.28,301.69-.04.01-.05.02-.05.02l133.96,326.19c-26.37,47.91-93.36,52.04-105.57,46.09-261.48-226.86-264.67-487.45-264.67-487.45,125.95-175.85,295.47-314.86,366.4-369.23,28.35-21.73,61.03-37.17,95.9-44.89,29.84-6.61,60.15-9.85,87.51-11.21,57.19-2.86,101.45,2.49,101.45,2.49l106.71,40.74c13.89,4.22,26.99,9.06,39.3,14.39,193.39,83.52,199.89,291.03,199.89,291.03Z" fill="#e1e2f2"></path><path d="m1332.77,540.97c-101.39-93.96-159.8-200.46-180.24-241.93,57.19-2.86,101.45,2.49,101.45,2.49l106.72,40.75c13.89,4.23,26.98,9.06,39.3,14.39,6.93,79.54-4.36,136.14-15.84,170.87-7.21,21.8-34.54,29.03-51.38,13.42Z" fill="#fff"></path><path d="m1106.63,289.25c30.67,74.89,70.31,145.87,118.06,211.22,1.35,1.84,4.45.06,3.09-1.81-47.55-65.07-87.15-135.78-117.7-210.36-.86-2.1-4.33-1.18-3.45.95h0Z" fill="#fff"></path><path d="m1423.96,369.09c1.58,42.31-2.86,84.56-13.21,125.62-.56,2.23,2.89,3.19,3.45.95,10.42-41.35,14.93-83.95,13.34-126.57-.09-2.3-3.67-2.31-3.58,0h0Z" fill="#fff"></path><path d="m695.52,609.17c36.68,25.71,60.23,69.44,60.58,114.36.34,44.06-23.79,84.49-59.76,109.03-20.06,13.69-43.35,22.31-67.6,24.24-2.28.18-2.3,3.76,0,3.58,44.14-3.5,85.43-28.53,109.68-65.5,25.45-38.8,27.15-87.33,8.18-129.22-10.79-23.84-27.85-44.56-49.28-59.57-1.89-1.32-3.68,1.78-1.81,3.09h0Z" fill="#fff"></path><path d="m954.07,1413.5c7.29,30.91,16.04,61.44,26.25,91.52.74,2.17,4.19,1.24,3.45-.95-10.2-30.07-18.96-60.61-26.25-91.52-.53-2.24-3.98-1.29-3.45.95h0Z" fill="#fff"></path><path d="m1002.24,1431.16c13.17,33.85,17.67,74.61,47.98,98.64,1.79,1.42,4.34-1.1,2.53-2.53-29.79-23.62-34.11-63.77-47.06-97.06-.83-2.12-4.29-1.2-3.45.95h0Z" fill="#fff"></path><path d="m1125.65,1339.27c-3.52,6.15-6.31,13.29-1.08,19.36,5.35,6.21,13.92,6.27,21.45,5.95,2.29-.1,2.31-3.68,0-3.58-5.68.24-12.01.6-16.82-2.96-6.29-4.66-3.71-11.29-.46-16.96,1.15-2-1.94-3.81-3.09-1.81h0Z" fill="#fff"></path><path d="m1061.83,1367.86c12.67,7.82,21.37,22.94,27.7,36.04,6.98,14.44,11.31,29.96,13.61,45.8.33,2.27,3.78,1.31,3.45-.95-2.43-16.77-7.2-33.13-14.79-48.32-6.53-13.08-15.45-27.81-28.16-35.66-1.97-1.21-3.77,1.88-1.81,3.09h0Z" fill="#fff"></path><path d="m894.72,1216.72l-1.11-7.07c.58-.09,57.07-9.32,75.39-44.07l-121.11-294.9,6.62-2.72,122.34,297.9-.7,1.44c-19.15,39.28-78.9,49.02-81.43,49.42Z" fill="#1e224f"></path><rect x="1557.69" y="530.8" width="7.16" height="213.89" transform="translate(553.48 1990.02) rotate(-75.52)" fill="#1e224f"></rect><polygon points="1022.25 349.84 996.9 320.3 1005.04 313.3 1018.23 328.67 1028.32 299.61 1038.46 303.13 1022.25 349.84" fill="#e1e2f2"></polygon><polygon points="1601.75 603.32 1560.88 593.67 1602.8 575.42 1607.09 585.26 1594.74 590.64 1604.22 592.87 1601.75 603.32" fill="#e1e2f2"></polygon><path d="m1337.9,566.16c17.77,8.89,38.78,2.24,47.81-15.56,1.04-2.05-2.05-3.86-3.09-1.81-8.11,15.98-26.79,22.34-42.92,14.27-2.05-1.03-3.87,2.06-1.81,3.09h0Z" fill="#fff"></path><path d="m982.16,418.76c-1.4-3.44-.74-7.64,3.52-8.93,3.12-.94,5.52,1.16,7.51,3.19,1.71,1.74,3.01,3.2,5.52,3.72,4.23.88,8.42-1.33,10.25-5.17.99-2.07-2.1-3.89-3.09-1.81-1.16,2.43-3.98,4.27-6.79,3.42-2.37-.72-3.58-3.35-5.36-4.85-2.28-1.91-5.33-2.65-8.23-2.08-6.22,1.22-9.08,7.82-6.77,13.46.86,2.1,4.32,1.18,3.45-.95h0Z" fill="#fff"></path><path d="m1082.3,336.93c-1.4-3.44-.74-7.64,3.52-8.93,3.12-.94,5.52,1.16,7.51,3.19,1.71,1.74,3.01,3.2,5.52,3.72,4.23.88,8.42-1.33,10.25-5.17.99-2.07-2.1-3.89-3.09-1.81-1.16,2.43-3.98,4.27-6.79,3.42-2.37-.72-3.58-3.35-5.36-4.85-2.28-1.91-5.33-2.65-8.23-2.08-6.22,1.22-9.08,7.82-6.77,13.46.86,2.1,4.32,1.18,3.45-.95h0Z" fill="#fff"></path><path d="m1474.23,467.69c-1.4-3.44-.74-7.64,3.52-8.93,3.12-.94,5.52,1.16,7.51,3.19,1.71,1.74,3.02,3.2,5.52,3.72,4.23.88,8.42-1.33,10.25-5.17.99-2.07-2.1-3.89-3.09-1.81-1.16,2.43-3.98,4.27-6.79,3.42-2.37-.72-3.58-3.35-5.36-4.85-2.28-1.91-5.33-2.65-8.23-2.08-6.22,1.22-9.08,7.82-6.77,13.46.86,2.1,4.32,1.18,3.45-.95h0Z" fill="#fff"></path><path d="m830.39,548.01c.76-3.97,3.81-6.18,7.78-5.61,4.23.61,4.07,4.88,4.76,7.75.56,2.34,1.33,4.2,3.29,5.71,3.21,2.46,7.37,2.46,10.73.39,1.96-1.21.16-4.3-1.81-3.09-4.05,2.49-7.52.21-8.77-3.96-.58-1.95-.43-3.87-1.47-5.7-1.24-2.16-3.4-3.85-5.78-4.55-5.82-1.73-11.1,2.48-12.18,8.11-.43,2.25,3.02,3.21,3.45.95h0Z" fill="#fff"></path><path d="m803.01,1093.88c.76-3.97,3.81-6.18,7.78-5.61,4.23.61,4.07,4.88,4.76,7.75.56,2.34,1.33,4.2,3.29,5.71,3.21,2.46,7.37,2.46,10.73.39,1.96-1.21.16-4.3-1.81-3.09-4.05,2.49-7.52.22-8.77-3.96-.58-1.95-.43-3.87-1.47-5.7-1.24-2.16-3.4-3.85-5.78-4.56-5.82-1.73-11.1,2.48-12.18,8.11-.43,2.25,3.02,3.21,3.45.95h0Z" fill="#fff"></path><path d="m957.55,522.22c3.66-.09,7.04,1.64,8.92,4.87,2.56,4.39.54,8.57-2.17,12.17-2.79,3.71-6.27,7.24-6.91,12.06-.77,5.76,4.37,11.58,10.27,9.28,2.12-.82,1.2-4.29-.95-3.45-4.63.49-6.46-1.75-5.49-6.7.6-1.68,1.42-3.23,2.48-4.65,1.45-2.11,3.32-3.92,4.73-6.07,1.91-2.92,3.24-6.04,2.81-9.59-.83-6.82-7.02-11.65-13.68-11.5-2.3.05-2.31,3.63,0,3.58h0Z" fill="#fff"></path><path d="m1538.63,540.05c3.66-.09,7.04,1.64,8.92,4.87,2.56,4.39.54,8.57-2.17,12.17-2.79,3.71-6.27,7.24-6.91,12.06-.77,5.76,4.37,11.58,10.27,9.28,2.12-.82,1.2-4.29-.95-3.45-4.63.49-6.46-1.75-5.49-6.7.6-1.68,1.42-3.23,2.48-4.65,1.45-2.11,3.32-3.92,4.73-6.07,1.91-2.92,3.24-6.04,2.81-9.59-.83-6.82-7.02-11.65-13.68-11.5-2.3.05-2.31,3.63,0,3.58h0Z" fill="#fff"></path><path d="m842.76,730.16c6.64-3.68,14.33,1.27,14.14,8.72-.14,5.27-2.78,10.3-1.65,15.65,1.32,6.24,8.95,10.75,13.88,5.24,1.53-1.71-.99-4.25-2.53-2.53-1.77.23-3.54.46-5.31.69l-2.73-5.76c-.32-1.61.27-3.71.55-5.27.43-2.36,1.07-4.68,1.27-7.08.29-3.46-.31-6.83-2.54-9.59-4.08-5.06-11.33-6.26-16.9-3.17-2.02,1.12-.21,4.21,1.81,3.09h0Z" fill="#fff"></path><path d="m715.99,904.01c6.64-3.68,14.33,1.27,14.14,8.72-.14,5.27-2.78,10.3-1.65,15.65,1.32,6.24,8.95,10.75,13.88,5.24,1.53-1.71-.99-4.25-2.53-2.53-1.77.23-3.54.46-5.31.69-.91-1.92-1.82-3.84-2.73-5.76-.32-1.61.27-3.71.55-5.27.43-2.36,1.07-4.68,1.27-7.08.29-3.46-.31-6.83-2.54-9.59-4.08-5.06-11.33-6.26-16.9-3.17-2.02,1.12-.21,4.21,1.81,3.09h0Z" fill="#fff"></path><path d="m1116.22,504.69c-.69-3.36.98-6.39,4.23-7.43,2.74-.87,4.91.31,7.4,1.46,2.27,1.05,4.45,2.23,7,2.35,3.82.18,7.75-1.67,8.37-5.71.34-2.25-3.1-3.22-3.45-.95-1,6.54-9.81,1.13-12.78-.02-2.64-1.02-5.4-1.61-8.15-.55-4.79,1.85-7.06,6.96-6.07,11.81.46,2.25,3.91,1.3,3.45-.95h0Z" fill="#fff"></path><path d="m1005.56,625.62c-.69-3.36.98-6.39,4.23-7.43,2.74-.87,4.91.31,7.4,1.46,2.27,1.05,4.45,2.23,7,2.35,3.82.18,7.75-1.67,8.37-5.71.34-2.25-3.1-3.22-3.45-.95-1,6.54-9.81,1.13-12.78-.02-2.64-1.02-5.4-1.61-8.15-.55-4.79,1.85-7.06,6.96-6.07,11.81.46,2.25,3.91,1.3,3.45-.95h0Z" fill="#fff"></path><path d="m830.24,984.93c-.69-3.36.98-6.39,4.23-7.43,2.74-.87,4.91.31,7.4,1.46,2.27,1.05,4.45,2.23,7,2.35,3.82.18,7.75-1.67,8.37-5.71.34-2.25-3.1-3.22-3.45-.95-1,6.54-9.81,1.13-12.78-.02-2.64-1.02-5.4-1.61-8.15-.55-4.79,1.85-7.06,6.96-6.07,11.81.46,2.25,3.91,1.3,3.45-.95h0Z" fill="#fff"></path><rect x="1156.54" y="1413.86" width="3.58" height="111.18" transform="translate(-591.9 2131.04) rotate(-72.46)" fill="#fff"></rect><path d="m1201.26,205.04c-13.82-3.16-20.36-17.7-13.4-30.13,1.13-2.01-1.96-3.82-3.09-1.81-8.04,14.36-.59,31.7,15.54,35.38,2.24.51,3.2-2.94.95-3.45h0Z" fill="#fff"></path><path d="m1376.89,394.23l-16.26,58.29c-2.86,10.26-15.89,13.38-23.08,5.52l-86.45-94.44c-6.22-6.79-8.77-16.17-6.87-25.18l24.47-116.05,54.74,42.56,41.98,32.64-3.77,35.75c-.61,5.79.8,11.63,4,16.51l5.7,8.69c1.15,1.75,2.16,3.55,3.03,5.41,4.4,9.41,5.35,20.16,2.52,30.3Z" fill="#e39f6a"></path><polygon points="1297.04 237.1 1263.1 222.9 1265.19 193.41 1295.37 186.99 1306.31 190.7 1297.04 237.1" fill="#1e224f"></polygon><path d="m1450.12,133.62l-5.26,151.58h-122.62l-29.95-109.49,39.17-63.11s61.64-10.27,62.95-10.27,55.71,31.28,55.71,31.28Z" fill="#e39f6a"></path><path d="m1241.56,66.67l.66-6.95c.61-6.35,6.03-11.15,12.41-10.98l13.53.37c10.53.29,20.16-5.89,24.3-15.58l3.5-8.2c3.96-9.27,14.69-13.57,23.95-9.58l23.84,10.25c7.06,3.04,15.13,2.59,21.81-1.2l12.45-7.06c8.64-4.9,19.63-1.15,23.47,8.01l1.91,4.54c2.27,5.41,8.01,8.5,13.78,7.42l8.87-1.66c7.92-1.48,15.89,2.32,19.7,9.42h0c3.66,6.8,10.45,11.36,18.14,12.18h0c9.75,1.04,18,7.67,21.1,16.97h0c1.34,4.03.44,8.47-2.37,11.65l-7.97,9.04c-4.13,4.69-4.31,11.66-.43,16.56l6.16,7.77c6.66,8.41,5.55,20.87-2.95,27.4-4.46,3.43-10.91,5.22-20.23,2.69-8.38-2.27-15.72-7.36-21.15-14.13l-10.53-13.13s-3.5-1.75-3.5,2.55c0,3.66-.1,12.95-9.21,12.27-3.12-.23-6.03-1.68-8.28-3.84l-6.61-6.35c-3.91-3.76-10.33-2.79-12.95,1.97h0c-7.69,13.94-23.03,22.04-38.84,20.14-1.03-.12-2.09-.28-3.18-.46-3.63-.6-6.44,3.2-4.75,6.47,7.51,14.53,11.27,42.16-63.08,48.29l-17.28,70.62s-31,1.7-37.33-16.37c-1.76-5.03-.96-10.6,1.74-15.19l3.38-5.73c2.44-4.13.36-9.45-4.23-10.83l-27.8-8.37c-11.2-3.37-20.36-11.76-24.1-22.84-1.95-5.79-2.61-12.62-.31-20.2,3.3-10.87,11.87-19.35,22.59-23.12l11.63-4.09c4.16-1.46,6.94-5.39,6.94-9.79h0c0-2.57-.95-5.04-2.67-6.95l-7.73-8.57c-3.56-3.95-5.4-9.14-5.12-14.45h0c.39-7.45,5.88-13.64,13.23-14.93l4.31-.75c9.48-1.65,18.1-6.55,24.36-13.86h0c2.76-3.22,4.45-7.21,4.85-11.42Z" fill="#1e224f"></path><path d="m1374.37,363.93c-111.39-.91-78.08-114.97-78.08-114.97,0,0,11.37,6.3,27.14,15.97l41.98,32.64-3.77,35.75c-.61,5.79.8,11.63,4,16.51l5.7,8.69c1.15,1.75,2.16,3.55,3.03,5.41Z" fill="#c67f4e"></path><path d="m1327.41,184.02s-29.43,61,22.67,85.66c0,0,15.5,6.2,32.13-8.42,15.62-13.73,38.9-22.97,60.57-4.34,2.9,2.49,4.64,6.09,4.9,9.9,1.03,15.09-1.17,54.52-50.59,63.25-41.06,7.25-68.68-11.29-82.49-24.39-7.26-6.89-12.62-15.5-15.81-24.99-5.99-17.86-12.75-51.72,3.25-89.49l25.36-7.18Z" fill="#1e224f"></path><path d="m1422.74,242.29s-.08,0-.12,0l-31.06-2.13.24-3.57,28.59,1.96-9.33-36.69,3.47-.88,9.94,39.09c.14.56,0,1.15-.36,1.59-.34.41-.85.64-1.37.64Z" fill="#1e224f"></path><path d="m1432.1,201.42c0,3.66-1.7,6.62-3.79,6.62s-3.79-2.96-3.79-6.62,1.7-6.62,3.79-6.62,3.79,2.96,3.79,6.62Z" fill="#1e224f"></path><ellipse cx="1363.03" cy="200.24" rx="3.79" ry="6.62" fill="#1e224f"></ellipse><rect x="1264.31" y="195.68" width="77.79" height="4.77" transform="translate(-7.23 340.71) rotate(-14.85)" fill="#fff"></rect><path d="m1286.72,208.44s-15.03-12.75-28.91-3.04c-13.88,9.71-7.24,35.61,34.48,35.1l-5.56-32.06Z" fill="#e39f6a"></path><path d="m1441.41,169.02c-5.52-3.5-12.32-.65-12.39-.62l-1.43-3.28c.35-.15,8.59-3.65,15.73.88l-1.92,3.02Z" fill="#1e224f"></path><path d="m1382.69,169.02c-5.53-3.5-12.32-.65-12.39-.62l-1.43-3.28c.35-.15,8.58-3.65,15.73.88l-1.92,3.02Z" fill="#1e224f"></path><path d="m1394.72,265.92c-2.2,10.1,2.58,19.71,10.66,21.47,8.08,1.76,16.42-5,18.62-15.1l-29.28-6.37Z" fill="#fff"></path><path d="m1416.92,128.51c.23-2.4,3.39-4.6,5.67-4.55,2.49.05,4.97,2.07,6.33,4,1.84,2.62,2.58,5.88,3.13,8.98.81,4.56,1.18,9.17,3.17,13.42,3.43,7.32,10.48,12.53,18.2,14.58,17.01,4.52,32.7-7.37,38.73-22.73.84-2.14-2.62-3.07-3.45-.95-4.24,10.79-13.91,20.1-25.91,21.04-11.84.93-23.32-6.77-25.97-18.45-1.78-7.82-1.69-19.4-10.81-22.8-5.75-2.15-12.08,1.36-12.67,7.48-.22,2.29,3.36,2.28,3.58,0h0Z" fill="#1e224f"></path><path d="m1314.75,42.57c2.93-11.35,16.14-2.34,21.54,1.33,4.52,3.07,9.24,5.38,14.84,4.93,5.24-.42,9.43-3.22,13.13-6.75,5.14-4.9,13.43-15.55,21.51-9.2,1.79,1.41,4.34-1.11,2.53-2.53-4.91-3.86-10.79-3.33-16.1-.26-8.62,4.98-13.16,16.76-24.83,14.98-8.67-1.33-14.08-9.93-22.81-11.35-5.93-.96-11.73,1.91-13.27,7.89-.58,2.23,2.88,3.18,3.45.95h0Z" fill="#fff"></path><path d="m1207.01,92.81c-10.86,3.62-21.77,11.3-20.1,24.21,2.1,16.23,29.3,19.44,20.27,38.34-.99,2.07,2.1,3.89,3.09,1.81,5-10.46.97-19.12-7.77-25.92-7.04-5.48-14.9-11.22-11.47-21.46,2.49-7.43,10.01-11.21,16.93-13.51,2.17-.72,1.24-4.18-.95-3.45h0Z" fill="#1e224f"></path><path d="m1195.47,217.46c6.37,1.45,16.24,3.66,17.18,11.61.79,6.7-6.29,9.59-8.88,14.98-3.85,8.01-.21,18.39,5.28,24.7,5.86,6.73,14.68,9.87,23.35,7.25,11.11-3.36,17.77-13.65,23.55-22.96,1.22-1.96-1.88-3.76-3.09-1.81-6.2,9.98-14.61,23-28.11,22.15-11.59-.73-22.47-15.58-18.07-26.82,2.99-7.64,12.63-10.82,8.86-20.49-3.09-7.92-11.6-10.35-19.13-12.06-2.24-.51-3.2,2.94-.95,3.45h0Z" fill="#1e224f"></path><path d="m1398.58,48.61c11.59-1.41,17.61-10.84,25.91-17.83,4.96-4.17,12.26-7.57,18.5-3.85,5.96,3.56,3.37,11.06,6.77,16.19,6.76,10.19,24.19,2.2,28.71,14.6,5.53,15.17-12.42,24.07-23.47,28.65-2.1.87-1.18,4.33.95,3.45,11.43-4.74,25.15-11.03,26.69-24.95.53-4.85-.54-10.04-3.98-13.67-4.86-5.13-12.1-4.4-18.42-5.85-6.37-1.46-8.32-4.83-9.32-10.98-.47-2.88-.97-5.49-2.85-7.8-2.97-3.63-7.86-4.99-12.4-4.72-16.02.93-21.53,21.27-37.1,23.17-2.26.28-2.29,3.86,0,3.58h0Z" fill="#1e224f"></path><path d="m1339.57,146.79c5.31,4.81,8.53,11.91,15.89,13.98,5.98,1.69,14.54.48,19.22-3.79,5.98-5.45,5.56-13.83,7.55-21.02,2.72-9.82,11.46-15.75,21.62-14.42,2.28.3,2.26-3.28,0-3.58-12.63-1.65-22.95,6.89-25.5,18.96-1.98,9.36-2.43,18.77-14.07,20.61-11.56,1.82-14.95-6.72-22.18-13.27-1.7-1.54-4.24.98-2.53,2.53h0Z" fill="#1e224f"></path><path d="m1362.46,180.77c3.6.53,6.41,3.58,6.53,7.34l.61,20.24c.13,4.22-3.19,7.75-7.42,7.88-4.22.12-7.75-3.19-7.88-7.42l-.61-20.24c-.13-4.22,3.19-7.75,7.42-7.88.46-.01.91.01,1.35.08Z" fill="#1e224f"></path><path d="m1432.72,179.99c3.6.53,6.41,3.58,6.53,7.34l.61,20.24c.13,4.22-3.19,7.75-7.42,7.88-4.22.12-7.75-3.19-7.88-7.42l-.61-20.24c-.13-4.22,3.19-7.75,7.42-7.88.46-.01.91.01,1.35.08Z" fill="#1e224f"></path><path d="m1431.06,202.43c-4.88-.72-6,6.85-1.11,7.57,4.88.72,6-6.85,1.11-7.57h0Z" fill="#fff"></path><path d="m1360.74,204.54c-4.88-.72-6,6.85-1.11,7.57s6-6.85,1.11-7.57h0Z" fill="#fff"></path><path d="m1370.07,228.07c-6.93,0-14.55-1.17-21.34-4.85-.26-.14-.49-.33-.68-.56-.62-.73-15.13-18.23-7.4-41.91.21-.65.69-1.17,1.31-1.45.97-.42,24.15-10.24,63.13,2.43.91.3,1.56,1.11,1.64,2.06.1,1.12,2.24,27.7-14.17,40.44-.21.16-.44.29-.69.37-.63.22-10.25,3.46-21.8,3.46Zm-18.64-8.82c15.11,7.88,35.54,1.91,38.52.97,11.96-9.62,12.28-28.84,12.1-34.43-32-10-52.6-4.09-57.2-2.47-5.6,18.89,4.77,33.57,6.58,35.94Z" fill="#fff"></path><path d="m1447.56,231.78c-6.93,0-14.55-1.17-21.34-4.85-.26-.14-.49-.33-.68-.56-.62-.73-15.12-18.23-7.4-41.91.21-.65.69-1.17,1.31-1.45.97-.42,24.15-10.24,63.13,2.43.91.3,1.56,1.11,1.64,2.06.1,1.12,2.24,27.7-14.17,40.44-.21.16-.44.29-.69.37-.63.22-10.25,3.46-21.8,3.46Zm-18.65-8.82c15.11,7.88,35.54,1.91,38.52.97,11.96-9.62,12.28-28.84,12.1-34.43-31.88-9.96-52.59-4.07-57.21-2.47-5.63,18.97,4.76,33.57,6.58,35.93Z" fill="#fff"></path><rect x="1409.4" y="186.45" width="4.77" height="13.02" transform="translate(1120.48 1587.77) rotate(-85.99)" fill="#fff"></rect><rect x="1333.8" y="185.87" width="8.5" height="4.77" transform="translate(1065.57 1511.73) rotate(-86.38)" fill="#fff"></rect></svg>