<svg xmlns="http://www.w3.org/2000/svg" xmlns:xlink="http://www.w3.org/1999/xlink" id="_&#xEB;&#xCE;&#xD3;&#xC8;_1" width="2287.27" height="1664" viewBox="0 0 2287.27 1664"><defs><clipPath id="clippath"><rect x="1254.71" y="1009.74" width="656.6" height="242.22" fill="none"></rect></clipPath></defs><path d="m2041.17,1531.22H336.69c-47.47,0-86.09-38.62-86.09-86.09V356.3c0-47.47,38.62-86.09,86.09-86.09h1704.49c47.47,0,86.09,38.62,86.09,86.09v1088.82c0,47.47-38.62,86.09-86.09,86.09Z" fill="none" stroke="#f8f8fc" stroke-miterlimit="10" stroke-width="12.21"></path><rect x="165.59" y="203.11" width="1872.47" height="1256.81" rx="83.99" ry="83.99" fill="#f8f8fc"></rect><path d="m1934.61,318.56c-17.36,0-31.49-14.13-31.49-31.49s14.13-31.49,31.49-31.49,31.49,14.13,31.49,31.49-14.13,31.49-31.49,31.49Z" fill="#fff"></path><path d="m1827.33,318.56c-17.36,0-31.49-14.13-31.49-31.49s14.13-31.49,31.49-31.49,31.49,14.13,31.49,31.49-14.13,31.49-31.49,31.49Z" fill="#fff"></path><path d="m1720.06,318.56c-17.36,0-31.49-14.13-31.49-31.49s14.13-31.49,31.49-31.49,31.49,14.13,31.49,31.49-14.13,31.49-31.49,31.49Z" fill="#fff"></path><polyline points="1663.41 1460.34 1663.41 818.95 1128.08 818.95 1128.08 1460.34" fill="none" stroke="#fff" stroke-miterlimit="10" stroke-width="8.24"></polyline><line x1="2037.95" y1="1138.06" x2="1128.08" y2="1138.06" fill="none" stroke="#fff" stroke-miterlimit="10" stroke-width="8.24"></line><path d="m135.85,310.78s-64.61,26.77-110.54,88.6c0,0,109.53-60.06,217.29-17.67,107.76,42.4-5.04-99.46-106.75-70.93Z" fill="#1e224f"></path><path d="m740.01,925.06s-107.17-89.42-64.57-294.9c28.12-135.64,5.93-230.46-11.59-277.97-1.24-3.37,3.45-5.64,5.33-2.59,40.46,65.59,122.51,219.53,99.55,357.69-30.15,181.44-28.72,217.77-28.72,217.77Z" fill="#71efa3"></path><path d="m534.62,658.5c.49,1.04,49.76,105.91,102.96,249.62,49.12,132.7,111.75,326.63,131.15,496.96" fill="none" stroke="#71efa3" stroke-linecap="round" stroke-miterlimit="10" stroke-width="9.77"></path><rect x="736.17" y="785.74" width="7.62" height="263.35" transform="translate(-124.3 116.02) rotate(-8.27)" fill="#71efa3"></rect><path d="m504.25,1223.28s321.99,128.67,277.78-196.76l-215.78,37.88-62,158.88Z" fill="#1e224f"></path><path d="m504.25,1223.28c-66.37,20.58-32.98,173.82-32.98,173.82-154.33-120.44-191.83-233.88-191.7-315.85,34.58-14.07,88.74-40.86,69.02-64.19-12.53-14.82-36.38-13.43-59.05-7.27,2.42-8.54,5.09-16.22,7.75-22.95,8.14-20.68,25.58-36.27,46.93-42.42,317.86-91.42,437.81,82.09,437.81,82.09,15.28,130.58-211.4,176.18-277.77,196.77Z" fill="#71efa3"></path><path d="m565.14,728.29c-306.67-95.25-348.54-262.5-345.47-347.33,3.06-84.84-83.81-70.18-83.81-70.18,62.35-42.59,149.67,1.07,149.67,1.07,119.83-6.66,196.2,18.37,243.65,59.05-7.82,19.96-15.75,53.59,2,84.2,15.4,26.55,28.74-4.51,37.49-36.94,72.65,123.7-3.52,310.14-3.52,310.14Z" fill="#71efa3"></path><path d="m740.01,925.06s133.82-30.2,98.58-149.55c-35.24-119.35-85.36-241.94-85.36-241.94,0,0,42.09,134.19-11.81,257.68-53.9,123.49-1.41,133.81-1.41,133.81Z" fill="#1e224f"></path><path d="m609.13,919.78c-70.26-.36-130.44,41.55-166.52,99.99-18.6,30.13-31.13,64.16-36.66,99.13-6.23,39.43-3.07,81.03,4.2,120.09,10.41,55.98,32.04,110.08,57.57,160.76,1.32,2.63,5.27.32,3.95-2.31-22.04-43.74-40.74-89.77-52.34-137.44-5.78-23.76-9.5-48.02-10.75-72.44-.9-17.52-1.81-34.76-.14-52.28,6.44-67.25,39.67-134.91,94.48-175.66,30.81-22.91,67.77-35.45,106.2-35.26,2.94.01,2.95-4.56,0-4.57h0Z" fill="#fff"></path><path d="m257.19,1145.85c49.4-13.77,99.91-23.02,150.99-27.59-.38-1.42-.77-2.84-1.15-4.26-43.79,24.11-87.58,48.22-131.38,72.34-2.58,1.42-.27,5.37,2.31,3.95,43.79-24.11,87.58-48.22,131.38-72.34,1.9-1.05,1.15-4.47-1.15-4.26-51.49,4.6-102.41,13.87-152.21,27.75-2.83.79-1.63,5.2,1.22,4.41h0Z" fill="#fff"></path><path d="m278.22,303.86c12.98,22.83,20.68,48.31,31,72.38,9.98,23.27,21.13,46.04,33.38,68.2,24.39,44.12,53.17,85.81,85.72,124.3,18.57,21.96,38.4,42.82,59.32,62.57,2.14,2.02,5.38-1.21,3.23-3.23-73.59-69.45-133.12-153.34-174.11-245.88-11.81-26.67-20.15-55.23-34.6-80.64-1.45-2.56-5.41-.26-3.95,2.31h0Z" fill="#fff"></path><path d="m402.33,299.86c-16.79,33.95-25.57,71.07-25.69,108.94,0,1.88,2.57,3.15,3.9,1.62,11-12.61,22.93-24.28,36.66-33.9-1.15-.66-2.29-1.32-3.44-1.97-.65,14.67-2.18,29.99,1.91,44.37,4.47,15.72,19.74-.1,25.49-5.82,2.09-2.08-1.14-5.31-3.23-3.23-2.44,2.42-13.32,14.85-17.67,8.66-2.05-2.92-2.05-11.77-2.4-15.01-1.02-9.59.05-19.35.48-28.96.07-1.65-2.03-2.96-3.44-1.97-14.06,9.85-26.33,21.71-37.59,34.62,1.3.54,2.6,1.08,3.9,1.62.12-37.06,8.64-73.41,25.07-106.63,1.3-2.63-2.64-4.95-3.95-2.31h0Z" fill="#fff"></path><rect x="1589.47" y="687.82" width="627.3" height="213" rx="26.28" ry="26.28" fill="#eeeff8"></rect><rect x="1544.28" y="630.39" width="717.68" height="243.69" rx="26.28" ry="26.28" fill="#fff"></rect><rect x="1631.01" y="751.58" width="218.25" height="22.25" fill="#e1e2f2"></rect><rect x="1631.01" y="787.51" width="184.78" height="22.25" fill="#e1e2f2"></rect><polygon points="1579.78 699.3 1595.75 677.5 1611.71 699.3 1595.75 696.04 1579.78 699.3" fill="#71efa3"></polygon><polygon points="1603.67 726.59 1595.75 722.9 1587.83 726.59 1591.52 696.04 1599.98 696.04 1603.67 726.59" fill="#71efa3"></polygon><path d="m1658.79,699.52c6.13,1.27,9.96,5.9,9.96,12.27,0,8.74-7.18,13.77-17.07,13.77-6.19,0-11.29-1.27-15.28-3.3l-1.74-10.88c4.46,3.36,10.71,5.38,16.21,5.38,4.98,0,7.7-1.56,7.7-4.8s-2.66-5.04-9.32-5.04c-4.11,0-7.99.41-11.75,1.5l-.23-.64,15.11-14.41h-17.02v-9.03h31.31v8.04l-7.87,7.12Z" fill="#1e224f"></path><path d="m1696,699.52c6.13,1.27,9.96,5.9,9.96,12.27,0,8.74-7.18,13.77-17.07,13.77-6.19,0-11.29-1.27-15.28-3.3l-1.74-10.88c4.46,3.36,10.71,5.38,16.21,5.38,4.98,0,7.7-1.56,7.7-4.8s-2.66-5.04-9.32-5.04c-4.11,0-7.99.41-11.75,1.5l-.23-.64,15.11-14.41h-17.02v-9.03h31.31v8.04l-7.87,7.12Z" fill="#1e224f"></path><path d="m1730.21,724.87v-8.22h-21.47v-8.45l16.21-23.85h10.77l-15.8,23.67h10.3v-9.43h9.78v9.43h6.02v8.62h-6.02v8.22h-9.78Z" fill="#1e224f"></path><rect x="1964.22" y="751.58" width="218.25" height="22.25" fill="#e1e2f2"></rect><rect x="1964.22" y="787.51" width="184.78" height="22.25" fill="#e1e2f2"></rect><polygon points="1912.99 699.3 1928.96 677.5 1944.93 699.3 1928.96 696.04 1912.99 699.3" fill="#71efa3"></polygon><polygon points="1936.88 726.59 1928.96 722.9 1921.04 726.59 1924.73 696.04 1933.19 696.04 1936.88 726.59" fill="#71efa3"></polygon><path d="m1967.98,687.59c3.24-2.49,7.87-3.94,13.83-3.94,10.65,0,16.26,4.92,16.26,13.37,0,7.99-6.48,12.33-12.73,15.34l-7.47,3.59h20.78v8.91h-34.09v-8.68l16.84-11.92c3.36-2.37,6.48-4.17,6.48-7.12,0-2.55-2.08-4.17-7.18-4.17-5.61,0-11.17,2.43-15.05,5.79l2.32-11.17Z" fill="#1e224f"></path><path d="m2009.65,703.05c-4.05-1.04-6.77-3.99-6.77-8.39,0-6.77,6.77-11,17.07-11s17.07,4.23,17.07,11c0,4.4-2.72,7.35-6.77,8.39,4.28.98,8.04,4.23,8.04,9.78,0,7.7-7.29,12.73-18.35,12.73s-18.35-5.04-18.35-12.73c0-5.56,3.76-8.8,8.04-9.78Zm10.3,14.58c4.69,0,8.22-1.68,8.22-5.09,0-2.95-3.07-4.98-8.22-4.98s-8.22,2.03-8.22,4.98c0,3.41,3.53,5.09,8.22,5.09Zm0-18c4.34,0,7.12-1.56,7.12-4.11s-2.49-3.99-7.12-3.99-7.12,1.56-7.12,3.99,2.78,4.11,7.12,4.11Z" fill="#1e224f"></path><path d="m2043.34,712.13c2.6,2.43,6.6,4.51,12.5,4.51,7.52,0,11-4.05,11.63-10.88-1.62,2.95-5.32,5.38-11.17,5.38-9.67,0-14.93-4.92-14.93-12.96,0-8.45,7.29-14.53,17.36-14.53,12.79,0,19.04,8.28,19.04,18.06,0,12.91-5.79,23.85-20.66,23.85-5.61,0-9.43-1.16-11.98-3.12l-1.79-10.3Zm8.16-14.24c0,2.95,2.43,5.56,7.58,5.56,4.11,0,6.71-1.27,8.51-2.72v-.46c0-5.09-3.07-8.39-8.39-8.39-4.46,0-7.7,2.31-7.7,6.02Z" fill="#1e224f"></path><rect x="1254.71" y="1032.4" width="656.6" height="323.59" rx="26.28" ry="26.28" fill="#eeeff8"></rect><rect x="1224.17" y="975.26" width="717.68" height="353.69" rx="26.28" ry="26.28" fill="#fff"></rect><rect x="1254.71" y="1009.74" width="656.6" height="242.22" fill="#fff"></rect><path d="m1255.62,1284.92c0-4.67,2.73-8.67,8-8.67s8.02,4,8.02,8.67-2.75,8.67-8.02,8.67-8-4-8-8.67Zm11.8,0c0-2.75-1.34-4.93-3.81-4.93s-3.78,2.18-3.78,4.93,1.32,4.93,3.78,4.93,3.81-2.18,3.81-4.93Z" fill="#1e224f"></path><path d="m1319.91,1293.3v-11.35l-4.86,3.66v-4.84l5.34-4.24h3.73v16.76h-4.21Z" fill="#1e224f"></path><path d="m1326.1,1284.92c0-4.67,2.73-8.67,8-8.67s8.02,4,8.02,8.67-2.75,8.67-8.02,8.67-8-4-8-8.67Zm11.8,0c0-2.75-1.34-4.93-3.81-4.93s-3.78,2.18-3.78,4.93,1.32,4.93,3.78,4.93,3.81-2.18,3.81-4.93Z" fill="#1e224f"></path><path d="m1376.24,1277.88c1.34-1.03,3.26-1.63,5.72-1.63,4.4,0,6.73,2.04,6.73,5.53,0,3.3-2.68,5.1-5.27,6.34l-3.09,1.48h8.59v3.69h-14.1v-3.59l6.97-4.93c1.39-.98,2.68-1.72,2.68-2.94,0-1.05-.86-1.72-2.97-1.72-2.32,0-4.62,1.01-6.22,2.39l.96-4.62Z" fill="#1e224f"></path><path d="m1390.15,1284.92c0-4.67,2.73-8.67,8-8.67s8.02,4,8.02,8.67-2.75,8.67-8.02,8.67-8-4-8-8.67Zm11.8,0c0-2.75-1.34-4.93-3.81-4.93s-3.78,2.18-3.78,4.93,1.32,4.93,3.78,4.93,3.81-2.18,3.81-4.93Z" fill="#1e224f"></path><path d="m1444.76,1282.81c2.54.53,4.12,2.44,4.12,5.08,0,3.62-2.97,5.7-7.06,5.7-2.56,0-4.67-.53-6.32-1.36l-.72-4.5c1.84,1.39,4.43,2.23,6.7,2.23,2.06,0,3.18-.65,3.18-1.99s-1.1-2.08-3.86-2.08c-1.7,0-3.3.17-4.86.62l-.1-.26,6.25-5.96h-7.04v-3.74h12.95v3.33l-3.26,2.94Z" fill="#1e224f"></path><path d="m1450.1,1284.92c0-4.67,2.73-8.67,8-8.67s8.02,4,8.02,8.67-2.75,8.67-8.02,8.67-8-4-8-8.67Zm11.8,0c0-2.75-1.34-4.93-3.81-4.93s-3.78,2.18-3.78,4.93,1.32,4.93,3.78,4.93,3.81-2.18,3.81-4.93Z" fill="#1e224f"></path><path d="m1503.25,1293.3v-3.4h-8.88v-3.5l6.7-9.86h4.45l-6.54,9.79h4.26v-3.9h4.05v3.9h2.49v3.57h-2.49v3.4h-4.05Z" fill="#1e224f"></path><path d="m1510.81,1284.92c0-4.67,2.73-8.67,8-8.67s8.02,4,8.02,8.67-2.75,8.67-8.02,8.67-8-4-8-8.67Zm11.8,0c0-2.75-1.34-4.93-3.81-4.93s-3.78,2.18-3.78,4.93,1.32,4.93,3.78,4.93,3.81-2.18,3.81-4.93Z" fill="#1e224f"></path><path d="m1554.3,1287.48c1.84,1.51,4.29,2.42,6.63,2.42s3.57-.79,3.57-2.16c0-1.27-1.15-2.15-3.9-2.15s-4.29.48-5.77,1.12l-.17-.1v-10.08h13.02v3.69h-8.81v2.42c.77-.53,1.82-.79,3.42-.79,4.21,0,6.42,2.42,6.42,5.7,0,3.85-2.85,6.03-7.47,6.03-2.47,0-4.76-.65-6.22-1.63l-.72-4.48Z" fill="#1e224f"></path><path d="m1569.8,1284.92c0-4.67,2.73-8.67,8-8.67s8.02,4,8.02,8.67-2.75,8.67-8.02,8.67-8-4-8-8.67Zm11.8,0c0-2.75-1.34-4.93-3.81-4.93s-3.78,2.18-3.78,4.93,1.32,4.93,3.78,4.93,3.81-2.18,3.81-4.93Z" fill="#1e224f"></path><path d="m1628.27,1281.81c-1.08-1-2.73-1.87-5.17-1.87-3.11,0-4.55,1.68-4.81,4.5.67-1.22,2.2-2.23,4.62-2.23,4,0,6.18,2.04,6.18,5.36,0,3.5-3.02,6.01-7.18,6.01-5.29,0-7.88-3.42-7.88-7.47,0-5.34,2.39-9.86,8.55-9.86,2.32,0,3.9.48,4.96,1.29l.74,4.26Zm-3.38,5.89c0-1.22-1.01-2.3-3.14-2.3-1.7,0-2.78.53-3.52,1.12v.19c0,2.11,1.27,3.47,3.47,3.47,1.84,0,3.18-.96,3.18-2.49Z" fill="#1e224f"></path><path d="m1630.23,1284.92c0-4.67,2.73-8.67,8-8.67s8.02,4,8.02,8.67-2.75,8.67-8.02,8.67-8-4-8-8.67Zm11.8,0c0-2.75-1.34-4.93-3.81-4.93s-3.78,2.18-3.78,4.93,1.32,4.93,3.78,4.93,3.81-2.18,3.81-4.93Z" fill="#1e224f"></path><path d="m1674.22,1293.3l8.45-13.05h-9.22v-3.71h14.2v3.26l-8.64,13.5h-4.79Z" fill="#1e224f"></path><path d="m1688.08,1284.92c0-4.67,2.73-8.67,8-8.67s8.02,4,8.02,8.67-2.75,8.67-8.02,8.67-8-4-8-8.67Zm11.8,0c0-2.75-1.34-4.93-3.81-4.93s-3.78,2.18-3.78,4.93,1.32,4.93,3.78,4.93,3.81-2.18,3.81-4.93Z" fill="#1e224f"></path><path d="m1736.83,1284.27c-1.68-.43-2.8-1.65-2.8-3.47,0-2.8,2.8-4.55,7.06-4.55s7.06,1.75,7.06,4.55c0,1.82-1.12,3.04-2.8,3.47,1.77.41,3.33,1.75,3.33,4.05,0,3.18-3.02,5.27-7.59,5.27s-7.59-2.08-7.59-5.27c0-2.3,1.56-3.64,3.33-4.05Zm4.26,6.03c1.94,0,3.4-.69,3.4-2.11,0-1.22-1.27-2.06-3.4-2.06s-3.4.84-3.4,2.06c0,1.41,1.46,2.11,3.4,2.11Zm0-7.45c1.8,0,2.94-.65,2.94-1.7s-1.03-1.65-2.94-1.65-2.94.65-2.94,1.65,1.15,1.7,2.94,1.7Z" fill="#1e224f"></path><path d="m1750.01,1284.92c0-4.67,2.73-8.67,8-8.67s8.02,4,8.02,8.67-2.75,8.67-8.02,8.67-8-4-8-8.67Zm11.8,0c0-2.75-1.34-4.93-3.81-4.93s-3.78,2.18-3.78,4.93,1.32,4.93,3.78,4.93,3.81-2.18,3.81-4.93Z" fill="#1e224f"></path><path d="m1793.98,1288.03c1.08,1,2.73,1.87,5.17,1.87,3.11,0,4.55-1.68,4.81-4.5-.67,1.22-2.2,2.23-4.62,2.23-4,0-6.18-2.04-6.18-5.36,0-3.5,3.02-6.01,7.18-6.01,5.29,0,7.88,3.42,7.88,7.47,0,5.34-2.39,9.86-8.55,9.86-2.32,0-3.9-.48-4.96-1.29l-.74-4.26Zm3.38-5.89c0,1.22,1.01,2.3,3.14,2.3,1.7,0,2.78-.53,3.52-1.12v-.19c0-2.11-1.27-3.47-3.47-3.47-1.84,0-3.18.96-3.18,2.49Z" fill="#1e224f"></path><path d="m1809.56,1284.92c0-4.67,2.73-8.67,8-8.67s8.02,4,8.02,8.67-2.75,8.67-8.02,8.67-8-4-8-8.67Zm11.8,0c0-2.75-1.34-4.93-3.81-4.93s-3.78,2.18-3.78,4.93,1.32,4.93,3.78,4.93,3.81-2.18,3.81-4.93Z" fill="#1e224f"></path><path d="m1857.52,1293.3v-11.35l-4.86,3.66v-4.84l5.34-4.24h3.73v16.76h-4.21Z" fill="#1e224f"></path><path d="m1863.71,1284.92c0-4.67,2.73-8.67,8-8.67s8.02,4,8.02,8.67-2.75,8.67-8.02,8.67-8-4-8-8.67Zm11.8,0c0-2.75-1.34-4.93-3.81-4.93s-3.78,2.18-3.78,4.93,1.32,4.93,3.78,4.93,3.81-2.18,3.81-4.93Z" fill="#1e224f"></path><path d="m1881.07,1284.92c0-4.67,2.73-8.67,8-8.67s8.02,4,8.02,8.67-2.75,8.67-8.02,8.67-8-4-8-8.67Zm11.8,0c0-2.75-1.34-4.93-3.81-4.93s-3.78,2.18-3.78,4.93,1.32,4.93,3.78,4.93,3.81-2.18,3.81-4.93Z" fill="#1e224f"></path><g clip-path="url(#clippath)"><path d="m1219.66,1063.05c66.58,1.13,99.3,20.33,124.13,51.92,24.83,31.59,38.37-7.91,46.27-44.02,7.9-36.11,22.57-61.54,46.27-17.53,23.7,44.01,49.65,33.77,59.81,26.22,10.16-7.55,33.85-19.94,63.19,35.34,29.34,55.28,41.75,45.13,56.42,31.59,14.67-13.54,30.47-15.89,51.91,10.67,21.44,26.56,43.02,24.31,86.96-16.32,43.94-40.62,74.41-51.89,106-25.94,31.6,25.94,81.25,3,81.25,3v152.51h-717.68l-4.51-207.43Z" fill="#71efa3" opacity=".5"></path><path d="m1946.37,1191.31s-76.73,25.99-117.36-32.69c-40.62-58.68-66.58-33.85-83.5-14.67-16.93,19.18-41.75,33.85-81.25-42.88-39.5-76.73-82.38-33.85-99.3,4.51-16.93,38.37-63.19,84.63-101.56,32.35-38.37-52.28-81.24-18.09-89.82,26.33-8.59,44.42-44.46,24.83-61.39,6.77-16.93-18.05-33.85-31.6-88.02-47.31v166.72h717.68l4.51-99.13Z" fill="#71efa3" opacity=".5"></path><path d="m1232.07,1205.76c44.01-3.39,53.04,37.93,72.22-14.89,19.18-52.82,38.37-69.63,75.61-17.78,37.24,51.85,58.68,13.45,69.96-2.33,11.28-15.78,30.47-28.63,65.45,20.11,34.98,48.74,42.88,35.9,59.81,27.08,16.93-8.81,32.72-4.12,44.01,4.82,11.28,8.94,33.12,16.2,53.04-18.14,19.92-34.34,49.65-18.05,71.09-2.26,21.44,15.8,33.85,4.75,44.01-9.48,10.16-14.22,38.02-44.15,63.02.72,25,44.87,67.88,45.05,91.58,29.16v43.72h-717.68l7.9-60.73Z" fill="#71efa3"></path></g><polygon points="1388.02 1580.77 1261.63 1092.81 1013.39 1061.21 808.92 1311.06 869.33 1640 1047.87 1634.29 1090.35 1372.19 1156.99 1554.18 1388.02 1580.77" fill="#fff"></polygon><polygon points="906.52 1197.98 975.35 1144.83 943.2 1136.66 861.95 1182.5 906.52 1197.98" fill="#1e224f"></polygon><path d="m1388.74,1587.17c-1.36,0-2.6-.92-2.95-2.29l-56.69-220.28c-.42-1.63.56-3.3,2.19-3.72,1.63-.42,3.3.56,3.72,2.19l56.69,220.28c.42,1.63-.56,3.3-2.19,3.72-.26.07-.51.1-.76.1Z" fill="#1e224f"></path><path d="m1034.03,1115.81s173.7,56.89,253.55-17.27c79.85-74.17-32.58-111.83-32.58-111.83l-220.98,129.11Z" fill="#1e224f"></path><path d="m1269.61,720.71c-1.47-3.53,36.03-78.32,55.37-116.47,5.33-10.52,19.62-12.28,27.35-3.37l84.53,97.27c4.32,4.97,5.3,12.03,2.49,17.98l-116.45,246.95c-6.13,12.99-24.73,12.62-30.33-.61-15.18-35.87-36.3-88.84-33.49-99.6,4.33-16.57,10.52-142.15,10.52-142.15Z" fill="#f8f8fc"></path><path d="m1282.17,734.39c-1.47-3.53,36.03-78.32,55.37-116.47,5.33-10.52,19.62-12.28,27.35-3.37l84.53,97.27c4.32,4.97,5.3,12.03,2.49,17.98l-116.45,246.95c-6.13,12.99-24.73,12.62-30.33-.61-15.18-35.87-36.3-88.84-33.49-99.6,4.33-16.57,10.52-142.15,10.52-142.15Z" fill="#1e224f"></path><path d="m1332.06,1154.48s10.26,17.37-8.28,46.1c-11.88,18.41,2.11,50.48,7.08,69.01,10.96,40.83,19.47,82.48,17.69,125-.32,7.74-1.07,15.46-1.66,23.18-13.46-19.22-27.29-38.83-46.4-52.45-14.29-10.19-31.18-17.45-40.22-33.3-7.47-13.09-13.61-27.68-17.22-42.35l-6.8-101.86,95.81-33.33Z" fill="#1e224f"></path><path d="m1312.54,1128.79c.14,1.48,1.33,2.64,2.82,2.73,12.93.81,70.26.9,78.17-60.58,8.38-65.21-4.16-159.32-5.69-170.37-.1-.7.05-1.4.43-2l34.83-56.06c2.08-3.34,3.45-7.07,4.05-10.95l.56-3.62c.49-3.18.11-6.44-1.11-9.42l-47.87-117.25c-.88-2.16-3.78-2.55-5.2-.69h0c-1.87,2.46-2.72,5.54-2.35,8.61l6.95,58.79c.32,2.7-2.81,4.41-4.91,2.69l-10.94-8.95c-4.09-3.35-21.93-10.1-27.02-8.69l-2.26,8.72c-3.73,1.03-6.21,2.86-6.38,6.74l-5.31,32.47c-.13,3.18.7,6.32,2.39,9.01l8.29,13.2c1.91,3.04,4.61,5.51,7.8,7.14l13.95,7.13s-30.18,20.24-18.95,50.08c.08.2.18.4.29.59l8.39,13.26c.5.79.61,1.77.29,2.65l-41.27,113.35c-.15.42-.21.87-.17,1.31l10.2,110.11Z" fill="#ffad94"></path><path d="m845.74,1524.24s-125.73-35.05-89.71-183.39c36.02-148.34-14.59-235.32-14.59-235.32l138.69,157.33-68.63,70.43,34.25,190.95Z" fill="#e1e2f2"></path><path d="m1179.8,294.92s-14.17,86.74,41.79,227.76c55.96,141.02-133.53-45.33-133.53-45.33l-6.37-119.76,98.11-62.68Z" fill="#1e224f"></path><path d="m1208.04,164.64c0,81.18-61.33,146.99-136.99,146.99s-176.17-65.81-176.17-146.99,100.51-146.99,176.17-146.99,136.99,65.81,136.99,146.99Z" fill="#1e224f"></path><path d="m1281.47,631.58c-2.37,16.64-8.06,35.3-18.04,56.23l-41.25-98-68.57-125.98s142.48,65.54,127.86,167.75Z" fill="#e1e2f2"></path><path d="m981.48,372.91s83.54,36.29,140.4,41.84l13.8,98.93,89.27,235.75,11.29,303.64s-72.87,101.61-222.76,64.88c-149.89-36.74-13.44-444.38-13.44-444.38l-18.57-300.66Z" fill="#fff"></path><path d="m981.48,372.9l.52,8.48-7.45-2.48,34.23-129.48,95.18,81.97,4.83,81.63c-55.74-9.03-127.32-40.13-127.32-40.13Z" fill="#ffad94"></path><path d="m1065.63,929.65l75.35-137.19c4.74-8.63,17.84-5.48,18.13,4.36,1.8,60.09-5.82,187.5-93.49,260.04-117.56,97.26,0-127.2,0-127.2Z" fill="#eeeff8"></path><path d="m754.77,1148.7s-48.26-12.96-67.62-77.74c-19.36-64.78,26.9-85.74,30.03-144.18,3.13-58.44-16.05-300.69,21.24-346.36,37.29-45.67,135.39-60.48,135.39-60.48l97.33,126.16s21.84,134.21,53.86,180.21c28.4,40.81,96.43,165.48,37.42,263.06-12.76,21.1-32.65,36.94-55.99,44.89l-115.61,39.34-136.04-24.91Z" fill="#e1e2f2"></path><path d="m909.08,112.1s-55.43,81.85-25.47,225.63c0,0-98.61,142.62-72.43,199.2,26.18,56.57,67.18,88.41,67.18,88.41,0,0-18.05,96.31,136.73,154.05,0,0,26.59,14.53,45.07-31.25,18.48-45.78,58.55-146.03-26.13-265.21-84.68-119.18-9.75-248.89-9.75-248.89l-115.2-121.92Z" fill="#1e224f"></path><path d="m1051.45,324.39s.62,63.01,68.5,74.86c67.88,11.85,6.29-47.93,6.29-47.93l-74.8-26.93Z" fill="#1e224f"></path><ellipse cx="1112.63" cy="251.95" rx="87.1" ry="126.97" fill="#ffad94"></ellipse><ellipse cx="1107.91" cy="185.35" rx="95.87" ry="101.98" fill="#ffad94"></ellipse><path d="m1003.88,223.65s38.16,5.75,47.57-40.69c9.41-46.44,59.23-94.37,85.65-102,26.42-7.64-49.05-20.52-49.05-20.52l-76.01,24.14-8.16,139.08Z" fill="#1e224f"></path><ellipse cx="1008.79" cy="249.43" rx="34.82" ry="50.39" transform="translate(-30.35 257.65) rotate(-14.34)" fill="#ffad94"></ellipse><path d="m1126.25,444.65s62.93,17.11,95.98,109.38c33.05,92.27,24.91,67.85,49.17,101.51,24.26,33.66,60.66,498.94,60.66,498.94,0,0-92.48,41.76-89.01,135.19,0,0-48.29-173.93-26.49-325.79,21.8-151.86-16.24-248.17-80.88-450.21l-9.43-69.02Z" fill="#e1e2f2"></path><path d="m946.77,769.85c2.35,5.83,4.76,11.59,7.29,17.24,1.22,2.84,2.59,5.62,3.81,8.43l3.95,8.32c5.34,11.02,11.1,21.72,17.07,32.23,1.54,2.6,3.08,5.2,4.56,7.83l1.11,1.97,1.19,1.92c.8,1.28,1.57,2.58,2.35,3.87l2.3,3.9,1.13,1.96c.38.65.81,1.27,1.21,1.91l4.79,7.7c.8,1.29,1.52,2.63,2.38,3.87l2.54,3.76,5.1,7.54c3.6,4.88,7.35,9.67,11.18,14.4l6.08,6.81,3.04,3.41,1.52,1.71,1.62,1.76c2.15,2.37,4.38,4.67,6.43,7.14l3.13,3.65c1.05,1.21,2.01,2.5,3.02,3.74,4.02,5,7.68,10.3,11.22,15.66,3.41,5.46,6.68,11,9.48,16.8,5.55,11.6,9.78,23.95,11.43,36.73.8,6.38,1.08,12.82.52,19.2-.58,6.38-1.78,12.66-4.33,18.64l-1.68-.72c.9-2.82,1.43-5.91,1.77-8.92.34-3.04.44-6.09.37-9.14-.07-6.09-.94-12.15-2.29-18.05-2.71-11.83-7.66-23.02-13.84-33.4-3.06-5.21-6.56-10.18-10.16-15.03-3.75-4.77-7.57-9.46-11.75-13.88-1.03-1.11-2.02-2.26-3.08-3.34l-3.19-3.26c-2.08-2.2-4.35-4.25-6.53-6.36l-1.65-1.58-1.71-1.68-3.42-3.35-6.85-6.72c-2.24-2.28-4.34-4.7-6.52-7.05-2.15-2.38-4.41-4.66-6.51-7.09l-6.18-7.39-3.1-3.7c-1.05-1.23-1.95-2.55-2.94-3.83l-5.68-7.82c-.95-1.3-1.84-2.65-2.67-4.03l-2.53-4.11-2.48-4.15-1.22-2.08-1.11-2.15c-1.48-2.86-2.9-5.75-4.33-8.64-5.38-11.71-9.84-23.82-12.98-36.27-.73-3.13-1.46-6.25-2.09-9.39-.55-3.17-1.15-6.31-1.55-9.5l-.56-4.78c-.16-1.59-.27-3.2-.37-4.8-.21-3.2-.28-6.41-.11-9.65l1.81-.26Z" fill="#1e224f"></path><path d="m1047.43,1640c-.16,0-.32-.01-.49-.04-1.66-.27-2.8-1.83-2.53-3.5l74.99-465.28c.27-1.66,1.83-2.8,3.5-2.53,1.66.27,2.8,1.83,2.53,3.5l-74.99,465.28c-.24,1.5-1.54,2.57-3.01,2.57Z" fill="#1e224f"></path><path d="m1157.72,1559.78c-1.25,0-2.42-.77-2.87-2.01l-67.38-186.01c-.57-1.58.25-3.33,1.83-3.91,1.58-.57,3.33.25,3.91,1.83l67.38,186.01c.57,1.58-.25,3.33-1.83,3.91-.34.12-.69.18-1.04.18Z" fill="#1e224f"></path><path d="m917.03,1326.18c-.38,0-.77-.07-1.15-.23-1.56-.63-2.31-2.41-1.68-3.97l26.17-64.52c.63-1.56,2.42-2.32,3.98-1.68,1.56.63,2.31,2.41,1.68,3.97l-26.17,64.52c-.48,1.19-1.62,1.91-2.83,1.91Z" fill="#1e224f"></path><path d="m847.97,498.97c-.29,0-.59-.07-.87-.22-.89-.48-1.22-1.59-.74-2.48.53-.98,52.67-98.48,35.48-158.04-17.41-60.32-26.02-95.89-26.1-96.24-.24-.98.37-1.97,1.35-2.21.98-.24,1.97.37,2.21,1.35.09.35,8.68,35.85,26.06,96.08,17.6,61-33.59,156.75-35.78,160.79-.33.61-.96.96-1.61.96Z" fill="#fff"></path><path d="m1140.63,278.12c-.29,0-.59-.01-.88-.05-1.01-.1-1.74-1-1.63-2.01.11-1.01,1-1.75,2.01-1.63,2.65.27,5.56-1.73,7.43-5.11,2.28-4.1,3.13-10.52-1.32-16.25-8.68-11.17-9.59-56.28-9.63-58.2-.02-1.01.79-1.85,1.8-1.86,1-.05,1.85.79,1.86,1.8.23,12.71,2.27,47.54,8.86,56.02,5.54,7.13,4.48,15.15,1.63,20.27-2.44,4.4-6.26,7.02-10.13,7.02Z" fill="#1e224f"></path><ellipse cx="1098.36" cy="211.97" rx="5.6" ry="11.69" fill="#1e224f"></ellipse><path d="m1172.53,214.77c0,5.74-2.51,10.39-5.6,10.39s-5.6-4.65-5.6-10.39,2.51-10.39,5.6-10.39,5.6,4.65,5.6,10.39Z" fill="#1e224f"></path><path d="m1071.04,179.87c-.31,0-.62-.08-.91-.24-.88-.5-1.18-1.62-.68-2.49.1-.17,9.87-16.86,30.05-12.75.99.2,1.63,1.17,1.43,2.16-.2.99-1.17,1.63-2.16,1.43-17.54-3.57-25.79,10.38-26.14,10.98-.34.59-.96.92-1.59.92Z" fill="#1e224f"></path><path d="m1189.59,187.18c-.65,0-1.27-.34-1.61-.95-6.7-12.18-17.45-10.61-17.91-10.54-1,.17-1.94-.52-2.1-1.51-.16-.99.5-1.93,1.5-2.1.13-.02,13.74-2.14,21.73,12.38.49.89.16,2-.72,2.49-.28.15-.58.23-.88.23Z" fill="#1e224f"></path><path d="m1125.53,317.29c-.09,0-.19,0-.28-.02-19.43-3.02-23.06-21.83-23.09-22.02-.18-1,.48-1.95,1.47-2.13,1-.18,1.95.48,2.13,1.47.13.69,3.25,16.45,20.05,19.05,1,.16,1.68,1.09,1.53,2.09-.14.9-.92,1.55-1.81,1.55Z" fill="#1e224f"></path><path d="m862.71,374.09c-24.47,29.85-56.62,56.06-69.04,93.87-13.06,39.79-1.78,88.59,33.82,112.8,10.11,6.87,21.29,12.07,32.19,17.55,14.26,7.17,28.52,14.34,42.78,21.51,2.1,1.06,3.96-2.1,1.85-3.16-21.56-10.84-43.64-21.03-64.72-32.8-18.03-10.07-31.65-23.51-39.62-42.8-8.73-21.12-10.33-45.02-4.29-67.08,5.09-18.59,15.58-34.95,27.69-49.73,13.4-16.36,28.52-31.21,41.92-47.57,1.48-1.81-1.09-4.41-2.59-2.59h0Z" fill="#1e224f"></path><path d="m1113.82,80.17c20.28,8.66,39.44,20.51,55.79,35.33,16.95,15.36,31.86,34.85,33.73,58.38.19,2.33,3.85,2.35,3.66,0-1.85-23.25-15.51-42.7-32-58.36-17.15-16.28-37.63-29.24-59.35-38.51-2.14-.92-4.01,2.24-1.85,3.16h0Z" fill="#1e224f"></path><path d="m1016.86,464.31c3.17,21.48,18.51,36.88,32.87,51.89,16.34,17.08,28.9,37.38,36.69,59.72,14.3,41.03,12.49,86.95-2.88,127.42-8.58,22.58-21.88,43.95-41.29,58.74-1.85,1.41-.03,4.59,1.85,3.16,32.94-25.1,49.34-67.17,54.3-107.2,5.65-45.62-5.43-93.06-33.5-129.81-15.94-20.87-40.41-37.15-44.5-64.89-.34-2.32-3.87-1.34-3.53.97h0Z" fill="#1e224f"></path><polygon points="1001.1 272.48 974.82 307.14 1021.14 305.89 1001.1 272.48" fill="#fff"></polygon><path d="m755.36,1156.46s11.9-149.68,74.77-126.44l24.14,33.8s33.46-68.6-39.32-93.29c-72.78-24.7-142.41,82.81-84.72,155.43l25.13,30.51Z" fill="#fff"></path><path d="m932.09,1208.95l-30.9,106.07-109.14-122.51s-87.46-64.7-54.31-124.4h.01s.01-.01.01-.02c.09-.17.18-.34.27-.5l.02-.02c1.01-1.79,2.14-3.58,3.38-5.36,36.74-52.67,79.53-40.04,90.81-35.46,1.79.73,3.26,2.08,4.17,3.78l10.6,19.76h.01s85.06,158.67,85.06,158.67Z" fill="#ffad94"></path><path d="m890.86,1342.67c-.32,0-.64-.05-.96-.16-1.6-.53-2.46-2.26-1.93-3.86l52.34-157.12c.53-1.6,2.26-2.46,3.86-1.93,1.6.53,2.46,2.26,1.93,3.86l-52.34,157.12c-.43,1.28-1.62,2.09-2.9,2.09Z" fill="#1e224f"></path><path d="m919.29,724.43c-.42,0-.85-.15-1.19-.44-19.4-16.68-41.08-48.51-42.83-78.94-1.08-18.72,4.58-38.36,10.05-57.35,2.47-8.56,4.8-16.65,6.52-24.59,3.49-16.04,6.77-31.98,9.76-47.38.19-.99,1.15-1.64,2.15-1.45.99.19,1.64,1.15,1.45,2.15-3,15.42-6.29,31.39-9.78,47.45-1.75,8.07-4.1,16.21-6.58,24.83-5.39,18.69-10.96,38.02-9.91,56.12,1.7,29.37,22.74,60.18,41.57,76.38.77.66.85,1.82.19,2.58-.36.42-.87.64-1.39.64Z" fill="#fff"></path><path d="m1010.92,254.38h-.02c-1.01-.01-1.82-.84-1.81-1.85.21-18.75-15.18-26.53-15.83-26.85-.91-.45-1.28-1.54-.84-2.45.44-.91,1.54-1.29,2.44-.84.74.36,18.12,9.06,17.89,30.18-.01,1-.83,1.81-1.83,1.81Z" fill="#f59881"></path><path d="m934.88,1542.87c-.28,0-.57-.06-.83-.2-.9-.46-1.26-1.56-.8-2.46l18.89-36.94-33.4,18.56c-.79.44-1.78.24-2.33-.47-.55-.71-.51-1.72.1-2.38l124.9-133.82c.69-.74,1.85-.78,2.59-.09.74.69.78,1.85.09,2.59l-116.97,125.33,28.51-15.84c.7-.39,1.58-.28,2.16.28.58.56.72,1.43.36,2.15l-21.63,42.29c-.32.63-.97,1-1.63,1Z" fill="#1e224f"></path><path d="m1235.07,1523.58c-.64,0-1.27-.34-1.6-.95-.49-.89-.17-2,.72-2.49l40.31-22.21-64.72-14.77c-.68-.16-1.21-.68-1.37-1.35-.16-.67.07-1.38.59-1.83l48.17-40.83c.77-.65,1.93-.56,2.58.21.65.77.56,1.93-.21,2.58l-45.38,38.46,65.83,15.02c.74.17,1.3.78,1.41,1.53s-.26,1.49-.93,1.86l-44.52,24.53c-.28.15-.58.23-.88.23Z" fill="#1e224f"></path><path d="m845.74,1524.24l-34.25-190.95s-80.24,77.97,34.25,190.95Z" fill="#1e224f"></path><path d="m866.69,1643.86l-57.77-307.76c1.47-1.72,3.25-3.57,5.18-5.48l58.59,312.12c.31,1.66-.78,3.25-2.44,3.56h0c-1.66.31-3.25-.78-3.56-2.44Z" fill="#1e224f"></path><path d="m1386.72,780.24c-.32,0-.65-.09-.95-.26l-42.48-25.68c-1.53-.92-3.41-.98-4.91-.16-1.13.62-3.13,2.71-3.84,5.25-.49,1.77-.29,3.45.61,4.99.51.87.21,2-.66,2.5-.88.51-2,.21-2.5-.66-1.39-2.4-1.73-5.1-.98-7.82.95-3.42,3.54-6.35,5.61-7.48,2.65-1.45,5.93-1.36,8.57.24l42.48,25.68c.87.52,1.14,1.65.62,2.51-.34.57-.95.88-1.57.88Z" fill="#f59881"></path><path d="m1362.45,785.71c-.32,0-.63-.08-.93-.25l-34.24-20.09c-.87-.51-1.16-1.63-.65-2.51.51-.87,1.64-1.16,2.51-.65l34.24,20.09c.87.51,1.16,1.63.65,2.51-.34.58-.95.9-1.58.9Z" fill="#f59881"></path><path d="m1363.2,841.26l-21.86-4.81c-.99-.22-1.61-1.19-1.39-2.18.22-.99,1.19-1.62,2.18-1.39l19.48,4.29c.8-1.39,2-4.08,1.13-6.56-.87-2.49-3.68-4.37-8.34-5.58l-.73-.19-4.66-7.77c-.52-.87-.24-1.99.63-2.51.86-.52,1.99-.24,2.51.63l3.9,6.5c5.51,1.56,8.92,4.17,10.16,7.74,1.86,5.39-2.12,10.69-2.29,10.91l-.71.93Z" fill="#f59881"></path><path d="m1109.08,521.78c-.33,0-.6-.03-.8-.09-.97-.29-1.52-1.31-1.23-2.28.28-.94,1.25-1.49,2.2-1.25,2.41.19,19.56-5.14,34.74-10.47.96-.33,2,.17,2.33,1.12.33.95-.17,2-1.12,2.33-11.63,4.08-31.08,10.63-36.12,10.63Zm.2-3.61s.03,0,.04.01c-.01,0-.03,0-.04-.01Z" fill="#e1e2f2"></path><path d="m859.1,1023.89c-.99,0-1.8-.79-1.83-1.78l-3.26-123.83.02-.15,11.73-82.26c.14-1,1.08-1.69,2.07-1.55,1,.14,1.7,1.07,1.55,2.07l-11.71,82.1,3.26,123.52c.03,1.01-.77,1.85-1.78,1.88-.02,0-.03,0-.05,0Z" fill="#fff"></path><path d="m1281.46,684.97c-.86,0-1.62-.61-1.8-1.48-8.45-43.28-56.76-132.86-57.25-133.76-.48-.89-.15-2,.74-2.48.89-.48,2-.15,2.48.74.49.9,49.06,90.98,57.62,134.8.19.99-.45,1.95-1.45,2.15-.12.02-.24.03-.35.03Z" fill="#fff"></path><path d="m1266.48,1212.13c-.43,0-.86-.15-1.21-.45-.76-.67-.84-1.82-.17-2.58,5.91-6.75,58.32-65.63,76.83-54.19.86.53,1.13,1.66.6,2.52-.53.86-1.66,1.13-2.52.6-6.39-3.95-21.2,4.08-41.71,22.61-16.14,14.59-30.3,30.72-30.45,30.88-.36.41-.87.62-1.38.62Z" fill="#fff"></path><path d="m861.71,848.6c-.78,0-1.5-.5-1.75-1.29l-18.53-59.35c-.3-.97.24-1.99,1.2-2.29.97-.31,1.99.24,2.29,1.2l18.53,59.35c.3.97-.24,1.99-1.2,2.29-.18.06-.37.08-.55.08Z" fill="#fff"></path><path d="m860.69,1070.55c-.22,0-.45-.03-.68-.1-1.29-.37-2.04-1.73-1.67-3.02.1-.35,9.88-35.57-15.13-55.66-35.28-28.34-78.14,7.74-78.57,8.11-1.02.88-2.57.76-3.44-.26-.88-1.02-.76-2.56.26-3.44.46-.39,46.4-39.06,84.8-8.21,27.58,22.15,16.87,60.44,16.76,60.83-.31,1.07-1.28,1.76-2.34,1.76Z" fill="#e1e2f2"></path><path d="m847.02,1050.28c-37.5-30.27-107.59,16.69-109.26,17.8,0,.01-.01.01-.01.01l.28-.51.02-.02c1.01-1.79,2.14-3.58,3.38-5.36,36.74-52.67,79.53-40.04,90.81-35.46,1.79.73,3.26,2.08,4.17,3.78l10.6,19.76Z" fill="#f59881"></path><path d="m1096.38,1130.03c-.8,0-1.54-.53-1.77-1.35-.27-.98.31-1.98,1.28-2.25,22.01-6.02,61.37-20.05,77.67-46.29.53-.86,1.66-1.12,2.52-.59.86.53,1.12,1.66.59,2.52-16.96,27.3-57.29,41.72-79.82,47.89-.16.04-.33.06-.49.06Z" fill="#1e224f"></path><path d="m1098.56,194.57c3.66.54,6.51,3.63,6.63,7.45l.62,20.56c.13,4.29-3.24,7.87-7.53,8-4.29.13-7.87-3.24-8-7.53l-.62-20.56c-.13-4.29,3.24-7.87,7.53-8,.47-.01.93.01,1.37.08Z" fill="#1e224f"></path><path d="m1169.91,193.77c3.66.54,6.51,3.63,6.63,7.45l.62,20.56c.13,4.29-3.24,7.87-7.53,8-4.29.13-7.87-3.24-8-7.53l-.62-20.56c-.13-4.29,3.24-7.87,7.53-8,.47-.01.93.01,1.37.08Z" fill="#1e224f"></path><path d="m1168.23,216.57c-4.96-.73-6.09,6.96-1.13,7.69s6.09-6.96,1.13-7.69h0Z" fill="#fff"></path><path d="m1096.82,218.7c-4.96-.73-6.09,6.96-1.13,7.69s6.09-6.96,1.13-7.69h0Z" fill="#fff"></path></svg>