<svg xmlns="http://www.w3.org/2000/svg" id="Distance_communication" width="1798.43" height="1391.07" viewBox="0 0 1798.43 1391.07"><g><circle cx="973.52" cy="693.4" r="647.17" transform="translate(-205.17 891.48) rotate(-45)" fill="#f8f8fc"></circle><path d="m1200.04,12.13h0c-38.04,26.34-81.36,57.52-95,104.25-10.63,36.39,1.44,73.16,27.08,100.08,27.22,28.59,65.37,45.91,103.63,53.63,43.74,8.83,118.25,13.11,121.61,72.04,3.14,55.14-50.16,96.02-83.25,132.73-28.42,31.52-49.48,66.86-51.08,110.24-3.11,83.94,58.38,165.11,136.97,191.12,100,33.09,208.74-8.69,285.3-74.53" fill="none" stroke="#fff" stroke-miterlimit="10" stroke-width="23.71"></path><path d="m797.73,68.22c33.27,33.27,33.27,87.39,0,120.66-33.27,33.27-87.39,33.27-120.66,0-33.27-33.27-33.27-87.39,0-120.66,33.27-33.27,87.39-33.27,120.66,0Z" fill="none" stroke="#fff" stroke-miterlimit="10" stroke-width="23.71"></path></g><g id="Plant"><path d="m1105.65,780.68c4.75,17.04,69.23,116.64,106.75,119.42-1.06,1.05-8.36,1.74-8.36,1.74,1.71,7.37,28.81,34.41,60.43,35.18-15.94,1.1-28.53,6.94-53.49-3.24,66.78,41.59,100.2,144.03,131.02,134.91,15.9-10.51,29.43-35.74,30.87-65.83-1.93,4.35-8.41,15.29-18.94,21.62,5.75-6.6,22.39-28.84,22.28-38.86-.21-19.61-16.51-55.91-29.11-72.57-.89-1.18-14.12,24.69-35.86,40.42,10.81-12.41,26.01-48.61,23.51-56.56-5.03-16.03-13.54-24.5-25.73-37.24-3.11,22.85-15.21,41.28-40.54,65.72,17.8-29.49,30.54-71.25,25.84-75.26-21.94-18.76-52.39-15.39-71.56-38.52,0,0-7.06,38.46-12.89,52.04,5.79-22.56,5.53-55.3,3.87-55.98-53.92-22.16-88.47-9.89-108.11-26.99Z" fill="#1e224f"></path><path d="m1216.53,852.04s4.22,4.17,11.61,11.46c1.8,1.87,3.79,3.95,5.96,6.2,1.08,1.13,2.21,2.3,3.38,3.52,1.17,1.22,2.32,2.54,3.54,3.87,2.42,2.69,5.04,5.51,7.71,8.56,2.64,3.09,5.41,6.33,8.3,9.72,2.79,3.47,5.7,7.09,8.71,10.83,2.9,3.82,5.9,7.78,8.94,11.88,5.92,8.32,12.07,17.17,17.82,26.71,2.98,4.71,5.73,9.66,8.58,14.65,1.43,2.48,2.71,5.07,4.09,7.63,1.36,2.56,2.73,5.13,3.98,7.78,1.28,2.63,2.56,5.28,3.85,7.93,1.2,2.69,2.41,5.39,3.62,8.09,1.25,2.69,2.31,5.46,3.46,8.2,1.13,2.75,2.28,5.49,3.28,8.3,4.3,11.1,7.89,22.46,11.01,33.76,1.61,5.64,2.91,11.3,4.26,16.89,1.19,5.62,2.42,11.16,3.37,16.66,2.01,10.98,3.54,21.67,4.6,31.85.61,5.08.96,10.05,1.4,14.84.16,2.4.32,4.76.48,7.08.17,2.32.31,4.59.4,6.82.11,2.23.21,4.41.32,6.55.07,2.13.14,4.22.21,6.25.15,4.07.2,7.92.25,11.55.07,3.63.06,7.02.06,10.16.01,3.14-.01,6.02-.06,8.62-.05,5.2-.16,9.29-.23,12.08-.07,2.79-.11,4.27-.11,4.27-.03,1.14-.98,2.05-2.12,2.02-1.14-.03-2.05-.98-2.02-2.12,0,0,0,0,0-.01v-.03s.05-1.48.15-4.25c.1-2.77.25-6.84.36-12.02.07-2.59.13-5.46.15-8.58.03-3.12.09-6.5.05-10.1,0-3.61-.02-7.44-.12-11.49-.04-2.02-.09-4.1-.14-6.22-.08-2.12-.16-4.29-.24-6.51-.07-2.22-.18-4.48-.32-6.78-.13-2.3-.26-4.65-.4-7.04-.39-4.77-.68-9.7-1.23-14.76-.94-10.12-2.35-20.75-4.22-31.68-.88-5.47-2.04-10.99-3.16-16.59-1.28-5.56-2.51-11.2-4.05-16.82-2.97-11.25-6.42-22.59-10.58-33.67-.97-2.8-2.08-5.54-3.17-8.29-1.11-2.74-2.13-5.51-3.35-8.2-1.17-2.7-2.35-5.4-3.52-8.09-1.25-2.65-2.5-5.3-3.75-7.93-1.21-2.65-2.55-5.23-3.88-7.79-1.34-2.56-2.59-5.15-3.99-7.64-2.78-4.99-5.47-9.96-8.39-14.68-5.63-9.58-11.67-18.47-17.48-26.83-2.99-4.12-5.94-8.11-8.79-11.96-2.96-3.77-5.83-7.41-8.58-10.9-2.85-3.41-5.58-6.69-8.18-9.8-2.64-3.08-5.23-5.92-7.61-8.64-1.21-1.34-2.34-2.68-3.5-3.91-1.16-1.23-2.27-2.42-3.34-3.56-2.14-2.28-4.11-4.37-5.89-6.27-7.31-7.38-11.49-11.59-11.49-11.59Z" fill="#1e224f"></path><path d="m1357.12,875.69c-6.53-9.74-14.01-25.17-20.78-48.44-14.24-6.48-13.57-29.43-34.74-55.58-27.66-34.16-58.08-54.45-76.21-93.39,9.08,17.33,49.45,11.78,70.23,14.45-40.25-5.84-79.07-49.51-77.33-57.17.77-3.4,6.99-3.86,11.88-2.41-45.01-14.27-73.53-84.59-90.86-120.76-19.02-21.85-26.93-41.74-33.66-63.4,12.87,13.91,41.83,21.01,88.14,36.22.88.29,4.12,38.26,13.95,67.78-4.21-14.48,2.37-55.77,9.72-59.95,11.75-6.69,19.95,6.91,33.44,12.21-10.77,23.39-16.59,75.79-16.59,75.79,0,0,28.51-62.67,36.99-65.13,29.11,20.33,82.36,23.92,90.74,66.99,3.87,19.91-23.08,34.9-55.47,93.84,23.06-40.51,78.18-52.63,81.88-84.71,11.58,24.34,11.62,68.49,20.35,105.59,1.5,6.35-33.51,37.87-68.73,52.23,45.84-5.9,87.31-43.72,87.99-41.54,9.64,30.66,17.21,44.19,18.2,63.23.45,8.65-24.69,43.88-41.28,59.09,23.19-11.94,34.13-27.93,39.96-37.07,1.33,23.33-5.46,51.01-14.28,69.19-11.72,24.18-58.55,35.27-73.52,12.95Z" fill="#71efa3"></path><path d="m1404.3,1198.51s-.1,0-.14,0c-1.14-.08-2-1.07-1.92-2.21,28.1-409.59-147.77-582.22-242.25-674.96-31.31-30.73-53.93-52.94-56.38-72.09-.15-1.13.66-2.17,1.79-2.32,1.13-.15,2.17.66,2.32,1.79,2.27,17.73,24.46,39.51,55.18,69.66,45.81,44.97,115.05,112.93,167.68,219.53,28.84,58.42,50.02,123.09,62.93,192.22,15.12,80.91,19.44,170.55,12.87,266.45-.08,1.09-.99,1.93-2.06,1.93Z" fill="#1e224f"></path><path d="m1382.08,886.91c-66.4-272.13-242.99-367.76-272.44-425.87,6.11,17.15,14.23,33.6,29.67,51.34,17.33,36.17,45.84,106.49,90.86,120.76-4.89-1.45-11.11-.99-11.88,2.41-1.74,7.65,37.08,51.32,77.33,57.17-20.78-2.67-61.15,2.88-70.23-14.45,18.13,38.94,48.55,59.23,76.21,93.39,21.18,26.15,20.51,49.1,34.74,55.58,6.77,23.28,14.24,38.7,20.78,48.44,6.31,9.41,15.53,12.53,24.96,11.21Z" fill="#1e224f"></path><path d="m1253.35,621.7c-.24,0-.48-.04-.71-.13-1.07-.4-1.62-1.59-1.23-2.66,6.64-18.05,43.06-87.51,44.61-90.46.53-1.01,1.78-1.4,2.8-.87,1.01.53,1.4,1.78.87,2.8-.38.72-37.84,72.17-44.39,89.96-.31.84-1.1,1.36-1.94,1.36Z" fill="#1e224f"></path><path d="m1282.17,661.07c-.24,0-.49-.04-.73-.13-1.07-.4-1.61-1.6-1.21-2.67,12.24-32.39,54.21-110.73,54.64-111.51.54-1.01,1.8-1.39,2.8-.85,1.01.54,1.39,1.8.85,2.8-.42.79-42.26,78.88-54.41,111.02-.31.83-1.1,1.34-1.94,1.34Z" fill="#1e224f"></path><path d="m1742.18,566.59c-39.38,17.64-97.19,157.54-132.28,208.52-72.02,104.61-106.57,162.46-140.07,260.81-65.07-62.7-77.35-129.43-29.42-214.41-1.54,44.3,38.28,45.32,71.42,112.07-25.39-46.41-59.11-103.46-55.06-120.98,11.18-48.28,53.07-89.22,86.19-125.25,1.79-1.94,36.2,59,54.88,87.42-15.96-39.57-42.99-84.64-41.79-85.91,7.99-8.5,18.15-19.86,28.74-23.74,4.32-1.58,28.39,44.85,39.89,67.34-24.74-53.7-31.1-100.41-26.88-104.52,71.9-28.01,122.23-65.04,144.38-61.35Z" fill="#71efa3"></path><path d="m1608.45,777.21c25.04-52.31,18.75-111.8,29.21-115.65,91.39-33.63,138.86-88.1,141.43-104,0,43.63-143.04,195.34-170.64,219.64Z" fill="#1e224f"></path><path d="m1611.99,771.79s79.59-23.6,102.19-68.42l-13.29,57.11-42.37,31.62s-73.49,40.83-91.95,44.37l45.43-64.69Z" fill="#71efa3"></path><path d="m1571.28,831.5s50.72-10.91,62.16-14.62l-12.14,23.21s-71.17,42.61-85.71,45.4l35.68-53.98Z" fill="#71efa3"></path><path d="m1576.62,865.8c23.06-16.84,31.79-59.75,34.31-60.5,2.52-.74,49.42,1.13,71.88-16.41-19.07,29.22-80.21,62.99-106.19,76.9Z" fill="#1e224f"></path><path d="m1658.13,792.05c33.31-17.12,48.21-95.85,70.51-116.77,16.3,52.91-41.85,105.71-70.51,116.77Z" fill="#1e224f"></path><path d="m1535.6,885.49s57.58,24.35,97.85-22.37c9.47,31.64-122.72,185.7-163.63,172.8,0-59.07,65.78-150.43,65.78-150.43Z" fill="#71efa3"></path><path d="m1469.82,1035.92c53.68,13.55,214.71-109.99,172.28-188.78-57.58,33.45-92.99,186.05-172.28,188.78Z" fill="#1e224f"></path><path d="m1442.36,1198.16s-.06,0-.09,0c-1.14-.05-2.03-1.01-1.98-2.16,2.25-53.27,11.81-107.89,28.41-162.34,13.6-44.6,31.91-89.17,54.43-132.46,41.52-79.83,82.74-127.88,90.71-135.49.83-.79,2.14-.76,2.93.07.79.83.76,2.14-.07,2.93-7.88,7.52-48.64,55.08-89.9,134.41-34.75,66.81-77.25,171.88-82.38,293.07-.05,1.11-.96,1.98-2.07,1.98Z" fill="#1e224f"></path><path d="m1576.74,818.17c-.47,0-.93-.16-1.32-.48-13.68-11.35-60.86-94.77-62.86-98.32-.56-1-.21-2.26.79-2.82,1-.56,2.26-.21,2.82.79.49.86,48.8,86.3,61.9,97.17.88.73,1,2.04.27,2.92-.41.49-1,.75-1.59.75Z" fill="#1e224f"></path><path d="m1556.21,849.21c-.49,0-.99-.18-1.38-.53-8.48-7.63-63.47-97.3-65.8-101.11-.6-.98-.29-2.25.68-2.85.98-.6,2.25-.29,2.85.68,19.69,32.13,58.61,94.41,65.04,100.2.85.76.92,2.07.16,2.92-.41.46-.97.69-1.54.69Z" fill="#1e224f"></path></g><g id="Boy"><path d="m886.81,1204.43h-502.31l-72.73-521.73h477.69c14.11,0,26.07,10.4,28.02,24.38l69.33,497.35Z" fill="#fff"></path><path d="m401.13,1187.79l-72.73-488.46c0-9.19-7.45-16.64-16.64-16.64h-.34c-9.19,0-16.64,7.45-16.64,16.64l72.73,488.46c0,9.19,7.45,16.64,16.64,16.64h.34c9.19,0,16.64-7.45,16.64-16.64Z" fill="#e1e2f2"></path><path d="m807.56,710.41s28.87,13.22,47.11,70.45c8.99,28.22,47.98,246.02,47.98,246.02l-140.83,33.8,45.75-350.27Z" fill="#eeeff8"></path><polygon points="532.97 631.66 481.27 686.63 470.14 783.82 491.03 866.32 504.36 1191.03 714.36 1191.03 772.28 888.15 710.56 704.26 654.64 640.57 532.97 631.66" fill="#fff"></polygon><path d="m492.06,675.78c6.32,16.22,71.13,97.43,139.29,75.43,73.88-23.85-8.07-115.29-8.07-115.29h-104.47l-26.75,39.87Z" fill="#eeeff8"></path><path d="m440.8,698.56c-32.62,27.05-109.85,45.36-118.13,63.31-30.54,66.17,12.51,224.57,34.6,267.37,22.09,42.8,52.45,84.65,53.5,89.75,2.07,10.01-9.76,28.85-12.43,40.39-3.19,13.8,17.86,31.65,17.86,31.65h98.45c36.95-79.21-3.76-202.71-23.63-324.71l-32.96-80.77,18.47-34.17,2.59-59.54-38.31,6.73Z" fill="#eeeff8"></path><path d="m361.04,857.54l-25.41,112.31c7.46,25.91,15.39,47.28,21.64,59.39,22.09,42.8,52.45,84.65,53.5,89.75,2.07,10.01-9.76,28.85-12.43,40.39-1.45,6.27,2.11,13.37,6.42,19.26,6.87-3.97,12.54-14.71,16.09-35.13,19.05-109.77-46.47-266.27-59.81-285.96Z" fill="#e1e2f2"></path><path d="m323.1,759.66c-19.09-3.11-132.38,170.67-80.65,344.89,13.98,47.08,64.49,86.8,92.11,85.54,0,0,68.57-23.01,70.89-129.41,2.36-108.41-82.34-301.02-82.34-301.02Z" fill="#eeeff8"></path><path d="m489.56,862.72l-15.22-107.29c.75-3.82,1.59-7.74,2.52-11.73l2.26-51.87-38.31,6.73c-14.11,11.7-36.57,21.77-58.19,30.88l69.27-3.78,4.4,38.06-20.19,37.02,53.46,61.98Z" fill="#e1e2f2"></path><path d="m325.5,783.27c-.13,0-.27-.01-.4-.04-1.12-.22-1.85-1.31-1.63-2.43,4.14-21.04,39.32-32.21,76.56-44.04,32.54-10.34,66.18-21.03,76.37-38.21.58-.98,1.85-1.31,2.84-.73.98.58,1.31,1.85.73,2.84-10.99,18.55-45.4,29.48-78.68,40.05-34.45,10.95-70.08,22.26-73.75,40.9-.19.99-1.06,1.67-2.03,1.67Z" fill="#e1e2f2"></path><path d="m520.02,603.29l-135.48,111.07,80.86-4.41,4.4,38.06-20.19,37.02,41.42,81.29s-8.32-56.69-7.79-89.06c.43-26.75,13.84-102.52,46.63-129.1l-9.84-44.87Z" fill="#eeeff8"></path><path d="m617.21,487.15s18.53-39.65,47.12-33.63c54.29,11.44,17.51,94.26-28.97,94.01-21.74-.11-28.82-25.18-28.82-25.18l10.68-35.21Z" fill="#f59881"></path><path d="m683.8,534.42c-1.33,0-2.68-.4-3.86-1.22l-34.86-24.44c-3.04-2.13-3.78-6.33-1.65-9.38,2.13-3.04,6.33-3.78,9.38-1.65l34.86,24.44c3.04,2.13,3.78,6.33,1.65,9.38-1.31,1.87-3.4,2.87-5.52,2.87Z" fill="#fff"></path><path d="m529.86,648.17l-9.84-44.87-17.18,14.09,18.41,39.17.13.03c2.67-3.16,5.5-6,8.48-8.42Z" fill="#e1e2f2"></path><polyline points="740.82 723.87 706.25 700.63 688.3 664.74 703.31 635.91" fill="#e1e2f2"></polyline><path d="m500.31,566.79c4.21,5.75,22.54,57.14,31.15,102.57,0,0,26.01,47.51,76.42,44.91,21.11-1.09,23.47-21.22,23.47-21.22,0,0-2.38-75.25-2.92-85.6l-128.12-40.65Z" fill="#ffad94"></path><path d="m724.02,804.57c.86,46.22-46.77,231.23-35.73,386.46h68.86s6.04-6.45,5.35-14.74c-.69-8.28-13.12-39.35-11.74-42.11,1.38-2.76,22.09-12.43,24.16-17.6s12.08-144.98,28.65-180.18c16.57-35.21,39.75-178.33,20.02-210.15-21.21-34.21-96.31-38.19-138.76-81.53,0,0,38.32,113.64,39.18,159.86Z" fill="#eeeff8"></path><path d="m616.67,583.45l86.64,52.46-3.62,35.21,18.12,11.91,6.21,121.54s-13.98-140.7-96.6-164l-10.75-57.12Z" fill="#eeeff8"></path><path d="m648.94,476.98c-.57,0-1.15-.24-1.55-.7-.76-.86-.67-2.17.18-2.92l41.41-36.49c.86-.76,2.17-.67,2.92.18.76.86.67,2.17-.18,2.92l-41.41,36.49c-.39.35-.88.52-1.37.52Z" fill="#fff"></path><path d="m630.3,660.21s-1.6-47.78-1.86-52.78l-102.81-32.62-18.81.87c10.86,15.09,38.97,87.99,123.48,84.53Z" fill="#f59881"></path><path d="m427.86,393.6s-22.31-.56-21.23,15.89c2.61,39.58,51.09,83.87,51.09,83.87l-29.86-99.76Z" fill="#1e224f"></path><path d="m603.8,305.77s33.88-37.84,65.84-22.97c44.54,20.71,29.53,128.92-3.61,182.25l-62.23-159.28Z" fill="#1e224f"></path><path d="m638,622.67c44.68-21.66,39.7-102.56,36.59-139.84-3.11-37.28-21.37-139.97-62.41-170.31-64.72-47.87-140.26-27.13-176.16,34.31-35.9,61.44,32.93,177.69,66.39,222.83,32.62,43.99,90.09,75.06,135.58,53.01Z" fill="#ffad94"></path><path d="m603.8,347.17l-21.26-31.41-126.26,62.13,21.09,58.68c82.68,22.02,100.8-69.21,126.42-89.4Z" fill="#f59881"></path><path d="m652.57,379.33c-12.26-41.13-29.39-59.46-40.52-67.8-64.43-48.26-140.13-26.15-176.03,35.29-27.75,47.5,4.4,129.98,37.96,184.1l20.26-32.31s-27.58-96.56-16.87-124.17c9.01-23.22,78.68-49.46,127.55-47.33,0,0,23.82,10.05,47.64,52.22Z" fill="#1e224f"></path><path d="m604.93,327.11s8.29-84.18-60.2-80.04c-63,3.81-61.86,119.18-160.37,119.18,0,0,54.42,63.51,93.01,59.28,50.31-5.52,87.69-106.49,127.55-98.42Z" fill="#1e224f"></path><path d="m560.06,405.76c26.17-.06,66.75-20.13,72.25-56.8l-20.9-5.66s-16.24,56.43-51.35,62.45Z" fill="#f59881"></path><path d="m463.06,352.74s-.98.48-2.7,1.32c-.72.37-2.23,1.05-3.79,1.72-.78.32-1.65.73-2.48,1.01-.82.27-1.69.54-2.59.84-1.79.63-3.77,1.02-5.81,1.52-1.02.26-2.09.38-3.17.58-1.08.17-2.17.39-3.29.48-1.11.11-2.24.22-3.39.34-1.14.1-2.3.11-3.45.17-.58.02-1.16.04-1.74.07-.58,0-1.16-.01-1.74-.02-1.16-.02-2.32-.03-3.48-.08-2.32-.18-4.61-.28-6.85-.62-2.24-.24-4.41-.67-6.5-1.06-1.04-.18-2.06-.47-3.05-.7-.99-.25-1.96-.44-2.88-.74-1.86-.56-3.6-1.04-5.17-1.66-.78-.29-1.53-.56-2.25-.83-.71-.28-1.36-.59-1.98-.85-1.24-.55-2.31-.99-3.16-1.47-1.7-.89-2.67-1.4-2.67-1.4,0,0,1.07.2,2.94.55.92.2,2.07.32,3.38.47.65.07,1.34.17,2.07.23.73.04,1.5.08,2.3.13,1.59.13,3.33.07,5.15.07.9.02,1.84-.08,2.79-.13.95-.07,1.91-.09,2.9-.21,1.96-.23,3.97-.43,5.98-.83,2.02-.3,4.03-.82,6.03-1.27.99-.26,1.97-.56,2.95-.84.49-.14.97-.27,1.45-.43.47-.17.94-.33,1.41-.5.93-.34,1.87-.63,2.76-1,.88-.37,1.75-.74,2.61-1.11.86-.33,1.65-.79,2.44-1.17.78-.41,1.57-.74,2.27-1.18,1.4-.86,2.77-1.57,3.87-2.42.56-.4,1.1-.78,1.62-1.14.5-.36.81-.71,1.19-1.02.72-.64,1.24-1.04,2.04-1.81,1.39-1.31,2.19-2.05,2.19-2.05h.01c4.22-3.97,10.85-3.76,14.8.46,3.96,4.22,3.74,10.85-.47,14.8-.77.72-1.66,1.32-2.55,1.76Z" fill="#1e224f"></path><path d="m629.32,331.75s.74.8,2.04,2.2c.56.58,1.65,1.83,2.74,3.13.53.65,1.18,1.37,1.68,2.09.49.71,1.01,1.46,1.55,2.24,1.12,1.53,2.06,3.31,3.13,5.13.54.91.97,1.89,1.46,2.87.47.99,1,1.96,1.41,3.01.43,1.03.86,2.08,1.3,3.14.43,1.06.77,2.17,1.16,3.26.19.55.37,1.09.56,1.64.17.55.32,1.12.48,1.68.31,1.12.64,2.23.93,3.35.5,2.27,1.05,4.49,1.38,6.73.42,2.21.63,4.42.86,6.53.12,1.05.14,2.11.21,3.12.05,1.02.14,2,.12,2.98,0,1.94.04,3.75-.1,5.43-.05.83-.1,1.63-.14,2.39-.06.76-.17,1.47-.25,2.14-.17,1.34-.29,2.5-.5,3.45-.36,1.88-.57,2.96-.57,2.96,0,0-.12-1.08-.32-2.98-.07-.94-.29-2.08-.52-3.37-.12-.65-.22-1.33-.38-2.05-.17-.71-.35-1.46-.54-2.24-.33-1.56-.89-3.21-1.41-4.95-.24-.87-.61-1.74-.93-2.64-.34-.89-.63-1.81-1.04-2.71-.79-1.81-1.56-3.67-2.51-5.49-.87-1.85-1.95-3.62-2.95-5.41-.54-.87-1.11-1.73-1.65-2.58-.28-.42-.54-.85-.83-1.27l-.89-1.21c-.6-.8-1.14-1.61-1.75-2.35-.61-.74-1.22-1.47-1.81-2.18-.57-.73-1.23-1.35-1.82-2-.62-.63-1.16-1.29-1.78-1.83-1.23-1.09-2.3-2.2-3.44-3.01-.54-.43-1.06-.83-1.55-1.22-.49-.38-.91-.57-1.32-.84-.82-.51-1.35-.89-2.32-1.43-1.65-.96-2.6-1.51-2.6-1.51h-.02c-5-2.91-6.71-9.32-3.81-14.32,2.9-5,9.31-6.71,14.31-3.81.91.53,1.74,1.21,2.42,1.94Z" fill="#1e224f"></path><path d="m586.91,316.23s.44-1,1.21-2.75c.31-.75,1.03-2.23,1.8-3.75.39-.75.79-1.62,1.25-2.37.46-.73.94-1.5,1.45-2.31.96-1.63,2.23-3.2,3.47-4.9.62-.85,1.36-1.64,2.06-2.48.72-.82,1.41-1.7,2.21-2.48.78-.8,1.57-1.61,2.37-2.44.81-.81,1.69-1.56,2.53-2.35l1.29-1.17c.44-.38.9-.74,1.35-1.11.91-.73,1.8-1.47,2.71-2.18,1.89-1.36,3.71-2.74,5.64-3.93,1.87-1.26,3.81-2.32,5.66-3.37.92-.53,1.88-.96,2.78-1.43.92-.45,1.78-.92,2.69-1.28,1.78-.76,3.43-1.52,5.03-2.05.78-.28,1.54-.55,2.25-.81.72-.24,1.42-.43,2.07-.62,1.3-.38,2.41-.72,3.36-.9,1.87-.41,2.94-.64,2.94-.64,0,0-.95.53-2.61,1.47-.84.44-1.79,1.09-2.89,1.81-.54.37-1.13.73-1.73,1.16-.59.44-1.2.9-1.85,1.39-1.3.92-2.6,2.09-3.99,3.25-.7.57-1.36,1.25-2.06,1.89-.68.67-1.41,1.3-2.08,2.02-1.35,1.44-2.76,2.88-4.05,4.48-1.35,1.53-2.56,3.22-3.8,4.85-.59.84-1.15,1.7-1.72,2.54-.28.42-.57.83-.84,1.26l-.76,1.29c-.5.86-1.02,1.68-1.47,2.54-.44.85-.87,1.7-1.29,2.53-.45.81-.76,1.66-1.12,2.46-.33.81-.72,1.58-.98,2.36-.52,1.56-1.11,2.99-1.41,4.34-.18.67-.35,1.3-.51,1.91-.15.6-.17,1.06-.26,1.54-.14.95-.28,1.59-.4,2.7-.23,1.9-.36,2.98-.36,2.98v.02c-.69,5.74-5.9,9.84-11.64,9.16-5.74-.69-9.84-5.9-9.16-11.64.12-1.04.42-2.08.82-2.99Z" fill="#1e224f"></path><path d="m626.26,322.28s.09.43.25,1.22c.13.61.29,1.36.48,2.24.13.63.25,1.32.37,2.05.05.36.11.74.16,1.12.03.21.04.35.04.49,0,.15.01.29.02.44.14,2.43.09,5.19-.3,8.02-.1.7-.21,1.43-.31,2.17-.12.73-.29,1.44-.44,2.19-.29,1.51-.71,2.98-1.15,4.51-.43,1.54-.98,3.04-1.52,4.62-.61,1.52-1.18,3.13-1.91,4.67-1.34,3.16-3.02,6.28-4.8,9.44-1.86,3.11-3.83,6.25-6.08,9.25-1.07,1.53-2.3,2.98-3.45,4.46-1.25,1.43-2.42,2.89-3.73,4.25-2.52,2.79-5.32,5.35-8.09,7.77-2.88,2.33-5.74,4.55-8.77,6.35-1.45.96-3.02,1.74-4.48,2.55-1.5.75-3,1.44-4.46,2.06-2.97,1.17-5.82,2.1-8.52,2.63-1.35.28-2.62.55-3.86.65-1.24.13-2.38.3-3.49.29-1.1,0-2.11.07-3.05.03-.93-.07-1.79-.13-2.56-.19-.77-.03-1.45-.15-2.03-.26-.59-.1-1.08-.19-1.49-.26-.8-.14-1.23-.21-1.23-.21,0,0,.43-.05,1.24-.13.4-.04.9-.1,1.48-.16.58-.06,1.24-.13,1.97-.3.73-.15,1.53-.32,2.41-.5.87-.2,1.78-.53,2.76-.82.98-.26,1.98-.72,3.02-1.15,1.06-.39,2.11-.96,3.2-1.53,2.18-1.12,4.38-2.63,6.58-4.31,1.08-.88,2.16-1.81,3.22-2.79,1.03-1.04,2.11-2.02,3.09-3.18,2.05-2.18,3.88-4.72,5.67-7.27,1.7-2.66,3.36-5.35,4.74-8.22.74-1.39,1.34-2.88,2.01-4.29.58-1.47,1.22-2.88,1.71-4.36,1.1-2.88,1.91-5.81,2.64-8.59.64-2.81,1.22-5.51,1.5-8.03.2-1.26.24-2.47.36-3.63.03-1.14.12-2.25.08-3.26-.03-1.01-.03-1.98-.14-2.81-.05-.42-.06-.85-.12-1.23-.07-.37-.13-.72-.19-1.06-.08-.72-.31-1.2-.43-1.71-.05-.27-.15-.44-.24-.61-.08-.17-.15-.33-.22-.48l-.05-.11s-.03-.08-.04-.04c-.03.04-.05.08-.06.11-.03.08-.05.15-.05.21,0,.03,0,.06,0,.09v.04s-.04-.09-.06-.13c-.12-.22-.22-.42-.32-.6-.38-.72-.58-1.1-.58-1.1l-.04-.08c-4.04-7.67-1.09-17.16,6.58-21.2,7.67-4.04,17.16-1.09,21.2,6.58.69,1.31,1.19,2.75,1.48,4.13Z" fill="#1e224f"></path><path d="m509.35,504.09c-16.75-25.64-9.55-60,16.09-76.75,18.45-12.06,41.42-11.7,59.09-1-18.12-18.71-47.51-22.59-70.13-7.81-25.64,16.75-32.84,51.11-16.09,76.75,4.7,7.19,10.78,12.92,17.66,17.09-2.42-2.5-4.65-5.26-6.62-8.28Z" fill="#f59881"></path><path d="m626.54,414.07s0,0,0,0l-7.03,27.09c.34,7.92,2.31,16.36,6.06,24.62.16.35.33.68.49,1.02l11.94,4.26-11.46-56.99Z" fill="#f59881"></path><path d="m634.07,470.54c-11.49-25.29-6.34-52.36,11.5-60.46,7.38-3.36,15.79-2.93,23.91.51-10.53-7.44-22.4-9.83-32.41-5.28-17.84,8.11-22.99,35.18-11.5,60.46,6.73,14.82,17.69,25.73,29.19,30.6-8.24-5.82-15.65-14.73-20.69-25.83Z" fill="#f59881"></path><path d="m544.79,522.47c-19.52,0-37.54-9.74-48.21-26.07-8.4-12.86-11.3-28.23-8.14-43.27s11.97-27.95,24.84-36.35c9.39-6.13,20.25-9.37,31.41-9.37,19.52,0,37.54,9.74,48.21,26.07,17.35,26.55,9.86,62.27-16.69,79.62-9.39,6.13-20.25,9.37-31.41,9.37Z" fill="none" stroke="#fff" stroke-miterlimit="10" stroke-width="5"></path><path d="m667.81,501.26c-16.98,0-34.72-13.92-44.13-34.63-11.94-26.29-6.32-54.64,12.53-63.21,3.64-1.65,7.58-2.49,11.72-2.49,16.99,0,34.72,13.92,44.13,34.63,5.73,12.62,7.65,26.08,5.4,37.92-2.3,12.1-8.67,21.08-17.93,25.29-3.64,1.65-7.58,2.49-11.72,2.49Z" fill="none" stroke="#fff" stroke-miterlimit="10" stroke-width="5"></path><path d="m447.49,493.13l39.7-35.63" fill="none" stroke="#fff" stroke-linecap="round" stroke-miterlimit="10" stroke-width="5"></path><path d="m614.13,335.82s-.6.46-1.72,1.31c-.14.11-.29.22-.44.34-.08.06-.16.12-.24.18l-.13.11c-.15.14-.32.28-.51.43-.19.15-.4.31-.64.48-.3.27-.69.67-1.06,1.03-.39.37-.79.77-1.22,1.18-.44.47-.9.96-1.37,1.48-.96.99-2.01,2.2-3.13,3.49-2.25,2.58-4.81,5.7-7.63,9.17-2.86,3.52-5.97,7.34-9.25,11.37-3.35,4.06-6.93,8.35-10.81,12.7-3.83,4.37-8.01,8.78-12.38,13.13-4.4,4.34-9.09,8.56-14,12.55-1.23,1-2.52,1.94-3.77,2.9l-1.89,1.43c-.63.47-1.3.91-1.95,1.36-1.3.89-2.6,1.78-3.9,2.67-1.35.82-2.69,1.64-4.03,2.45-.67.4-1.33.82-2,1.2l-2.07,1.09c-1.38.72-2.73,1.46-4.1,2.13-1.4.62-2.8,1.24-4.19,1.86-.7.3-1.37.63-2.07.89-.71.26-1.41.51-2.12.76-1.41.5-2.78,1.01-4.17,1.47-1.41.39-2.81.77-4.19,1.14-.69.19-1.37.37-2.05.56-.69.16-1.38.27-2.07.4-1.37.25-2.72.5-4.05.75-.66.14-1.33.21-1.99.27-.66.06-1.32.13-1.97.19-1.3.12-2.58.24-3.84.36-2.53.01-4.96.05-7.28.02-2.31-.2-4.52-.38-6.63-.56-2.08-.29-4.04-.69-5.87-1-1.84-.26-3.51-.78-5.06-1.18-1.54-.41-2.96-.79-4.24-1.14-4.97-1.78-7.81-2.8-7.81-2.8,0,0,2.95.54,8.1,1.5,1.3.13,2.74.28,4.3.43,1.56.15,3.23.38,5.04.34,1.8,0,3.71.08,5.71.04,1.99-.15,4.09-.32,6.27-.48,2.16-.33,4.4-.74,6.69-1.11,1.13-.3,2.28-.6,3.44-.9.58-.15,1.16-.31,1.75-.46.59-.15,1.18-.3,1.75-.53,1.16-.42,2.33-.84,3.52-1.26.59-.22,1.19-.41,1.78-.65.58-.27,1.16-.53,1.75-.8,1.17-.53,2.34-1.07,3.53-1.61,1.16-.61,2.31-1.27,3.47-1.91.58-.32,1.16-.64,1.75-.97.58-.32,1.13-.73,1.7-1.09,1.13-.74,2.26-1.48,3.4-2.23,1.11-.79,2.2-1.65,3.3-2.47l1.65-1.25c.54-.44,1.06-.9,1.6-1.35,1.06-.91,2.12-1.81,3.19-2.73,1.02-.97,2.04-1.95,3.06-2.93.51-.49,1.03-.96,1.52-1.47l1.47-1.55c.97-1.04,1.97-2.04,2.92-3.11,3.79-4.27,7.37-8.73,10.71-13.3,3.32-4.6,6.46-9.21,9.35-13.85,2.92-4.6,5.62-9.17,8.18-13.55,2.55-4.45,4.97-8.66,7.2-12.55,2.27-3.95,4.39-7.61,6.44-10.93,1.03-1.66,1.99-3.21,3-4.7.49-.74.96-1.44,1.41-2.12.51-.69.99-1.36,1.45-1.99.47-.64.87-1.2,1.34-1.81.57-.68,1.11-1.31,1.61-1.9.51-.58.99-1.12,1.42-1.62.11-.12.21-.23.31-.34.07-.07.14-.15.21-.22.14-.14.26-.28.38-.41.97-1.02,1.49-1.57,1.49-1.57,5.92-6.25,15.79-6.51,22.04-.59,6.25,5.92,6.51,15.79.59,22.04-.57.6-1.17,1.14-1.8,1.63l-.17.13Z" fill="#1e224f"></path><path d="m650.43,485.92c-3.86-1.71-39.46-50.04-42.22-66.26v75.68l42.22-9.42Z" fill="#ffad94"></path><path d="m586.64,522.69l54.88-14.5s21.92-20.54,5.05-23.99c-24.53-5.02-59.94,38.49-59.94,38.49Z" fill="#f59881"></path><path d="m600.98,452.9c1.57-.79,13.06-6.57,20.25-5.07" fill="none" stroke="#fff" stroke-linecap="round" stroke-miterlimit="10" stroke-width="5"></path><path d="m512.49,537.02l-24.31,7.03s-.06,2.04-.03,5.08c5.03,7.66,9.78,14.45,13.98,20.14,9.31-13.03,10.36-32.25,10.36-32.25Z" fill="#f59881"></path><path d="m494.24,498.61s-27.9-33.72-54.05-20.72c-49.68,24.71,6.73,95.63,51.66,83.72,21.01-5.57,21.58-31.61,21.58-31.61l-19.18-31.4Z" fill="#ffad94"></path><path d="m487.3,509.63s-2.23-2.69-5.76-5.59c-.22-.36-.47-.7-.79-1,0,0-.8-.74-2.21-2.04-.7-.65-1.63-1.37-2.66-2.23-.51-.43-1.12-.84-1.72-1.29-.61-.45-1.24-.92-1.96-1.36-1.39-.92-2.97-1.84-4.71-2.7-1.76-.83-3.66-1.64-5.76-2.19-2.07-.61-4.32-.95-6.63-1.01-2.3-.08-4.69.24-6.94.94-2.26.69-4.39,1.77-6.23,3.15-1.85,1.37-3.38,3.04-4.57,4.82-1.19,1.77-2.08,3.64-2.67,5.46-.55,1.84-.92,3.61-1,5.26-.1.82-.04,1.61-.06,2.35.02.74.1,1.45.15,2.1.18,1.3.38,2.43.65,3.37.22.96.48,1.57.62,2.03.15.45.24.69.24.69.19.55.77.88,1.35.75.62-.14,1.01-.76.87-1.38,0,0-.06-.25-.16-.71-.09-.46-.3-1.18-.38-1.97-.14-.8-.21-1.82-.25-2.98.02-.58.02-1.2.07-1.84.09-.64.1-1.32.27-2.01.22-1.39.7-2.84,1.3-4.3.64-1.45,1.52-2.86,2.6-4.14,1.08-1.28,2.38-2.43,3.87-3.29,1.47-.87,3.1-1.48,4.78-1.8,1.68-.33,3.4-.37,5.09-.13,1.68.23,3.33.65,4.86,1.29.05.02.09.04.14.06-.44.17-.87.36-1.31.58-26.58,13.22,3.6,51.17,27.64,44.79,11.24-2.98,11.54-16.91,11.54-16.91l-10.26-16.8Z" fill="#f59881"></path><path d="m627.8,596.66c-11.01,0-21.25-4.13-21.84-4.38-1.06-.43-1.56-1.64-1.13-2.7.43-1.06,1.64-1.56,2.7-1.13.19.08,18.72,7.55,31.39,2.02,4.66-2.03,7.99-5.65,9.9-10.74.4-1.07,1.6-1.61,2.67-1.21,1.07.4,1.61,1.6,1.21,2.67-2.32,6.19-6.4,10.59-12.13,13.09-4.02,1.75-8.45,2.39-12.77,2.39Z" fill="#f59881"></path><path d="m520,546.52l-22.73-15.93c.18-.97.29-1.97.29-3,0-9-7.29-16.29-16.29-16.29s-16.29,7.29-16.29,16.29,7.29,16.29,16.29,16.29c3.02,0,5.84-.84,8.27-2.27l22.73,15.94c1.18.82,2.52,1.22,3.86,1.22,2.12,0,4.21-1,5.52-2.87,2.13-3.04,1.4-7.24-1.65-9.38Z" fill="#fff"></path><path d="m902.63,1125.83c-6.12,0-12.34-1.21-18.33-3.78-23.66-10.13-34.62-37.53-24.49-61.18.73-1.7,73.39-171.4,117.06-278.21,9.74-23.82,36.95-35.24,60.77-25.5,23.82,9.74,35.24,36.95,25.5,60.77-43.96,107.53-116.93,277.93-117.66,279.64-7.57,17.67-24.77,28.26-42.86,28.26Z" fill="#ffad94"></path><path d="m984.02,728.53c-27.18-4.72-73.43-20.94-69.42-36.93,5.11-20.39,50.52-16.87,70.65-8.46,20.13,8.41,41.55,13.56,41.55,13.56l-42.78,31.83Z" fill="#ffad94"></path><path d="m1072.98,606.93c10.07,12.36-11.05,59.23-11.05,59.23l-14.19-39.97s16.94-29.44,25.24-19.26Z" fill="#f59881"></path><path d="m1107.2,638.93c14.06,29.52-34.09,59.04-34.09,59.04l-10.32-20.71,44.41-38.33Z" fill="#f59881"></path><rect x="898.37" y="552.64" width="165.2" height="32.46" transform="translate(-120.79 300.45) rotate(-16.42)" fill="#1e224f"></rect><path d="m1041.08,534.24l-129.4,38.13-.09-.3c-4.91-16.65,4.61-34.12,21.26-39.02l69.12-20.36c16.65-4.9,34.12,4.61,39.02,21.26l.09.3Z" fill="#1e224f"></path><polygon points="1105.65 794.23 998.39 825.83 920.85 603.51 1050.25 565.38 1105.65 794.23" fill="#fff"></polygon><path d="m1045.98,648.21c-4.31,1.27-9.18.3-12.71-2.98-5.34-4.95-5.65-13.3-.7-18.64l19.77-21.3c4.95-5.34,13.3-5.66,18.64-.7,5.34,4.95,5.65,13.3.7,18.64l-19.77,21.3c-1.67,1.8-3.73,3.03-5.93,3.68Z" fill="#ffad94"></path><path d="m1104.47,659.44l-40.55,41.66c-5.28,5.03-13.64,4.83-18.67-.45-4.76-5-4.8-12.8-.31-17.88l35.8-46.24c6.06-6.81,16.49-7.42,23.3-1.37,6.81,6.06,7.42,16.49,1.37,23.3-.3.33-.63.68-.95.98Z" fill="#ffad94"></path><path d="m1107.73,706.71l-42.9,22.9c-6.25,3.77-14.36,1.76-18.13-4.49-3.54-5.87-1.93-13.43,3.46-17.44l39.23-28.38c7.33-5.42,17.67-3.87,23.09,3.46,5.42,7.33,3.87,17.67-3.46,23.09-.41.31-.86.6-1.29.86Z" fill="#ffad94"></path><path d="m1062.77,725.43l30.55-10.1c8.19-4.02,18.09-.64,22.11,7.55,4.02,8.19.64,18.09-7.55,22.11-.59.29-1.29.57-1.89.79l-33.08,4.01c-6.9,2.38-14.42-1.28-16.81-8.18-2.2-6.38.76-13.28,6.67-16.17Z" fill="#ffad94"></path><path d="m1040.99,533.94l.09.3-129.4,38.13-.09-.3c-.65-2.21-1.04-4.43-1.2-6.63l130.6-31.49Z" fill="#e1e2f2"></path><polygon points="1052.04 572.78 920.85 603.51 1050.25 565.38 1052.04 572.78" fill="#e1e2f2"></polygon><path d="m938.55,642.48c-1.36,0-2.71.05-4.06.13l43.04,123.4c17.5-12.29,28.94-32.61,28.94-55.61,0-37.51-30.41-67.92-67.92-67.92Z" fill="#1e224f"></path><path d="m188.88,651.96s-23.92-2.24-67.37-29.3l49.5,89.44,17.87-60.15Z" fill="#f59881"></path><path d="m234.08,1041.84c-1.9,14.87-21.22,123.4,80.07,146.18l-80.07-146.18Z" fill="#e1e2f2"></path><path d="m334.55,1190.09c54.48,2.39,122.65-2.07,49.99-139.52l-49.99,139.52Z" fill="#e1e2f2"></path><circle cx="237.47" cy="820.48" r="24.39" transform="translate(-615.73 860.96) rotate(-76.57)" fill="#e1e2f2"></circle><path d="m220.58,814.89c-1.63-2.19,8.21-9.86,9.49-8.71,6.3,5.69-6.73,12.42-9.49,8.71Z" fill="#f59881"></path><path d="m231.85,585.47s.04.39.1,1.14c.07.77.2,1.29.36,2.43.21,1.25.43,2.75.78,4.52.31,1.76.74,3.76,1.2,5.94.48,2.18,1.05,4.53,1.68,7.01.68,2.47,1.33,5.09,2.18,7.75.41,1.33.79,2.69,1.25,4.05.46,1.35.92,2.72,1.39,4.1.45,1.39.96,2.76,1.5,4.12.52,1.37,1.04,2.74,1.57,4.12.57,1.34,1.15,2.69,1.72,4.03.59,1.32,1.1,2.69,1.75,3.96.62,1.28,1.24,2.55,1.85,3.81.3.63.6,1.25.9,1.87.33.6.65,1.19.98,1.78.64,1.17,1.28,2.33,1.9,3.46.31.56.6,1.13.93,1.67.33.53.66,1.05.98,1.56.64,1.02,1.27,2.02,1.87,2.99.6.97,1.17,1.9,1.8,2.73,1.21,1.68,2.32,3.23,3.31,4.59,1.01,1.34,1.98,2.39,2.73,3.32,1.51,1.82,2.38,2.86,2.38,2.86l.67.81c6.04,7.28,5.04,18.07-2.23,24.12-7.28,6.04-18.07,5.04-24.12-2.23-.36-.43-.7-.9-1.01-1.35,0,0-1.02-1.51-2.8-4.14-.87-1.33-2-2.9-3.13-4.77-1.08-1.89-2.31-4.02-3.64-6.35-.69-1.15-1.3-2.39-1.92-3.67-.63-1.28-1.28-2.6-1.95-3.96-.33-.68-.67-1.37-1.01-2.06-.33-.7-.61-1.42-.93-2.15-.61-1.45-1.24-2.93-1.87-4.43-.31-.75-.63-1.51-.95-2.27-.28-.77-.57-1.55-.85-2.33-.57-1.56-1.14-3.15-1.72-4.74-.61-1.59-1.05-3.22-1.58-4.85-.5-1.63-1.03-3.26-1.51-4.89-.44-1.64-.88-3.28-1.32-4.92-.45-1.63-.87-3.26-1.22-4.89-.37-1.62-.74-3.23-1.1-4.82-.35-1.59-.63-3.17-.94-4.72-.64-3.09-1.08-6.11-1.55-8.96-.42-2.86-.79-5.56-1.07-8.07-.28-2.51-.52-4.81-.67-6.88-.19-2.04-.27-3.9-.36-5.4-.07-1.62-.14-3.27-.13-3.98,0-.74.01-1.14.01-1.14.08-6.58,5.48-11.85,12.06-11.78,6.15.07,11.16,4.79,11.73,10.79l.02.27Z" fill="#ffad94"></path><path d="m168.52,730.67c-3.14,0-6.24-1.42-8.27-4.12-4.69-6.22-10.45-14.13-16.55-22.51-23.2-31.89-58.26-80.07-77.04-92-4.83-3.07-6.26-9.47-3.19-14.29,3.07-4.83,9.46-6.26,14.29-3.19,22.11,14.05,55.7,60.21,82.69,97.3,6.04,8.3,11.75,16.15,16.33,22.21,3.45,4.56,2.54,11.06-2.02,14.5-1.87,1.41-4.06,2.09-6.23,2.09Z" fill="#f59881"></path><path d="m188.88,651.96c36.76,9.81,72.75,9.64,79.3,18.64,9.23,12.69,17,40.04,14.24,59.37-2.76,19.33-11.74,69.73-49.02,74.9-33.83-49.92-71.8-57.3-71.8-77.32,5.18-12.08,27.27-75.59,27.27-75.59Z" fill="#ffad94"></path><path d="m170.06,736.36c-5.26,0-9.77-4-10.29-9.34-1.72-11.91-50.86-96.79-71.23-120.42-3.73-4.33-3.25-10.87,1.08-14.6,4.33-3.73,10.87-3.25,14.61,1.08,11.68,13.55,31.41,44.82,44.75,67.48,13.73,23.32,30.33,53.43,31.41,64.43.56,5.69-3.6,10.76-9.29,11.32-.34.03-.69.05-1.03.05Z" fill="#ffad94"></path><path d="m142.23,609.11s.28.32.8.93c.2.21.72.89,1.24,1.57.26.35.53.72.83,1.12.23.33.46.68.72,1.05.52.75,1.04,1.56,1.57,2.43.57.88,1.09,1.8,1.68,2.8,1.15,1.98,2.35,4.2,3.59,6.61,4.95,9.63,10.51,22.44,15.52,35.48,5.02,13.03,9.46,26.28,12.39,36.54.74,2.56,1.38,4.94,1.93,7.07.54,2.14,1.01,4,1.35,5.59.36,1.56.62,2.83.79,3.7.17.86.27,1.33.27,1.33,1.41,7.01-3.12,13.84-10.14,15.25-7.01,1.41-13.84-3.12-15.25-10.14-.04-.18-.07-.36-.1-.55l-.04-.29s-.06-.38-.17-1.09c-.1-.71-.26-1.75-.51-3.11-.23-1.34-.56-3.01-.95-4.93-.4-1.92-.88-4.1-1.44-6.48-2.24-9.54-5.87-22.39-10.06-35.05-4.17-12.65-8.92-25.14-12.93-33.92-1-2.19-1.94-4.15-2.8-5.81-.43-.82-.83-1.61-1.21-2.26-.38-.68-.72-1.29-1.03-1.77-.15-.25-.3-.49-.44-.72-.09-.14-.18-.27-.26-.4-.16-.25-.2-.4-.53-.78-.49-.63-.76-.96-.76-.96l-.04-.05c-3.53-4.5-2.75-11.01,1.75-14.54,4.36-3.43,10.63-2.77,14.23,1.37Z" fill="#ffad94"></path><path d="m277.32,754.96c4.76,49.57,105.77,266.48,115.89,328.64,10.83,66.54-25.3,98.06-58.65,106.49-33.36,8.43-99.14-55.7-100.17-129.41-2.53-180.78-13.01-280.24-13.01-280.24l55.96-25.48Z" fill="#ffad94"></path><path d="m224.07,811.57s18.04-4.4,45.71-43.35l-9.94,36.66-35.1,15.6-.67-8.91Z" fill="#f59881"></path><path d="m220.58,814.89l5.28,21.46c15.26,4.6,48.91-34.41,58.44-52.17-3.74-12.07-6.2-21.9-6.92-28.72-8.1,15.69-40.05,62.3-56.79,59.43Z" fill="#eeeff8"></path><path d="m395.16,976.94c-.95,0-1.81-.66-2.02-1.63-24.93-115.47-58.09-188.6-77.96-201.15-2.44-1.54-4.61-2.11-6.44-1.68-1.12.26-2.23-.43-2.49-1.54-.26-1.11.43-2.23,1.54-2.49,2.95-.69,6.18.05,9.6,2.21,11.21,7.08,25.07,30.05,39.02,64.67,15.14,37.56,29.24,85.67,40.78,139.11.24,1.12-.47,2.22-1.59,2.46-.15.03-.29.05-.44.05Z" fill="#e1e2f2"></path><path d="m803.58,938.46c-.3,0-.6-.06-.88-.2-1.04-.49-1.48-1.72-.99-2.76,8.23-17.49,18.09-61.95,23.44-105.71,6.3-51.56,5.1-88.9-3.3-102.46-10.18-16.42-33.24-25.64-59.93-36.31-26.66-10.66-56.89-22.74-78.55-44.86-.8-.82-.79-2.13.03-2.93.82-.8,2.13-.79,2.93.03,21.05,21.49,50.84,33.4,77.13,43.91,27.38,10.94,51.02,20.4,61.92,37.98,12.63,20.37,6.93,80.32,3.9,105.15-5.4,44.15-15.41,89.14-23.8,106.98-.35.75-1.1,1.19-1.88,1.19Z" fill="#e1e2f2"></path><path d="m650.58,467.86c-4.92,0-9.29-3.52-10.18-8.54l-4.8-26.98c-1-5.63,2.75-11.01,8.38-12.01,5.63-1,11.01,2.75,12.01,8.38l4.8,26.98c1,5.63-2.75,11.01-8.38,12.01-.61.11-1.22.16-1.83.16Z" fill="#1e224f"></path><path d="m556.65,482.75c-4.92,0-9.29-3.52-10.18-8.54l-4.8-26.98c-1-5.63,2.75-11.01,8.38-12.01,5.63-1,11.01,2.75,12.01,8.38l4.8,26.98c1,5.63-2.75,11.01-8.38,12.01-.61.11-1.22.16-1.83.16Z" fill="#1e224f"></path><path d="m554.45,452.36c6.68,0,6.68-10.36,0-10.36s-6.68,10.36,0,10.36h0Z" fill="#fff"></path><path d="m648.19,435.69c6.68,0,6.68-10.36,0-10.36s-6.68,10.36,0,10.36h0Z" fill="#fff"></path><circle cx="484.22" cy="904.68" r="10.86" fill="#fff"></circle><circle cx="504.36" cy="1013.77" r="10.86" transform="translate(-598.45 1270.51) rotate(-76.65)" fill="#fff"></circle><circle cx="500.74" cy="1142.94" r="10.86" transform="translate(-707.82 1453.47) rotate(-80.75)" fill="#fff"></circle><path d="m514.66,1191.03c36.95-79.21-3.76-202.71-23.63-324.71l-1.35-2.65c17.99,144.57,25.13,254.17-10.56,327.36h35.54Z" fill="#e1e2f2"></path><path d="m578.7,556.79c9.57,3.77,31.88,22.06,53.88,16.76s22.5-33.34,22.5-33.34c0,0-58.71,12.3-76.39,16.59Z" fill="#1e224f"></path><path d="m662.36,534.37c1.05.46,1.52,1.69,1.06,2.74-.74,1.67-2.46,5.59-38.22,13.17-18.18,3.85-37.24,6.94-42.37,7.51-.91.1-1.92.16-2.98.16-5.35,0-11.98-1.4-14.19-5.11-.58-.98-.26-2.25.72-2.84.98-.58,2.25-.26,2.84.72,1.12,1.88,7.23,3.61,13.15,2.95,4.96-.56,23.59-3.57,41.49-7.35" fill="#f59881"></path><path d="m632.58,573.54c5.26-1.27,9.28-3.84,12.37-7.02-12.93-5.8-34.68-2.3-47.17.5,10.19,5.1,22.54,9.47,34.8,6.51Z" fill="#fff"></path></g><g id="Table_PC"><path d="m1271.36,1190.1h-44.89c-1.14,0-2.07-.93-2.07-2.07s.93-2.07,2.07-2.07h44.89c6.17,0,11.19-5.02,11.19-11.19v-.27c0-6.17-5.02-11.19-11.19-11.19h-74.11c-1.14,0-2.07-.93-2.07-2.07s.93-2.07,2.07-2.07h74.11c8.46,0,15.34,6.88,15.34,15.34v.27c0,8.46-6.88,15.34-15.34,15.34Z" fill="#1e224f"></path><path d="m103.55,1190.09c0-31.58,25.6-44.2,57.18-44.2s57.18,12.62,57.18,44.2h-114.37Z" fill="#e1e2f2"></path><path d="m107,1190.07c8-21.93,29.04-28.58,53.74-28.58s45.75,6.64,53.74,28.58h-107.48Z" fill="#1e224f"></path><path d="m1490.84,1210.8H29.69c-5.72,0-10.36-4.64-10.36-10.36s4.64-10.36,10.36-10.36h1461.15c5.72,0,10.36,4.64,10.36,10.36s-4.64,10.36-10.36,10.36Z" fill="#1e224f"></path><rect x="399.27" y="1173.18" width="398.79" height="16.91" rx="8.37" ry="8.37" fill="#e1e2f2"></rect><rect x="652.66" y="795.29" width="599.55" height="394.8" rx="29.16" ry="29.16" fill="#e1e2f2"></rect><rect x="665.09" y="795.29" width="599.55" height="394.8" rx="29.16" ry="29.16" fill="#1e224f"></rect><circle cx="964.86" cy="992.69" r="21.08" fill="#fff"></circle><path d="m1267.18,1190.1h-450.23c-7.99,55.32-33.55,102.16-73.97,135.54-37.37,30.86-85.24,49.07-138.43,52.66-6.29.42-12.59.63-18.88.63-52.55,0-104.53-14.7-148.15-42.18-54.05-34.04-90.06-79.12-107.5-141.86" fill="none" stroke="#1e224f" stroke-linecap="round" stroke-miterlimit="10" stroke-width="5"></path></g></svg>