<svg xmlns="http://www.w3.org/2000/svg" xmlns:xlink="http://www.w3.org/1999/xlink" id="List" width="1895.62" height="1375.72" viewBox="0 0 1895.62 1375.72"><defs><clipPath id="clippath"><rect x="233.6" y="614.39" width="1310.46" height="596.4" fill="none"></rect></clipPath></defs><g><path d="m1583.48,458.22c-35.37,22.52-92.19,52.97-92.61,16.38-.45-39.81,62.1-61.04,93.47-69.17-2.35-28.05-8.86-56.44-18.36-83.51-4.74-13.56-10.24-26.78-16.32-39.47-8.14-16.98-19.15-33.4-31.74-49.47-4.63,30.92-21.37,51.67-30.6,63-12.16,14.9-60.39,16.48-22.94-33.13,18.77-24.85,25.91-45.38,28.36-59.68-56.05-62.55-124.5-121.51-124.26-189.86,0-.02,0-.03,0-.03,0,0-13.78,41.08-44.16,86.31,7.87,9.39,17.48,25.42,18.29,48.19,1.3,36.73-22.96,47.58-53.63-3.64-19.1,20.25-41.92,38.8-68.71,52.08-.3.14-.58.29-.87.45,9.68,20.69,30.15,72.24,38.33,115.62,0,0-42.04-59.92-72.99-92.43-67.88,57.42-107.19,168.29-46.83,240.61,36.77,44.07,93.02,58.26,146.64,69.65,9.87,2.09,19.75,4.04,29.66,5.88,6.32,1.17,28.73,1.37,32.75,5.67,0,0,.17.19.49.52,6.65,6.84,79.62,79.42,153.66,43.16,7.32-3.57,14.65-8.21,21.92-14.09,36.41-29.41,54.87-69.41,60.44-113.04m-380.03,11.02c-53.98-23.85-62.41-67.33-43.71-88.83,11.22-12.89,28.82-2.14,41.09,8.53,10.3,8.96,21.74,16.57,34.21,22.15,87.16,38.91,18.93,80.46-31.59,58.16m252.04-71.79c-5.05,5.02-11.02,9.38-17.88,11.23-5.2,1.4-10.8,1.28-15.94-.33-1.52-.47-3.07-1.12-4.05-2.37-4.8-6.09,6.96-20.4,9.69-25.69,2.91-5.66,4.73-12.35,8.35-17.58,7.56-10.92,31.31-9.88,35.87,3.74,1.38,4.12-.32,8.59-2.32,12.44-3.59,6.85-8.22,13.14-13.72,18.56" fill="#71efa3"></path><path d="m1447.01,585.74c14.07-1.43,28.4-5.85,42.32-14.56,6.91-4.31,13.72-9.69,20.34-16.29,33.16-33.03,47.37-74.73,48.38-118.7-32.84,26.07-86.2,62.25-90.41,25.9-4.58-39.55,55.43-67.16,85.79-78.5-5.24-27.65-14.67-55.21-26.93-81.15-6.12-12.99-12.96-25.58-20.33-37.56-9.86-16.04-22.51-31.23-36.71-45.9-1.4,31.24-15.89,53.61-23.9,65.84-10.54,16.08-58.35,22.65-26.26-30.57,16.08-26.66,21.06-47.83,22.01-62.3-62.24-56.4-136.44-107.93-143.3-175.94,0-.02,0-.04,0-.04,0,0-9.44,42.29-34.96,90.43,8.8,8.52,20.02,23.47,23.19,46.03,5.1,36.4-17.89,49.71-53.71,1.95-16.9,22.13-37.66,42.94-62.93,58.93-.28.17-.55.35-.82.54,11.77,19.58,37.48,68.72,50.13,111.01,0,0-48.04-55.23-82.19-84.36-61.55,64.15-89.14,178.5-21.61,244.17,22.87,22.24,50.77,34.68,80.39,42.32l251.49,58.74Zm-265.79-99.15c-56.17-18.12-69.06-60.49-52.7-83.82,9.82-13.98,28.44-5.12,41.76,4.22,11.17,7.84,23.34,14.22,36.32,18.48,90.73,29.65,27.18,78.06-25.38,61.12Zm243.23-97.56c-4.5,5.51-9.99,10.47-16.62,13.02-5.03,1.93-10.61,2.39-15.89,1.32-1.56-.31-3.17-.79-4.28-1.94-5.41-5.56,4.8-21.01,6.97-26.55,2.3-5.93,3.42-12.78,6.48-18.36,6.39-11.64,30.12-13.07,36.07,0,1.8,3.95.57,8.58-1.01,12.61-2.86,7.19-6.81,13.93-11.72,19.88Z" fill="none" stroke="#000061" stroke-miterlimit="10" stroke-width="3.94"></path><path d="m1371.74,241.79c1.37,25.34,1.64,50.75,1.54,76.15-.12,25.4-.85,50.81-2.01,76.21-2.31,50.8-6.73,101.53-12.95,152.09-3.22,25.27-6.87,50.5-11.05,75.66l-3.3,18.85-1.66,9.42-1.81,9.4-3.64,18.8-3.94,18.74c-1.27,6.26-2.7,12.49-4.13,18.71-1.44,6.22-2.81,12.47-4.3,18.68-3.12,12.39-6.01,24.86-9.43,37.19l-5,18.54-5.35,18.45-2.69,9.22-2.87,9.17-5.74,18.35-26.95-9.45,6.46-17.69,3.23-8.85,3.06-8.91,6.09-17.85,5.76-17.97c3.93-11.95,7.35-24.07,10.99-36.13,1.75-6.05,3.39-12.13,5.1-18.19,1.7-6.07,3.39-12.14,4.93-18.25l4.75-18.31,4.46-18.38,2.22-9.2,2.08-9.23,4.13-18.48c5.29-24.69,10.08-49.5,14.45-74.4,8.52-49.84,15.28-100.04,19.95-150.49,2.35-25.22,4.26-50.5,5.57-75.81,1.29-25.31,2.21-50.67,2.03-76.05" fill="#1e224f"></path><path d="m1761.09,742.73c-.08-.81-.18-1.62-.27-2.46-47.97-11.49-95.63,15.95-95.63,15.95,22.5-50.58,95.31-93.39,95.31-93.39,6.37-58.87,31.5-122.24,108.5-130.88,0,0-46.46-20.98-112.01-35.8-29.11,14.92-56.94,49.57-56.94,49.57,3.85-24.42,14.46-44.9,21.64-56.52-29.01-4.84-60.4-7.9-92.34-7.33-7.01,64.08-65.8,128.4-74.63,86.56-7.17-33.99,23.01-68.68,39.12-84.37-58.27,6.34-116.07,26.86-162.34,72.49-4.19,4.12-8.28,8.45-12.25,12.99-151.27,172.38-11.52,226.91-11.52,226.91,0,0-2.37,12.34,1.06,30.15,1.87,9.74,5.48,21.13,12.18,33.02,17.34,30.88,55.34,65.17,137.35,83.25,124.47,27.45,176.97-77.35,196.41-136.8,6.66-20.39,8.68-41.99,6.36-63.33m-44.38-128.19c-4.83,4.74-9.63,9.68-15.53,13-5.91,3.32-13.22,4.86-19.51,2.36-1.97-.78-3.88-2.02-4.8-3.92-1.21-2.52-.41-5.52.62-8.11,3.68-9.41,10.38-18.76,19.33-23.75,5.85-3.28,17.24-8.94,24.29-6.28.69.26,1.36.61,1.95,1.04,4.09,2.97,4.74,9.08,2.89,13.79-1.86,4.7-5.63,8.32-9.23,11.87m-63.54,267.14c-11.26,15.22-36.97,20.15-54.48,22.38-21.2,2.71-43.16.8-63.24-6.73-22.99-8.61-45.72-27.11-39.16-54.39,2.45-10.1,10.56-18.24,20.1-22.36,13.29-5.76,26.36-3.94,39.61-.52,1.69.44,3.41.9,5.1,1.37,20.49,5.76,124.02,16.96,92.06,60.25" fill="#1e224f"></path><path d="m1647.68,612.87c-11.39,8.15-22.17,17.09-32.77,26.2-10.58,9.15-20.89,18.59-31.01,28.23-20.18,19.34-39.52,39.52-58.17,60.3-37.25,41.61-71.81,85.53-103.9,131.13-16.18,22.71-31.46,46.04-46.49,69.48l-11.06,17.73c-1.83,2.96-3.71,5.89-5.5,8.88l-5.37,8.96-10.73,17.92-10.41,18.11c-27.67,48.34-53.26,97.82-76.89,148.2l-25.56-12.66c26.08-49.97,54.09-98.92,84.11-146.56l11.29-17.84,11.6-17.64,5.8-8.82c1.93-2.94,3.96-5.82,5.94-8.73l11.92-17.42c16.18-23.03,32.59-45.89,49.87-68.09,34.29-44.58,70.97-87.32,110.18-127.54,19.63-20.09,39.91-39.52,60.97-58.06,10.56-9.24,21.3-18.26,32.28-26.97,11.01-8.67,22.18-17.16,33.91-24.82" fill="#1e224f"></path><path d="m1761.09,742.73c-.08-.81-.18-1.62-.27-2.46-47.97-11.49-95.63,15.95-95.63,15.95,22.5-50.58,95.31-93.39,95.31-93.39,6.37-58.87,31.5-122.24,108.5-130.88,0,0-188.56-46.12-448.02,327.66,17.34,30.88,55.34,65.17,137.35,83.25,124.47,27.45,176.97-77.35,196.41-136.8,6.66-20.39,8.68-41.99,6.36-63.33m-64.27-148.61c5.85-3.28,17.24-8.94,24.29-6.28.69.26,1.36.61,1.95,1.04,4.09,2.97,4.74,9.08,2.89,13.79-1.86,4.7-5.63,8.32-9.23,11.87-4.83,4.74-9.63,9.68-15.53,13-5.91,3.32-13.22,4.86-19.51,2.36-1.97-.78-3.88-2.02-4.8-3.92-1.21-2.52-.41-5.52.62-8.11,3.68-9.41,10.38-18.76,19.33-23.75m-43.65,287.56c-11.26,15.22-36.97,20.15-54.48,22.38-21.2,2.71-43.16.8-63.24-6.73-22.99-8.61-45.72-27.11-39.16-54.39,2.45-10.1,10.56-18.24,20.1-22.36,13.29-5.76,26.36-3.94,39.61-.52,1.69.44,3.41.9,5.1,1.37,20.49,5.76,124.02,16.96,92.06,60.25" fill="#71efa3"></path><path d="m1453.51,894.44c19.35,28.49,57.53,58.33,132.1,74.77,124.47,27.45,176.97-77.35,196.41-136.8,6.66-20.39,8.68-41.99,6.36-63.33-.08-.81-.18-1.62-.27-2.46-47.97-11.49-95.63,15.95-95.63,15.95,22.5-50.58,95.31-93.39,95.31-93.39,5-46.22,21.56-95.21,65.71-118.31l-399.98,323.57Zm270.59-273.97c5.85-3.28,17.24-8.94,24.29-6.28.69.26,1.36.61,1.95,1.04,4.09,2.97,4.74,9.08,2.89,13.79-1.86,4.7-5.63,8.32-9.23,11.87-4.83,4.74-9.63,9.68-15.53,13-5.91,3.32-13.22,4.86-19.51,2.36-1.97-.78-3.88-2.02-4.8-3.92-1.21-2.52-.41-5.52.62-8.11,3.68-9.41,10.38-18.76,19.33-23.75Zm-43.65,287.56c-11.26,15.22-36.97,20.15-54.48,22.38-21.2,2.71-43.16.8-63.24-6.73-22.99-8.61-45.72-27.11-39.16-54.39,2.45-10.1,10.56-18.24,20.1-22.36,13.29-5.76,26.36-3.94,39.61-.52,1.69.44,3.41.9,5.1,1.37,20.49,5.76,124.02,16.96,92.06,60.25Z" fill="none" stroke="#000061" stroke-miterlimit="10" stroke-width="3.94"></path><path d="m1668.1,345.34c-11.75-82.33,57.64-96.43,57.64-96.43,36.21,80.1-57.64,96.43-57.64,96.43" fill="#71efa3"></path><path d="m1668.1,345.34l57.64-96.43c36.21,80.1-57.64,96.43-57.64,96.43" fill="#1e224f"></path><path d="m1670.22,138.15c33.61,55.44-11.83,86.78-11.83,86.78-50.47-46.36,11.83-86.78,11.83-86.78" fill="#71efa3"></path><path d="m1670.22,138.15l-11.83,86.78c-50.47-46.36,11.83-86.78,11.83-86.78" fill="#1e224f"></path><path d="m1754.69,178c-1.43,7.86-8.96,13.07-16.82,11.64-7.86-1.43-13.07-8.96-11.64-16.82,1.43-7.86,8.96-13.07,16.82-11.64s13.07,8.96,11.64,16.82" fill="#71efa3"></path></g><g><g><rect x="-145.12" y="441.36" width="744.37" height="55.49" transform="translate(-248.67 681.92) rotate(-88.27)" fill="#f8f8fc"></rect><rect x="-63.43" y="417.6" width="744.37" height="107.95" transform="translate(-171.92 765.96) rotate(-88.27)" fill="#e1e2f2"></rect><path d="m250.5,308.25c-1.59,0-3.19-.14-4.78-.43-.99-.18-1.65-1.13-1.47-2.12s1.13-1.65,2.12-1.47c6.01,1.09,12.08-.23,17.1-3.71,5.02-3.48,8.38-8.7,9.47-14.71,2.25-12.4-6.02-24.32-18.42-26.57-.99-.18-1.65-1.13-1.47-2.12.18-.99,1.13-1.65,2.12-1.47,14.38,2.61,23.97,16.43,21.36,30.81-1.26,6.97-5.16,13.03-10.98,17.06-4.49,3.11-9.7,4.73-15.05,4.73Z" fill="#f8f8fc"></path><path d="m298.86,252.44c-.62,0-1.23-.32-1.57-.89-9.16-15.3-24.47-25.9-42-29.07-.99-.18-1.65-1.13-1.47-2.12.18-.99,1.13-1.65,2.12-1.47,18.57,3.36,34.78,14.59,44.49,30.79.52.86.24,1.99-.63,2.5-.29.18-.62.26-.94.26Z" fill="#f8f8fc"></path><rect x="227.64" y="89.46" width="3.65" height="38.53" transform="translate(113.86 334.81) rotate(-88.27)" fill="#e1e2f2"></rect><rect x="225.51" y="160.01" width="3.65" height="38.53" transform="translate(41.28 401.1) rotate(-88.27)" fill="#e1e2f2"></rect><rect x="217.48" y="116.44" width="3.65" height="19.27" transform="translate(86.66 341.47) rotate(-88.27)" fill="#e1e2f2"></rect><rect x="216.95" y="134.08" width="3.65" height="19.27" transform="translate(68.52 358.05) rotate(-88.27)" fill="#e1e2f2"></rect><rect x="216.41" y="151.72" width="3.65" height="19.27" transform="translate(50.37 374.62) rotate(-88.27)" fill="#e1e2f2"></rect><rect x="223.38" y="230.56" width="3.65" height="38.53" transform="translate(-31.3 467.39) rotate(-88.27)" fill="#e1e2f2"></rect><rect x="215.35" y="186.99" width="3.65" height="19.27" transform="translate(14.08 407.76) rotate(-88.27)" fill="#e1e2f2"></rect><rect x="214.82" y="204.63" width="3.65" height="19.27" transform="translate(-4.06 424.34) rotate(-88.27)" fill="#e1e2f2"></rect><rect x="214.28" y="222.26" width="3.65" height="19.27" transform="translate(-22.2 440.91) rotate(-88.27)" fill="#e1e2f2"></rect><rect x="221.25" y="301.1" width="3.65" height="38.53" transform="translate(-103.87 533.68) rotate(-88.27)" fill="#e1e2f2"></rect><rect x="213.22" y="257.54" width="3.65" height="19.27" transform="translate(-58.5 474.05) rotate(-88.27)" fill="#e1e2f2"></rect><rect x="212.69" y="275.17" width="3.65" height="19.27" transform="translate(-76.63 490.63) rotate(-88.27)" fill="#e1e2f2"></rect><rect x="212.15" y="292.81" width="3.65" height="19.27" transform="translate(-94.78 507.2) rotate(-88.27)" fill="#e1e2f2"></rect><path d="m371.73,174.29c-1.95,8.86-4.57,19.4-7.87,29.85-7.39,23.37-19.78,51.1-36.67,50.36-3.04-.13-5.72-1.56-8.18-4.37-19.22-22-14.44-114.42-11.71-150.96l-3.67-.11c-2.97,39.09-7.51,130.42,12.64,153.47,3.11,3.56,6.73,5.45,10.78,5.62.27.01.53.02.79.02,21.21,0,35.3-35.97,43.37-66.02l.54-17.86Z" fill="#f8f8fc"></path><path d="m372.87,134.11c-.14.43-14.63,42.91-33.14,42.91-.1,0-.21,0-.32,0-1.29-.03-2.34-.62-3.29-1.84-8.06-10.32-2.21-54.08,1.85-75.08l-3.63-.11c-3.17,17.14-10.87,64.91-1.09,77.43,1.63,2.09,3.67,3.18,6.07,3.24.14,0,.27,0,.4,0,15.2,0,27.16-22.54,32.91-35.88l.33-10.85c-.03.06-.06.11-.08.17Z" fill="#f8f8fc"></path><path d="m362.59,247.14c-16.34,37.14-46.66,86.61-98.27,111.36-.91.44-1.29,1.53-.86,2.44.31.65.97,1.04,1.65,1.04.26,0,.53-.06.79-.18,52.62-25.23,83.44-75.48,100.03-113.18,1.34-3.04,2.61-6.07,3.83-9.06l.33-10.92c-2.25,6.05-4.74,12.24-7.5,18.52Z" fill="#f8f8fc"></path><path d="m368.87,268.87c-12.57,29.91-30.63,54.13-51.9,69.23-.82.58-1.01,1.72-.43,2.55.36.5.92.77,1.49.77.37,0,.73-.11,1.06-.34,19.83-14.08,36.91-35.82,49.5-62.59l.29-9.62Z" fill="#f8f8fc"></path></g><g><polygon points="45.71 479.1 48.53 609.72 102.28 802.74 171.14 796.25 111.11 591 45.71 479.1" fill="#f8f8fc"></polygon><path d="m45.71,479.1l1.72,79.45c-.1-4.44,11.28-27.39,30.79-23.83h0l-32.51-55.62Z" fill="#1e224f"></path><path d="m136.01,799.74l-57.79-201.03s-7.87-15.26-19.02-12.57c-13.49,3.25-10.66,23.59-10.66,23.59l53.75,193.01,33.72-3Z" fill="#e1e2f2"></path><path d="m136.01,799.74l35.14-3.49-60.03-205.24s-8.01-17.04-21.3-12.68c-13.35,4.38-11.6,20.38-11.6,20.38l57.79,201.03Z" fill="#eeeff8"></path></g><g><ellipse cx="116.19" cy="312.28" rx="25.28" ry="19.35" transform="translate(-75.86 40) rotate(-14.79)" fill="#1e224f"></ellipse><ellipse cx="119.74" cy="325.72" rx="42.7" ry="16.68" transform="translate(-79.17 41.35) rotate(-14.79)" fill="#e1e2f2"></ellipse><path d="m152.99,699.45c-2.14,0-3.91-1.69-4-3.84-4.16-105.27-39.83-176.22-65.88-228.02-14.94-29.72-26.74-53.19-29.64-75.29-4.32-32.95,9.79-60.2,37.75-72.91,2.01-.91,4.39-.02,5.3,1.99.91,2.01.02,4.39-1.99,5.3-35.43,16.1-34.97,50.53-33.12,64.58,2.72,20.75,14.25,43.69,28.85,72.73,26.37,52.46,62.49,124.3,66.72,231.3.09,2.21-1.63,4.07-3.84,4.16-.05,0-.11,0-.16,0Z" fill="#e1e2f2"></path><path d="m153.4,688.82c21.14-3.64,23.32-44.19-4.76-48.03l4.76,48.03Z" fill="#1e224f"></path><rect x="164.93" y="315.01" width="66.93" height="585.2" transform="translate(-155.82 75.56) rotate(-15.57)" fill="#1e224f"></rect><rect x="117.49" y="320.24" width="85.18" height="299.79" transform="translate(-120.33 60.23) rotate(-15.57)" fill="#e1e2f2"></rect><polygon points="131.06 322.62 210.67 611.65 159.29 625.97 78.82 337.18 131.06 322.62" fill="#1e224f"></polygon><rect x="179.1" y="314.41" width="3.65" height="298.57" transform="translate(-116.81 64.82) rotate(-15.42)" fill="#1e224f"></rect><polygon points="232.56 605.55 172.07 637.83 168.09 623.52 232.56 605.55" fill="#e1e2f2"></polygon></g><polygon points="377.59 1210.79 93.45 1210.79 57.86 836 413.18 836 377.59 1210.79" fill="#1e224f"></polygon><polygon points="440.56 836 30.48 836 26.63 761.77 440.56 761.77 440.56 836" fill="#1e224f"></polygon><path d="m163.8,883.68h-.37c-12.48,0-22.63-10.15-22.63-22.63v-118.53h8.52v118.53c0,7.78,6.33,14.11,14.11,14.11h.37c7.78,0,14.11-6.33,14.11-14.11v-128.51c0-17.08-13.9-30.98-30.98-30.98h-.71c-17.08,0-30.98,13.9-30.98,30.98v29.23h-8.52v-29.23c0-21.78,17.72-39.5,39.5-39.5h.71c21.78,0,39.5,17.72,39.5,39.5v128.51c0,12.48-10.15,22.63-22.63,22.63Z" fill="#f8f8fc"></path></g><path d="m665.18,311.72s-24.83-18.21-85.16.53l29.49,10.09,55.67-10.62Z" fill="#f59881"></path><g><rect x="233.42" y="312.25" width="1310.64" height="898.54" rx="47.95" ry="47.95" fill="#f8f8fc"></rect><path d="m1496.11,312.25H281.37c-26.48,0-47.95,21.47-47.95,47.95v42.62h1310.64v-42.62c0-26.48-21.47-47.95-47.95-47.95Z" fill="#1e224f"></path><g><path d="m1494.52,375.53c-8.48,0-15.38-6.9-15.38-15.38s6.9-15.38,15.38-15.38,15.38,6.9,15.38,15.38-6.9,15.38-15.38,15.38Z" fill="#fff"></path><path d="m1442.12,375.53c-8.48,0-15.38-6.9-15.38-15.38s6.9-15.38,15.38-15.38,15.38,6.9,15.38,15.38-6.9,15.38-15.38,15.38Z" fill="#fff"></path><path d="m1389.72,375.53c-8.48,0-15.38-6.9-15.38-15.38s6.9-15.38,15.38-15.38,15.38,6.9,15.38,15.38-6.9,15.38-15.38,15.38Z" fill="#fff"></path></g><path d="m533.03,402.82v-25.24c0-13.35,10.82-24.17,24.17-24.17h176.63c13.35,0,24.17,10.82,24.17,24.17v25.24h-224.98Z" fill="#e1e2f2"></path><path d="m512.19,406.66v-29.08c0-13.35-10.82-24.17-24.17-24.17h-176.63c-13.35,0-24.17,10.82-24.17,24.17v29.08" fill="#f8f8fc"></path><path d="m1003.84,406.66v-29.08c0-13.35-10.82-24.17-24.17-24.17h-176.63c-13.35,0-24.17,10.82-24.17,24.17v25.24h224.98" fill="#e1e2f2"></path><g clip-path="url(#clippath)"><circle cx="1072.22" cy="749.13" r="40.32" fill="#e1e2f2"></circle><path d="m1579.56,725.07c-114.47-110.68-402.89-168.6-619.53,158.5-181.17,273.54-506.18,326.1-758.87-13.5" fill="none" stroke="#e1e2f2" stroke-linecap="round" stroke-miterlimit="10" stroke-width="32.03"></path></g><rect x="295.56" y="840.66" width="350.78" height="22.24" fill="#fff"></rect><rect x="295.56" y="879.85" width="313.45" height="22.24" fill="#fff"></rect><rect x="295.56" y="747.5" width="390.77" height="70.34" rx="11.98" ry="11.98" fill="#e1e2f2"></rect><rect x="295.56" y="656.96" width="305.7" height="70.34" rx="11.98" ry="11.98" fill="#e1e2f2"></rect><g><g><rect x="1267.75" y="515.25" width="72.67" height="22.24" rx="10.8" ry="10.8" fill="#eeeff8"></rect><rect x="1150.54" y="515.25" width="93.21" height="22.24" rx="10.8" ry="10.8" fill="#eeeff8"></rect><rect x="1056.7" y="515.25" width="68.14" height="22.24" rx="10.8" ry="10.8" fill="#eeeff8"></rect><rect x="1363.78" y="505.6" width="115.36" height="41.53" rx="20.16" ry="20.16" fill="#e1e2f2"></rect></g><rect x="298.38" y="487.43" width="211.3" height="76.06" rx="36.92" ry="36.92" fill="#1e224f"></rect></g></g><g id="Man"><path d="m1203.49,1246.09c.79-3-9.72-4.96-13.46-5.63-6.36-1.14-3.39,12.92-3.39,12.92l15.06-3.26,1.79-4.03Z" fill="#1e224f"></path><path d="m930.39,1257.22c8.16-10.52-19.95-23.68-35.19-22.56-19.33,1.42,4.97,32.35,4.97,32.35,0,0,26.72-5.28,30.22-9.79Z" fill="#1e224f"></path><path d="m978.31,1151.65c.76-4.29-1.74-7.79-7.06-9.71-5.32-1.92-.26,25.02-.26,25.02,0,0,6.07-8.17,7.32-15.31Z" fill="#1e224f"></path><path d="m878.58,1156.95c-1.03-5.8,13.62-6.18,17.64-3.91,4.02,2.28-6.98,16.37-6.98,16.37,0,0-9.89-8.13-10.66-12.46Z" fill="#1e224f"></path><path d="m1127.65,1158.71c-2.26-4.82,13.65-5.56,13.65-5.56l-1.51,13.83s-10.57-4.93-12.14-8.27Z" fill="#1e224f"></path><polygon points="940.91 1200.84 909.99 1310.01 877.48 1297.37 898.34 1149.07 940.91 1200.84" fill="#ffad94"></polygon><path d="m889.86,1209.38l3.13-22.08,47.76,14.25-8.42,29.62c-13.45-2.5-42.47-21.79-42.47-21.79Z" fill="#f59881"></path><polygon points="1198.95 1178.14 1194.68 1262.73 1163.83 1261.86 1142.82 1129.91 1198.95 1178.14" fill="#ffad94"></polygon><path d="m1153.84,1199.09l-1.74-10.9,46.59-4.99-.66,13.12s-13.43,3.29-44.19,2.77Z" fill="#f59881"></path><path d="m883.04,1167.1c28.04-219.68,91.71-537.3,91.71-537.3l204.04,32.32s42.77,203.02,28.32,510.87l-72.75-5.44s-42.34-374.57-51.73-434.51c-.55-3.49-5.48-3.73-6.37-.31-18.24,70.46-90.11,366.52-114.35,457.51l-78.88-23.14Z" fill="#1e224f"></path><path d="m1127.65,1194.79c16.09,13.66,70.61-4.55,83.26-19.72l1.35-39.56c-6.4.01-64.67,35.8-84.61,23.2,0,0-.08,23.84,0,36.08Z" fill="#e1e2f2"></path><path d="m872.77,1196.64c15.5,17.62,81.01,23.3,97.47.13l8.07-45.12c-15.37,23.49-79.82,22.38-99.73,5.3,0,0-3.92,26.21-5.81,39.69Z" fill="#e1e2f2"></path><path d="m942.8,1198.15c-.15,0-.3-.02-.46-.06-.98-.25-1.56-1.25-1.31-2.22.82-3.17,82.02-319.04,119.87-460.24.26-.97,1.26-1.56,2.24-1.29.97.26,1.55,1.26,1.29,2.24-37.85,141.19-119.05,457.03-119.86,460.2-.21.82-.95,1.37-1.77,1.37Z" fill="#e1e2f2"></path><path d="m1138.85,1171.24c-.92,0-1.71-.69-1.81-1.62-9.03-81.87-46.23-436.38-46.6-439.95-.11-1,.62-1.9,1.62-2.01,1.01-.11,1.9.62,2.01,1.62.38,3.57,37.57,358.07,46.6,439.93.11,1-.61,1.9-1.61,2.01-.07,0-.14.01-.2.01Z" fill="#e1e2f2"></path><path d="m696.73,375.65l8.78,9.13,8.83,9.01,8.87,8.93c1.08,1.08,2.16,2.15,3.24,3.23l25.58-38.56-9.71-6.71-10.03-7.04-9.92-7.1-9.73-7.18-.37-.28c-6.96-5.14-16.81-4.76-23.36,1.36-7.39,6.9-7.79,18.49-.89,25.88l8.72,9.34Z" fill="#ffad94"></path><path d="m1049.66,398.18l-10.06,7.5-5.03,3.75-2.51,1.88-2.69,1.96-10.84,7.88-5.41,3.92-5.38,3.75s-84.14,70.95-131.6,88.9c-12.45,4.71-29.1,7.81-51.72-9.43-22.61-17.24-99.78-98.02-99.78-98.02l22.68-46.11c6.74,4.66,106.14,58.33,106.14,58.33l122.99-105.76c20.65-22.27,55.44-23.58,77.71-2.93,22.27,20.65,23.58,55.44,2.93,77.71-2.24,2.42-4.9,4.76-7.44,6.68Z" fill="#eeeff8"></path><path d="m989.01,444.05l-6.64-110.98c-1.82,5.9-30.17,104.87-71.59,166.87,28.28-17.19,59.1-40.69,78.23-55.89Z" fill="#e1e2f2"></path><path d="m708.37,336.72s-31.51-29.64-43.23-29.11c-11.72.54-86.58,19.02-89.79,18.82,2.73,17.89,29.41,14.47,62.72,12.3s37.08,41.33,68.63,36.21l1.66-38.22Z" fill="#ffad94"></path><polygon points="724.65 410.26 703.06 388.63 727.88 350.49 747.33 364.15 724.65 410.26" fill="#e1e2f2"></polygon><path d="m1177.16,239.49c.14-6.93-44.04,9.3-44.04,9.3l6.15,27.27s37.62-23.56,37.89-36.57Z" fill="#e1e2f2"></path><path d="m1094.48,245.05s-28.49,12.29-48.75,12.29c-4.99,20.31,1.28,75.73,1.28,75.73h42.8l4.68-88.02Z" fill="#e1e2f2"></path><path d="m1208.05,780.63l-52.1-486.65c-26.68-35.63-94.36-14.4-148.71,30.82l-33.64,208.41s-39.12,199.63-44.98,256.69c48.6,79.74,248.08,18.87,279.44-9.27Z" fill="#fff"></path><path d="m1057.32,118.72s-5.35,12.1-3.11,27.66c2.24,15.55,17.26-26.98,17.26-26.98l-14.15-.68Z" fill="#1e224f"></path><path d="m1078.32,154.77s-3.1-21.97-17.85-23.3c-28.02-2.51-22.47,43.1.1,49.88,10.56,3.17,17.71-7.93,17.71-7.93l.05-18.66Z" fill="#f59881"></path><path d="m1066.32,246.1s-.27,34.75-2.58,38.14c-4.67,6.86-36.1,10.76-36.1,10.76,0,0,19.24,29.79,60.82,31.98,41.58,2.19,87.91-24.72,87.91-24.72,0,0-30.58-6.02-33.51-16.94-2-7.48,2.12-40.67,2.12-40.67l-78.66,1.45Z" fill="#ffad94"></path><path d="m1080.64,97.34c-7.7,4.7-17.55,14.25-21.71,28.77-4.16,14.52-18.9,89.08-17.6,91.54,1.31,2.45,11.16,37.27,40.05,43.51,27.27,5.89,70.81-5.86,77.81-23.45,7.01-17.59,24.49-106.86,24.49-106.86l-34.35-30.64-68.7-2.87Z" fill="#ffad94"></path><path d="m1073.87,102.42c-5.98,5.35-11.94,13.22-14.94,23.69-.37,1.3-.83,3.1-1.36,5.28,40.62,13.34,87.79-4.2,100.34-4.78,0,0-42.35-19.76-84.04-24.2Z" fill="#f59881"></path><path d="m1158.94,191.79c13.65-23.39-3.78-47.87-1.03-65.18-20.17-1.03-47.57,10.71-86.45-.96-32.74-9.83-39.01-46.45-14.38-61.35,29.69-17.96,69.68,13.82,69.68,13.82,0,0,2.96-11.58,13.08-6.78,10.12,4.8,22.73,39.69,22.73,39.69,0,0,20.35.37,26.19,18.39,8.43,26.01-20.39,59.82-22.21,61.91l-7.62.45Z" fill="#1e224f"></path><path d="m1143.17,286.19c-.12-.28-.22-.57-.3-.86-2-7.48,2.12-40.67,2.12-40.67l-78.66,1.45s-.04,4.89-.21,11.18h0c5.55,5.92,28.43,37.39,77.05,28.91Z" fill="#f59881"></path><path d="m1033.64,219.38c.87,12.57,7,42.58,46.24,52.78,27.01,7.01,68.99-13.27,79.32-34.45,7.69-15.75,9.92-26.43,11.48-44.47-5.67-1.22-10.62-2.11-13.27-2.2-9.15-.31-21.85,16.08-29.06,14.24-9.51-2.42-21.1-22.73-38.01-25.94-17.2-3.26-23.14,8.22-29.3,6.71-8.59-2.1-11.75-15.73-11.75-15.73-8.03,8.05-16.9,30.86-15.64,49.07Z" fill="#1e224f"></path><path d="m1188.38,194.98c-.4,0-.79-.13-1.13-.39l-47.91-37.74c-.79-.62-.93-1.77-.3-2.56.62-.79,1.77-.93,2.56-.3l47.91,37.74c.79.62.93,1.77.3,2.56-.36.46-.89.7-1.43.7Z" fill="#fff"></path><path d="m1165.28,174.12s12.13-18.58,26.05-13.52c26.44,9.61,2.07,48.57-21.25,45.13-10.91-1.61-12.68-14.69-12.68-14.69l7.87-16.91Z" fill="#ffad94"></path><path d="m1195.07,181.55s.01-.13.04-.37c.02-.23.09-.61.08-1.01.02-.41,0-.93-.04-1.52-.07-.58-.17-1.24-.39-1.92-.4-1.36-1.19-2.86-2.45-4.03-1.22-1.19-2.92-1.95-4.65-2.07-1.73-.15-3.48.36-4.95,1.16-.75.38-1.42.87-2.04,1.35-.61.5-1.17,1.01-1.66,1.51-.49.49-.91,1-1.28,1.44-.35.46-.67.84-.91,1.19-.48.69-.75,1.08-.75,1.08l-.06.09c-.74,1.06-2.19,1.33-3.25.59-1.06-.74-1.33-2.19-.59-3.25.05-.07.1-.13.15-.2,0,0,.36-.42,1-1.15.31-.37.74-.79,1.21-1.28.49-.47,1.04-1.01,1.7-1.55.65-.55,1.39-1.09,2.22-1.63.84-.52,1.75-1.03,2.78-1.43,2.01-.83,4.47-1.27,6.83-.81,1.18.22,2.31.64,3.32,1.23,1.01.58,1.88,1.34,2.58,2.16.7.83,1.26,1.71,1.66,2.6.38.89.67,1.77.8,2.59.16.82.2,1.58.21,2.25-.02.67-.05,1.25-.13,1.73-.05.5-.15.82-.2,1.06-.05.24-.08.36-.08.36-.07.32-.38.51-.7.45-.29-.06-.49-.34-.46-.64Z" fill="#f59881"></path><path d="m1169.41,179.28s6.49-9.94,13.94-7.23c14.15,5.14,1.11,25.98-11.37,24.15-5.83-.86-6.78-7.86-6.78-7.86l4.21-9.05Z" fill="#f59881"></path><path d="m1181.84,99.91l-26.9,20.14,17.53-28.66c1.86-3.04,5.83-3.99,8.86-2.14s3.99,5.83,2.14,8.86c-.44.71-1.01,1.32-1.64,1.8Z" fill="#1e224f"></path><path d="m1097.6,174.77c-.13,0-.26-.01-.4-.04l-15.07-3.35c-.53-.12-.98-.47-1.23-.95-.25-.48-.27-1.05-.05-1.55l12.57-29.4c.4-.93,1.47-1.36,2.4-.96.93.4,1.36,1.47.96,2.4l-11.7,27.38,12.92,2.88c.98.22,1.6,1.19,1.38,2.18-.19.85-.94,1.43-1.78,1.43Z" fill="#f59881"></path><path d="m1120.38,177.44h0c-1.41,0-2.82-.16-4.19-.46-11.22-2.5-18.13-14.48-15.41-26.7,2.33-10.49,11.2-18.11,21.09-18.11,1.41,0,2.82.16,4.19.46,11.22,2.5,18.13,14.48,15.41,26.7-2.33,10.49-11.2,18.11-21.09,18.11Zm1.48-41.62c-8.19,0-15.56,6.41-17.53,15.25-2.28,10.26,3.39,20.29,12.64,22.35,1.12.25,2.26.38,3.4.38,8.19,0,15.56-6.41,17.53-15.25,2.28-10.26-3.39-20.29-12.64-22.35-1.12-.25-2.26-.38-3.4-.38Z" fill="#fff"></path><path d="m1067.43,165.72h0c-1.23,0-2.46-.14-3.67-.4-10.14-2.26-16.32-13.42-13.77-24.88,2.2-9.91,10.34-17.1,19.36-17.1,1.23,0,2.46.14,3.67.4,10.14,2.26,16.32,13.42,13.77,24.88-2.21,9.91-10.35,17.1-19.36,17.1Zm1.92-38.73c-7.31,0-13.96,5.99-15.79,14.24-2.11,9.5,2.82,18.7,11,20.52.94.21,1.91.32,2.87.32,7.31,0,13.96-5.99,15.79-14.24,2.11-9.5-2.82-18.7-11-20.52-.94-.21-1.91-.32-2.87-.32Z" fill="#fff"></path><path d="m1103.62,149.04c-.52,0-1.03-.22-1.39-.64-.27-.31-6.7-7.6-15.99-4.27-.95.34-1.99-.15-2.33-1.1-.34-.95.15-1.99,1.1-2.33,11.7-4.2,19.67,4.94,20,5.33.65.77.56,1.92-.2,2.57-.34.29-.76.44-1.18.44Z" fill="#fff"></path><path d="m1061.02,779.55c20.22-1.63,102.55-12.63,146.2-6.73l-4.28-39.96-141.92,46.7Z" fill="#e1e2f2"></path><path d="m1017.55,447.92c-1.49,22.59-12.21,115.96-14.66,164.98-1.43,28.61-3.5,58.88-12.84,88.84-12.72,40.78-47.25,83.3-47.25,83.3l74.75-337.11Z" fill="#e1e2f2"></path><path d="m1065.72,312.88c-2.24,9.4-39.61,79.13-41.34,93.61-4.96,41.58-58.05,310.78-81.58,339.18,1.54-24.79-10.88-58.61-3.07-104.16,5.59-32.66,14.29-86.76,14.79-94.81.5-8.06,24.15-214.2,30.68-223.93,13.02-19.41,49.25-31.79,54.05-38.95,3.36-5.02,3.92-23.91,6.48-26.48,8.56,1.32,8.07,49.85,19.99,55.54Z" fill="#e1e2f2"></path><path d="m1047.42,316.24c-6.82,16.85-38.57,76.93-40.16,90.25h17.12c1.44-12.04,27.51-62.27,37.55-84.27l-14.51-5.99Z" fill="#e1e2f2"></path><path d="m1040.6,285.16c.3,6.14-3.36,32.69,11.94,56.77l6.18-12.84-18.12-43.93Z" fill="#e1e2f2"></path><path d="m973.72,388.63h0c-8.82,64.25-27.69,184.36-28.01,189.58-.5,8.06-23.94,54.5-29.53,87.16-7.8,45.55,28.16,94.87,26.62,119.66,23.54-28.4,76.62-336.96,81.58-378.54l-50.66-17.86Z" fill="#eeeff8"></path><path d="m1052.57,341.87l6.15-12.77-4.07-9.87-7.23-2.98c-.77,1.91-1.88,4.41-3.22,7.31,1.82,6.04,4.47,12.29,8.34,18.38.01-.02.02-.04.03-.06Z" fill="#e1e2f2"></path><path d="m1045.73,257.34c-2.25,2.25-2.95,17.05-5.36,24.05h0c.68,3.44-.95,37.57,15.6,53.46h0c5.16-10.72,9.07-19.12,9.75-21.97-11.92-5.7-11.43-54.22-19.99-55.54Z" fill="#eeeff8"></path><path d="m942.8,728.58c-18.2-22.68-22.08-81.96-19.54-90h0c-3.07,9.25-5.65,18.46-7.08,26.79-6.67,38.96,18.66,80.67,25.17,107.44,5.9-9.26,14.51-27.96,1.44-44.23Z" fill="#e1e2f2"></path><path d="m927.11,700.32c-1.01,0-1.83-.82-1.83-1.83,0-24.39,9.89-70.15,20.36-118.59,12.32-57,26.28-121.6,26.56-162.94,0-1,.82-1.81,1.83-1.81h.01c1.01,0,1.82.83,1.81,1.84-.28,41.71-14.29,106.51-26.64,163.69-10.43,48.25-20.27,93.82-20.27,117.82,0,1.01-.82,1.83-1.83,1.83Z" fill="#e1e2f2"></path><path d="m1024.38,406.49l-19.03-4.24c-4.27,35.77-44.14,269.08-70.19,351.7,4.65,12.31,8.14,23,7.64,31.08,23.54-28.4,76.62-336.96,81.58-378.54Z" fill="#e1e2f2"></path><path d="m1026.07,400.09c-6.62-1.74-38.37-13.34-50.05-17.66-.46-.17-.93-.28-1.39-.35-.6,4.31-1.21,8.74-1.82,13.28,7.5,2.77,42.07,15.48,49.89,17.54.26.07.53.12.79.15.38-2.58.68-4.78.9-6.56.18-1.55.78-3.73,1.69-6.4,0,0,0,0,0,0Z" fill="#e1e2f2"></path><path d="m942.8,786.86c-.41,0-.82-.14-1.16-.42-.78-.64-.88-1.79-.24-2.57,22.55-27.22,75.49-330,81.17-377.59,1.08-9.02,14.63-36.93,26.59-61.55,7.17-14.77,13.94-28.71,14.79-32.26.23-.98,1.22-1.59,2.2-1.35.98.23,1.59,1.22,1.35,2.2-.94,3.94-7.17,16.77-15.05,33.01-11.25,23.16-25.24,51.98-26.24,60.39-4.54,38.02-57.62,350.08-81.99,379.49-.36.44-.88.66-1.41.66Z" fill="#f8f8fc"></path><path d="m1196.11,291.91s55.42,10.42,74.8,31.63c3.45,3.77-3.24,28.77-10.12,64.6l-55.15-5.71-9.52-90.52Z" fill="#e1e2f2"></path><path d="m1099.4,328.58c-2.16,29.53-37.16,145.66-49.35,219.53-10.83,65.62-16.84,188.03,5.55,232.52,0,0,163.15-32.14,175.7-44.49,12.55-12.35-27.32-131.22-10.34-171.08,16.98-39.86-24.85-273.15-24.85-273.15l-68.72-4.8-27.99,41.47Z" fill="#eeeff8"></path><path d="m1231.3,736.14c12.55-12.35,3.99-255.34-11.41-351.32-40.44,11.68-102.7,17.68-138.27,24.43h0c-11.19,44.54-24.72,97.67-31.47,138.24-3.8,36.14-7.02,75.68-9.69,113.87-.78,48.34,3.02,95.21,15.14,119.28,0,0,163.15-32.14,175.7-44.49Z" fill="#eeeff8"></path><path d="m1093.99,772.76c-22.39-44.49-18.73-167.42-7.9-233.04,12.19-73.88,36.32-199,38.48-228.53l38.99-18.27-48.54.72-15.63,34.94c-2.16,29.53-37.16,145.66-49.35,219.53-10.83,65.62-16.84,188.03,5.55,232.52,0,0,16.33-3.22,39.05-8-.43.09-.66.13-.66.13Z" fill="#eeeff8"></path><path d="m1044.16,737.71c2.43,17.48,6.14,32.39,11.44,42.93,0,0,163.15-32.14,175.7-44.49,4.49-4.42,9.8-32.39,5.88-55.57-19.46,34.58-153.97,53.74-153.97,53.74l-39.05,3.39Z" fill="#e1e2f2"></path><path d="m1056.14,780.52c.17-.03.36-.07.6-.12.01,0,.02,0,.03,0,.73-.15,1.79-.36,3.15-.63.08-.02.16-.03.25-.05.21-.04.43-.09.65-.13.07-.01.13-.03.19-.04.29-.06.59-.12.9-.18.04,0,.08-.02.13-.03.62-.12,1.27-.26,1.97-.4.08-.02.15-.03.23-.05,1.11-.22,2.32-.47,3.62-.73.05-.01.1-.02.16-.03.38-.08.77-.16,1.17-.24.07-.01.14-.03.21-.04,2.81-.57,5.99-1.22,9.47-1.94.08-.02.17-.04.25-.05.5-.1,1.01-.21,1.53-.32.06-.01.11-.02.17-.03,1.74-.36,3.55-.74,5.42-1.12.15-.03.3-.06.45-.09.5-.1,1-.21,1.51-.32.12-.03.24-.05.36-.08,1.26-.26,2.55-.53,3.85-.81.12-.03.25-.05.38-.08.55-.11,1.1-.23,1.65-.35.07-.01.13-.03.2-.04-.43.08-.65.13-.65.13-22.39-44.49-16.38-166.9-5.55-232.52,6.51-39.42,15.74-93.58,23.27-140.02-11.65,4.23-22.2,7.53-30.09,9.02-11.19,44.54-24.72,97.67-31.47,138.24-3.8,36.14-7.02,75.68-9.69,113.87-.78,48.34,3.02,95.21,15.14,119.28,0,0,.06-.01.18-.04.09-.02.21-.04.37-.07Z" fill="#e1e2f2"></path><path d="m1080.31,417.53c.42.17.85.3,1.31.36.49.06,1,.06,1.52-.01,19.7-2.87,122.82-18.49,170.59-31.33-.08-3.92.14-10.04.06-13.76-.67.01-72.23,15.55-168.05,30.86-1.43,3.63-3.94,10.14-5.43,13.89Z" fill="#e1e2f2"></path><path d="m1098.3,336.07c7.5-4.85,38.52-36.19,78.01-41.01l-23.26-5.37-45.03,17.72-7.66,11.63-2.06,17.03Z" fill="#e1e2f2"></path><path d="m1046.49,763.95c-1.31,0-2.51-.88-2.85-2.21-1.46-5.56-3.84-20.73-3.94-21.37-.25-1.61.85-3.12,2.46-3.37,1.61-.25,3.12.85,3.37,2.46.02.16,2.44,15.52,3.82,20.79.41,1.58-.53,3.19-2.11,3.61-.25.07-.5.1-.75.1Z" fill="#fff"></path><path d="m1143.63,730.41c-.82,0-1.57-.56-1.77-1.39-22.26-90.33-26.99-199.25-12.63-291.36.16-1,1.08-1.68,2.08-1.52,1,.16,1.68,1.09,1.52,2.09-14.28,91.65-9.58,200.04,12.57,289.92.24.98-.36,1.97-1.34,2.21-.15.04-.29.05-.44.05Z" fill="#e1e2f2"></path><path d="m1088.22,406.92l28.62,56.18s47.12-32.57,81.9-64.51l-110.52,8.33Z" fill="#e1e2f2"></path><path d="m1163.56,292.92l-19.43.29-35.08,13.8-9.65,21.57c-.15,2.05-.46,4.53-.91,7.36,3.75-2.51,12.83-10.94,25.59-19.56.22-1.96.38-3.71.49-5.2l38.99-18.27Z" fill="#e1e2f2"></path><path d="m1016.61,410.27s-39.95,16-52.08,20.25c3.33-8.77,8.28-35.17,8.28-35.17l43.8,14.92Z" fill="#e1e2f2"></path><path d="m1099.4,328.58s4.18-17.23-4.92-36.67c0,0,83.55-42.63,82.68-52.42,5.17,17.47,18.95,52.42,18.95,52.42,0,0-69.4,7.38-96.71,36.67Z" fill="#eeeff8"></path><path d="m1055.6,782.46c-.67,0-1.31-.37-1.63-1-22.81-45.32-15.62-167.34-5.72-233.61,4.71-31.53,14.8-69.85,24.56-106.92,16.55-62.84,33.66-127.82,20.16-148-.56-.84-.34-1.97.5-2.53.84-.56,1.97-.34,2.53.5,14.42,21.54-2.14,84.4-19.66,150.96-9.74,36.97-19.8,75.2-24.48,106.53-10.55,70.7-15.86,189.24,5.38,231.43.45.9.09,2-.81,2.45-.26.13-.54.19-.82.19Z" fill="#f8f8fc"></path><path d="m1233.79,559.7c.26.92.63,1.5,1.1,1.77-2.29-51.33-6.05-104.52-10.75-145.17l-28.03-8.56s32.04,131.88,37.68,151.96Z" fill="#e1e2f2"></path><polygon points="727.88 350.49 705.54 384.81 702.02 381.15 727.88 350.49" fill="#f59881"></polygon><path d="m1545.98,530.69l-12.45,2.37-12.42,2.24-12.4,2.15c-1.51.26-3.01.5-4.52.76l1.46-46.25,11.8.15,12.26.07,12.2-.05,12.09-.22h.47c8.65-.18,16.46,5.83,18.26,14.62,2.03,9.9-4.35,19.58-14.26,21.61l-12.52,2.57Z" fill="#ffad94"></path><path d="m1295.31,536.77c21.78,16.96,48.18,29.21,94.1,26.78,37.55-1.99,135.73-21.07,135.73-21.07l-7.8-50.79c-11.09-.53-153.56-13.81-153.56-13.81l-83.17-142.52c-15.84-25.91-49.68-34.08-75.59-18.24-25.91,15.84-34.08,49.68-18.24,75.59,1.72,2.81,68.51,112.91,108.55,144.08Z" fill="#eeeff8"></path><polygon points="1525.14 542.48 1552.59 538.1 1540.57 491.67 1517.34 491.68 1525.14 542.48" fill="#71efa3"></polygon><path d="m1582.19,470.84c1.22,9.29-25.7,23.39-25.7,23.39l5.69-22.85s19.09-7.54,20.01-.54Z" fill="#f59881"></path><path d="m1590.05,495.46c-4.46,17.92-38.43,18.31-38.43,18.31l4.93-15.39,33.5-2.92Z" fill="#f59881"></path><path d="m1462.2,553.82c12.6-2.11,24.74-4.26,34.93-6.11l4.18-57.31c-2.25-.19-4.68-.4-7.26-.63l-31.85,64.05Z" fill="#e1e2f2"></path><path d="m1604.13,222.71c2.82-13.23,1.9-41.17,1.25-54.49-.11-2.23-3.06-2.95-4.19-1.02-6.83,11.67-20.8,36.57-23.63,49.85-3.78,17.72-.9,33.36,6.44,34.92,7.34,1.56,16.35-11.53,20.13-29.26Z" fill="#1e224f"></path><path d="m1355.62,1355.15l-13.21-2.82c-15.82-3.37-25.91-18.93-22.53-34.75l202.84-951.02,70.49,15.03-202.84,951.02c-3.37,15.82-18.93,25.91-34.75,22.53Z" fill="#e1e2f2"></path><rect x="943.95" y="857.67" width="1008.03" height="3.65" transform="translate(305.24 2096.23) rotate(-77.96)" fill="#1e224f"></rect><path d="m1390.37,1332.62l202.84-951.02-30.24-6.45-208.95,979.66,1.6.34c15.82,3.37,31.38-6.71,34.75-22.53Z" fill="#1e224f"></path><rect x="1546.24" y="323.56" width="29.62" height="72.08" transform="translate(883.74 1811.3) rotate(-77.96)" fill="#e1e2f2"></rect><path d="m1606.39,223.2l-31.09-6.63-26.32,53.44c-1.97,4-3.43,8.22-4.36,12.58l-11.91,55.83,62.84,13.4,11.91-55.83c.93-4.36,1.32-8.81,1.15-13.26l-2.22-59.52Z" fill="#e1e2f2"></path><rect x="1561.75" y="310.04" width="6.04" height="64.25" transform="translate(903.73 1801.14) rotate(-77.96)" fill="#eeeff8"></rect><path d="m1558.44,481.86c-2.35-.58-4.34-2.36-5.08-4.84-1.13-3.75,1-7.71,4.75-8.83l14.96-4.5c3.75-1.13,7.7.99,8.83,4.75,1.13,3.75-1,7.71-4.75,8.83l-14.96,4.5c-1.27.38-2.55.39-3.75.09Z" fill="#ffad94"></path><path d="m1583.25,503.17l-27.27,8.66c-3.82.9-7.64-1.47-8.53-5.29-.85-3.61,1.26-7.24,4.72-8.37l26.32-12.08c4.66-1.51,9.66,1.04,11.18,5.7,1.51,4.66-1.04,9.66-5.7,11.18-.23.07-.48.14-.71.2Z" fill="#ffad94"></path><path d="m1574.87,526.71l-30.96,1.72c-3.92.05-7.14-3.09-7.18-7.01-.04-3.68,2.76-6.75,6.35-7.15l30.75-5.26c4.87-.52,9.25,3.01,9.76,7.88.52,4.87-3.01,9.25-7.88,9.76-.27.03-.56.05-.83.05Z" fill="#ffad94"></path><path d="m1542.6,525.56l21.75.85c4.89.36,8.56,4.62,8.2,9.52-.36,4.89-4.62,8.56-9.52,8.2-.35-.03-.75-.08-1.09-.15l-21.27-4.37c-3.85-.77-6.34-4.52-5.56-8.37.71-3.55,3.97-5.95,7.49-5.68Z" fill="#ffad94"></path><path d="m719.74,1322.34s10.26-5.06,20.3-4.71c7.66.26,15.27.14,22.83-.11,20.25-.65,63.03-16.08,76.21-28.04,11.74-10.65,47.37-41.66,47.37-41.66,6.87.49,25.5,17.73,43.93,9.41-15.5,15.5,11.87,52.9,6.85,74.32l-6.82,10.34-207.98-6.61-2.71-12.93Z" fill="#f8f8fc"></path><path d="m752.08,1317.34c-4.01-.12-8.05-.52-12.03-.65-10.04-.35-20.32,5.65-20.32,5.65l2.71,12.93,24.75-5.02,4.89-12.91Z" fill="#fff"></path><path d="m719.74,1322.34s22.13,10.07,60.14,12.49l1.07,20.75c-20.13-1.12-64.23-2.58-68.51-13.12-4.28-10.55-1.15-18.23,7.3-20.12Z" fill="#1e224f"></path><path d="m755.1,1327.04c31.49-3.2,62.48-7.1,82.93-21.23,19.39-13.4,40.14-31.93,51.74-61.42,1.47-3.75-14.43-12.28-18.12-2.76-10.53,27.22-32.41,43.49-42.84,51.43-22.14,16.83-57.33,21-64.72,22.61-3.07.67-12,1.66-12,1.66-5.86,2.58-4.89,12.91-4.89,12.91.26-.45,1.61-2.57,7.91-3.21Z" fill="#e1e2f2"></path><path d="m851.65,1301.44c-.68,0-1.33-.38-1.64-1.03-.08-.17-8.36-17.06-18.17-17.06h0c-1.01,0-1.82-.82-1.83-1.82,0-1.01.82-1.81,1.83-1.83,12.1,0,21.09,18.34,21.46,19.12.44.91.06,2-.85,2.44-.26.12-.53.18-.79.18Z" fill="#fff"></path><path d="m865.72,1284.44c-.6,0-1.19-.3-1.54-.85-.09-.14-9.31-14.41-19.2-12.52-1,.19-1.95-.46-2.14-1.45s.46-1.95,1.45-2.13c12.34-2.35,22.54,13.48,22.96,14.15.54.85.29,1.98-.56,2.52-.3.19-.64.29-.98.29Z" fill="#fff"></path><path d="m835.01,1314.17c-.72,0-1.4-.42-1.69-1.13-3.76-9.06-11.26-21.7-15.42-20.06-.94.37-2-.09-2.37-1.03-.37-.94.09-2,1.03-2.37,8.99-3.54,18.35,17.76,20.14,22.06.39.93-.06,2-.99,2.38-.23.09-.47.14-.7.14Z" fill="#fff"></path><path d="m835.01,1314.17c-.21,0-.42-.04-.63-.11-.91-.33-22.49-8.25-31.51-12.81-.9-.45-1.26-1.55-.81-2.45.45-.9,1.55-1.26,2.45-.81,8.84,4.47,30.9,12.56,31.12,12.64.95.35,1.43,1.39,1.09,2.34-.27.74-.97,1.2-1.71,1.2Z" fill="#fff"></path><path d="m791.04,1327.05c-.91,0-1.7-.68-1.81-1.61-.78-6.43-3.46-15.85-6.75-15.85-.03,0-.05,0-.08,0-.99.08-1.86-.74-1.9-1.74-.04-1.01.74-1.86,1.74-1.9,7.84-.37,10.22,15.81,10.61,19.06.12,1-.59,1.91-1.59,2.03-.07,0-.15.01-.22.01Z" fill="#fff"></path><path d="m937.24,1331.54c-13.58,7.95-92.12,2.17-157.36,3.29l.5,20.72c.18,0,83.25-3.29,96.99-3.1,11.39.16,51.54,3.44,56.03,2.09,4.49-1.34,4.47-4.51,5.77-9.28,1.3-4.76-1.92-13.73-1.92-13.73Z" fill="#e1e2f2"></path><path d="m878.58,1348.12c-13.74-.19-49.49,4.55-98.32,1.83l.13,5.6c48.83,2.72,84.48-2.06,98.22-1.86,10.59.15,49.69,2.39,54.79.86,4.48-1.34,4.47-4.51,5.77-9.28-4.67,9.96-49.2,3.01-60.59,2.85Z" fill="#1e224f"></path><path d="m878.92,1362.44c-.92,0-1.7-.69-1.81-1.62-.11-1,.6-1.91,1.61-2.02,3.58-.41,6.38-2.07,8.33-4.94,2.48-3.65,3.25-9.11,1.96-13.91-1.85-6.86-6.93-14.82-11.85-22.52-7.83-12.26-15.92-24.93-13.28-35.84.24-.98,1.22-1.58,2.2-1.34.98.24,1.58,1.22,1.34,2.2-2.28,9.4,5.39,21.41,12.81,33.02,5.07,7.94,10.31,16.14,12.3,23.54,1.58,5.86.63,12.34-2.47,16.91-2.54,3.73-6.32,5.99-10.94,6.51-.07,0-.14.01-.21.01Z" fill="#fff"></path><path d="m886.71,1353.94c-4.22,0-8.5-.98-12.47-3.02-6.92-3.57-28.13-19.12-10.32-69.51.34-.95,1.38-1.45,2.33-1.11.95.34,1.45,1.38,1.11,2.33-13.37,37.83-4.35,58.41,8.55,65.05,10.39,5.35,23.21,2.28,29.83-7.16,8.75-12.47,6.17-36.84-27.28-67.86-.74-.69-.78-1.84-.1-2.58.68-.74,1.84-.78,2.58-.1,44.27,41.05,32.46,65.97,27.79,72.64-5.13,7.31-13.47,11.33-22.03,11.33Z" fill="#fff"></path><path d="m1157.65,1241.65l.31,103.76,47.54-3.14-13.23-98.13s-22.39-8.05-34.61-2.5Z" fill="#e1e2f2"></path><path d="m1134.91,1341.93l10.04,4.94s21.19-19.39,21.19-37.15c0-11.95-8.63-34.26-8.19-63.63h-10.53c10.23,50.39-5.11,49.76-12.51,95.84Z" fill="#f8f8fc"></path><path d="m1222.3,1341.78l-5.67-2.43s-23.67-14.3-23.67-32.06c0-11.95-.37-58.7-.37-58.7,9.57.07,10.9-2.51,10.9-2.51-3.33,49.45,12.39,67.71,18.81,95.7Z" fill="#f8f8fc"></path><path d="m1134.91,1341.93c.97-5.54,15.79-20.11,45.1-20.11,33.98,0,42.29,19.97,42.29,19.97,0,0,1.38,7.5-32.27,10.25-33.65,2.75-55.13-10.11-55.13-10.11Z" fill="#fff"></path><path d="m1148.3,1355.32h58.98c7.85,0,14.21-6.36,14.21-14.21v-.14h-87.39v.14c0,7.85,6.36,14.21,14.21,14.21Z" fill="#1e224f"></path><path d="m1157.46,1316.45c-.41,0-.82-.14-1.16-.42-.78-.64-.89-1.79-.25-2.57,4.87-5.91,36.95-3.7,46.67-2.89,1,.08,1.75.97,1.67,1.97-.08,1-.96,1.75-1.97,1.67-19.42-1.64-41.02-1.5-43.54,1.57-.36.44-.88.67-1.41.67Z" fill="#fff"></path><path d="m1158.74,1305.04c-.41,0-.83-.14-1.17-.42-.78-.64-.88-1.79-.24-2.57,6.77-8.14,39.41-3.26,43.11-2.68,1,.16,1.68,1.09,1.52,2.09-.16,1-1.08,1.68-2.09,1.52-13.18-2.08-35.63-3.53-39.73,1.41-.36.43-.88.66-1.4.66Z" fill="#fff"></path><path d="m1160.19,1293.04c-.36,0-.73-.11-1.05-.33-.83-.58-1.02-1.73-.44-2.55,3.34-4.76,27.88-2.96,38.27-1.97,1,.1,1.74.99,1.64,1.99-.1,1-.97,1.73-1.99,1.64-15.33-1.47-33.04-1.63-34.95.45-.35.5-.91.77-1.48.77Z" fill="#fff"></path><path d="m1196.8,1291.83c-.23,0-.47-.05-.7-.14-17.51-7.33-34.02-11.91-36.07-10.01-.73.68-1.89.67-2.58-.05-.69-.72-.7-1.84.01-2.54,1.67-1.66,5.75-2.85,22.57,2.71,8.92,2.95,17.4,6.49,17.48,6.52.93.39,1.37,1.46.98,2.39-.29.7-.97,1.12-1.68,1.12Z" fill="#fff"></path><path d="m1157.65,1271.07c-.43,0-.85-.15-1.2-.45-.76-.66-.84-1.81-.18-2.57,4.15-4.78,33.01-3.21,41.76-2.61,1.01.07,1.77.94,1.7,1.95-.07,1.01-.95,1.77-1.95,1.7-17.04-1.16-36.7-.97-38.76,1.36-.36.41-.87.62-1.38.62Z" fill="#fff"></path><path d="m1190.86,1347.31c-6.06,0-12.16-2.79-16.78-8.12-6.82-7.86-9.1-19.62-6.41-33.09,3.3-16.51,13.6-34.65,30.61-53.93.67-.75,1.82-.83,2.58-.16.76.67.83,1.82.16,2.58-35.55,40.29-35.25,69.47-24.18,82.21,6.25,7.21,15.66,8.93,22.87,4.18,11.1-7.3,16.85-30.78-3.45-72.92-.44-.91-.06-2,.85-2.44.91-.44,2-.06,2.44.85,21.3,44.21,15.08,69.05,2.16,77.55-3.36,2.21-7.1,3.29-10.86,3.29Z" fill="#fff"></path><path d="m1115.9,160.83c-1.43-.63-2.25-2.21-1.88-3.78l2.03-8.46c.42-1.77,2.2-2.85,3.97-2.43,1.76.43,2.85,2.2,2.43,3.97l-2.03,8.46c-.42,1.77-2.2,2.85-3.97,2.43-.19-.05-.38-.11-.55-.19Z" fill="#1e224f"></path><path d="m1069.43,153.31c-1.43-.63-2.25-2.21-1.88-3.78l2.03-8.46c.42-1.77,2.2-2.85,3.97-2.43,1.76.43,2.85,2.2,2.43,3.97l-2.03,8.46c-.42,1.77-2.2,2.85-3.97,2.43-.19-.05-.38-.11-.55-.19Z" fill="#1e224f"></path></g></svg>