<svg xmlns="http://www.w3.org/2000/svg" id="Timeline" width="2500" height="1410.22" viewBox="0 0 2500 1410.22"><g><path d="m2028.96,538.17s10.14-20.89,15.78-23.48c7.45,10.6,33.99,34.12,48.39,33.42-75.66,34.3-64.17-9.94-64.17-9.94Z" fill="#1e224f"></path><path d="m2256.96,283.05c-3.43-93.6-19.66-181.43-40.43-189.18-12.87-4.8-29.17,9.43-18.68,42.78-23.35-28.87-21.94-110.13-3.58-135.96-87.08-18.14-145.08,329.67-142.85,375.16,1.16,23.65,96.05,83.41,154.71,105.35-17.64,29.92-175.45,91.91-177.16,56.97,0,0-31.89,71.59,16.5,111.79,36.31,30.15,88.49,26.89,131.15,31.21-85.89,12.51-149.3-4.16-157.1-7.95-1.17,17.37-7.85,34.15-14.37,42.78,0,0,58.94,36.42,146.66,59.73-78.15-16.57-107.36,15.65-162.67,2-35.78,89.39-87.74,150.32-80.68,167.55,9.18,22.38,85.02,97.74,54.84,183.75l54.98-69.49s101.44,20.42,153.24-79.52c0,0-57.74-14.46-104.63,1.76,41.98-33.87,111.72-19.19,112.77-22.33,41.95-125.57,12.08-216.84,40.08-284.61,12.13-24.24,59.62-55.62,59.33-117.36-19.59-121.02-22.1-274.43-22.1-274.43Z" fill="#71efa3"></path><path d="m2140.52,815.4c.96-.05,1.83-.7,2.11-1.68.34-1.23-.37-2.5-1.6-2.84-17.61-4.95-46.65-1.73-77.4,1.67-36.44,4.04-74.13,8.21-87.89-2.79-.99-.8-2.45-.63-3.24.36-.8.99-.63,2.45.36,3.24,15.25,12.19,52.18,8.11,91.28,3.77,28.96-3.21,58.9-6.53,75.64-1.82.25.07.49.09.74.08Z" fill="#fff"></path><path d="m2128.75,849.99c.96-.05,1.83-.7,2.11-1.68.34-1.23-.37-2.5-1.6-2.84-17.41-4.89-46.95-2.32-78.22.41-38.08,3.32-77.46,6.76-91.36-4.36-.99-.8-2.44-.63-3.24.36-.8.99-.63,2.45.36,3.24,15.34,12.27,55.66,8.75,94.64,5.35,29.48-2.57,59.97-5.23,76.57-.56.25.07.49.09.74.08Z" fill="#fff"></path><path d="m2208.7,449.56c.85-.04,1.65-.56,2.01-1.39.5-1.17-.04-2.53-1.21-3.03-1.18-.51-118.73-51.63-151.49-120.63-.55-1.15-1.92-1.64-3.07-1.09-1.15.55-1.64,1.92-1.09,3.07,33.51,70.57,148.94,120.78,153.84,122.88.33.14.68.2,1.02.19Z" fill="#fff"></path><path d="m2195.58,137.08c9.2,47.18,28.32,230.28-3.37,445.46-27.6,187.44-102.85,446.66-304.64,617.16" fill="none" stroke="#1e224f" stroke-linecap="round" stroke-miterlimit="10" stroke-width="6.67"></path><path d="m2256.96,283.05c-7.65,71.56-47.75,68.25-50.91,103.69-4.1,45.99,65.11,107.63,73.01,170.73,5.16-118.58-22.45-155.9-22.1-274.43Z" fill="#1e224f"></path><path d="m2219.73,674.83c-14.39,62.87,7.77,158.75-40.08,284.61,20.85-96.83-36.22-150.58-35.56-187,.79-43.59,44.17-53.53,75.64-97.62Z" fill="#1e224f"></path></g><g><path d="m2304.93,819.04c10.94,7.63,96.51,25.47,128.83,2.32,34.91-25,91.99-180.2,53.3-212.75-16.75.47-34.91,21.46-41.98,51.57-3.93-3.14-6.76-33.65,5.1-51.59-94.88,10.51-108.89,107.81-145.25,210.44Z" fill="#71efa3"></path><path d="m2298.02,824.7c2.72-35.26-29.36-52.87-26.06-93.44-33.81,37.11-122.18,60.69-137.48,79.88-7.34,13.52-18.05,113.41,17.65,142.24,75.33-74,145.88-128.68,145.88-128.68Z" fill="#71efa3"></path><path d="m2175.57,932.7c-.55,0-1.09-.24-1.46-.69-28.5-34.9-15.61-109.11-11.37-133.5.57-3.27,1.02-5.85,1.07-6.72.06-1.04.95-1.83,1.99-1.78,1.04.06,1.83.95,1.78,1.99-.06,1.09-.46,3.37-1.11,7.15-4.16,23.97-16.84,96.9,10.57,130.47.66.81.54,1.99-.27,2.65-.35.29-.77.43-1.19.43Z" fill="#fff"></path><path d="m2297.59,824.03c4.09,5.03,75.79,24.53,107.55,14.78-18.87,35.22-63.76,130.51-112.58,136.8-42.7,5.5-102.52-32.71-151.31-10.69,66.09-71.39,156.35-140.89,156.35-140.89Z" fill="#1e224f"></path><path d="m2146.59,959.2c-3.41-5.29-48.69-82.02-43.66-109.07-15.09,8.18-53.46,42.14-53.46,42.14,0,0,9.42,90.16,47.79,125.27,29.8-39.9,49.33-58.35,49.33-58.35Z" fill="#71efa3"></path><path d="m2094.84,1020.8c-38.7-28.44-53.79-113.35-74-128.53-33.33,28.15-73.83,132.03,15.44,229.23,29.53-68.53,58.55-100.7,58.55-100.7Z" fill="#71efa3"></path><path d="m2106.44,1005.59c45.55-12.69,142.41,46.44,176.37,30.71-9.43,39-55.03,100-106.61,94.34-51.57-5.66-81.36-42.77-128.94-33.02,17.93-38.05,59.17-92.04,59.17-92.04Z" fill="#1e224f"></path><path d="m2047.5,1097.58c8.88-3.73,95.36,20.8,128.07,66.4-20.44.94-51.57,16.35-51.57,16.35,0,0-25.97-43.08-92.9-46.47,9.25-23.03,16.4-36.29,16.4-36.29Z" fill="#1e224f"></path><path d="m2389.42,793.8c-22.28,0-39.13-4.19-44.21-8.1-.83-.63-.98-1.82-.35-2.65.64-.83,1.82-.98,2.65-.35,9.43,7.25,66.17,15.36,117.65-9.68.94-.46,2.07-.07,2.52.87.46.94.07,2.07-.87,2.52-26.96,13.11-54.93,17.38-77.38,17.38Z" fill="#fff"></path><path d="m2400.93,772.92c-14.42,0-27.18-1.59-36.6-3.25-1.03-.18-1.71-1.16-1.53-2.19.18-1.03,1.16-1.72,2.19-1.53,24.12,4.27,70.48,8,109.84-14.97.9-.52,2.06-.22,2.58.68.52.9.22,2.06-.68,2.58-24.94,14.56-52.53,18.68-75.79,18.68Z" fill="#fff"></path><path d="m2012.15,1183.78c46.84-166.48,169.81-266.81,273.11-351.1,73.2-59.73,136.41-111.31,158.05-173.12" fill="none" stroke="#1e224f" stroke-linecap="round" stroke-miterlimit="10" stroke-width="6.67"></path></g><g><rect x="296.69" y="179.8" width="1738" height="1031.76" rx="55.05" ry="55.05" fill="#e1e2f2"></rect><rect x="242.23" y="131.93" width="1738" height="1031.76" rx="55.05" ry="55.05" fill="#fff"></rect><g><path d="m1925.18,131.93H297.28c-30.41,0-55.05,24.65-55.05,55.05v37.58h1738v-37.58c0-30.41-24.65-55.05-55.05-55.05Z" fill="#1e224f"></path><g><path d="m1923.35,197.46c-9.74,0-17.66-7.92-17.66-17.66s7.92-17.66,17.66-17.66,17.66,7.92,17.66,17.66-7.92,17.66-17.66,17.66Z" fill="#fff"></path><path d="m1863.18,197.46c-9.74,0-17.66-7.92-17.66-17.66s7.92-17.66,17.66-17.66,17.66,7.92,17.66,17.66-7.92,17.66-17.66,17.66Z" fill="#fff"></path><path d="m1803.01,197.46c-9.74,0-17.66-7.92-17.66-17.66s7.92-17.66,17.66-17.66,17.66,7.92,17.66,17.66-7.92,17.66-17.66,17.66Z" fill="#fff"></path></g><g><path d="m825.02,228.97v-33.39c0-15.33-12.43-27.76-27.76-27.76h-202.82c-15.33,0-27.76,12.43-27.76,27.76v33.39" fill="#fff"></path><path d="m542.75,228.97v-33.39c0-15.33-12.43-27.76-27.76-27.76h-202.82c-15.33,0-27.76,12.43-27.76,27.76v33.39" fill="#fff"></path><path d="m1107.3,228.97v-33.39c0-15.33-12.43-27.76-27.76-27.76h-202.82c-15.33,0-27.76,12.43-27.76,27.76v33.39" fill="#fff"></path></g></g><g><rect x="827.49" y="836.49" width="567.48" height="27.2" fill="#f8f8fc"></rect><rect x="857.68" y="884.41" width="507.09" height="27.2" fill="#f8f8fc"></rect><rect x="787.12" y="722.57" width="648.21" height="86.02" rx="11.62" ry="11.62" fill="#e1e2f2"></rect><rect x="857.68" y="611.85" width="507.09" height="86.02" rx="11.62" ry="11.62" fill="#e1e2f2"></rect></g><g><g><rect x="1615.44" y="360.39" width="94.3" height="27.2" rx="13.6" ry="13.6" fill="#eeeff8"></rect><rect x="1463.34" y="360.39" width="120.95" height="27.2" rx="13.6" ry="13.6" fill="#eeeff8"></rect><rect x="1341.56" y="360.39" width="88.42" height="27.2" rx="13.6" ry="13.6" fill="#eeeff8"></rect><rect x="1740.06" y="348.6" width="149.69" height="50.78" rx="25.39" ry="25.39" fill="#e1e2f2"></rect></g><rect x="357.51" y="326.37" width="274.2" height="93.01" rx="46.51" ry="46.51" fill="#1e224f"></rect></g></g><polygon points="598.01 1041.71 598.01 1211.55 468.41 1211.55 598.01 1041.71" fill="#1e224f"></polygon><path d="m483.96,1041.71l-33.55,357.61c0,6.02,4.88,10.91,10.91,10.91h92.24c6.02,0,10.91-4.88,10.91-10.91l33.55-357.61c0-6.02-4.88-10.91-10.91-10.91h-92.24c-6.02,0-10.91,4.88-10.91,10.91Z" fill="#f8f8fc"></path><polygon points="926 1041.71 926 1211.55 893.76 1211.55 926 1041.71" fill="#1e224f"></polygon><path d="m811.96,1041.71l-33.55,357.61c0,6.02,4.88,10.91,10.91,10.91h92.24c6.02,0,10.91-4.88,10.91-10.91l33.55-357.61c0-6.02-4.88-10.91-10.91-10.91h-92.24c-6.02,0-10.91,4.88-10.91,10.91Z" fill="#f8f8fc"></path><path d="m712.26,1174.06l-38.92,225.25c0,6.02,4.88,10.91,10.91,10.91h92.24c6.02,0,10.91-4.88,10.91-10.91l38.92-225.25c0-6.02-4.88-10.91-10.91-10.91h-92.24c-6.02,0-10.91,4.88-10.91,10.91Z" fill="#e1e2f2"></path><g id="Table_Man"><g id="Chair"><path d="m1830.47,1410.18c-.72,0-1.3-.58-1.3-1.3v-297.23c0-.72.58-1.3,1.3-1.3s1.3.58,1.3,1.3v297.23c0,.72-.58,1.3-1.3,1.3Z" fill="#1e224f"></path><path d="m1588.55,1410.18c-.42,0-.84-.21-1.09-.59-.4-.6-.23-1.41.37-1.8l241.91-158.97c.6-.4,1.41-.23,1.8.37.4.6.23,1.41-.37,1.8l-241.91,158.97c-.22.15-.47.22-.71.22Z" fill="#1e224f"></path><path d="m2072.38,1410.18c-.25,0-.49-.07-.71-.22l-241.91-158.97c-.6-.4-.77-1.2-.37-1.8.39-.6,1.2-.77,1.8-.37l241.91,158.97c.6.4.77,1.2.37,1.8-.25.38-.67.59-1.09.59Z" fill="#1e224f"></path><path d="m1574.22,1122.84h299.46c8.18,0,14.82-6.64,14.82-14.82v-7.58h-329.1v7.58c0,8.18,6.64,14.82,14.82,14.82Z" fill="#1e224f"></path><path d="m1875.11,1122.84h170.49c8.18,0,14.82-6.64,14.82-14.82v-7.58h-200.13v7.58c0,8.18,6.63,14.82,14.82,14.82Z" fill="#1e224f"></path><path d="m1809.32,772.45h293.07c13.01,0,22.68,12.04,19.87,24.75l-58.3,263.42c-2.06,9.32-10.32,15.95-19.87,15.95h-293.07c-13.01,0-22.68-12.04-19.87-24.75l58.3-263.42c2.06-9.32,10.32-15.95,19.87-15.95Z" fill="#eeeff8"></path><path d="m1793.14,772.45h293.07c13.01,0,22.68,12.04,19.87,24.75l-58.3,263.42c-2.06,9.32-10.32,15.95-19.87,15.95h-293.07c-13.01,0-22.68-12.04-19.87-24.75l58.3-263.42c2.06-9.32,10.32-15.95,19.87-15.95Z" fill="#f8f8fc"></path></g><g><path d="m1835.47,990.4s-191.69-112.85-229.91-80.2c-23.96,20.47,3.71,50.76,44.84,85.73,62.8,53.39,78.44,62.24,78.44,62.24l106.62-67.77Z" fill="#1e224f"></path><path d="m1348.3,1309.08l62.85-34.21,29.26,45.75-59.05,33.57s-41.48,4.31-33.07-45.11Z" fill="#ffad94"></path><g><path d="m1382.43,1305.68c4.66-2.07.93-8.11.93-8.11l-13.11,5.5s7.44,4.72,12.18,2.61Z" fill="#1e224f"></path><path d="m1271.62,1260.61s62.03,15.64,70.5,12.81c8.47-2.82,20.1-12.68,20.1-12.68,0,0,2.18,44.87,20.21,44.94-6.88,8.79-32.64,6.99-32.64,6.99,0,0-93.23-18.06-92.6-38.59.42-13.59,14.43-13.48,14.43-13.48Z" fill="#e1e2f2"></path><path d="m1212.73,1233.02c19.68-4.34,33.86,19.84,41.49,24.01,5.28,2.89,17.41,3.58,17.41,3.58,0,0-7.31,14.9,4.22,21.5,20.84,11.93,84.66,24.53,84.94,28.99.28,4.45-4.86,32.58,11.96,37.67,15.29,4.63,28.2-3.84,28.2-3.84,0,0,2.59,16.62-13.56,18.29-4.25,2.4-14.39,23.21-27.43,27.83-21.14,16.55-143.58-69.51-158.13-130.2-5.09-21.26,10.9-27.82,10.9-27.82Z" fill="#fff"></path><path d="m1359.95,1391.04s-13.95,17.27-17.18,17.09c-26.26-1.46-56.9-48.9-71.95-57.34-22.67-12.71-69.78-49.42-74.33-89.34-2.73-23.98,16.23-28.43,16.23-28.43,0,0-18.67,9.21,2.11,46.83,11.55,20.91,44.27,45.13,71.6,64.4,39.08,27.56,52.04,54.58,73.52,46.79Z" fill="#1e224f"></path><path d="m1340.88,1310.43c.2,1.71-1.03,3.25-2.74,3.44-1.71.2-3.25-1.03-3.44-2.74s1.03-3.25,2.74-3.44c1.71-.2,3.25,1.03,3.44,2.74Z" fill="#1e224f"></path><path d="m1321.32,1304.67c.2,1.71-1.03,3.25-2.74,3.44-1.71.2-3.25-1.03-3.44-2.74-.2-1.71,1.03-3.25,2.74-3.44s3.25,1.03,3.44,2.74Z" fill="#1e224f"></path><path d="m1304.18,1300.37c.2,1.71-1.03,3.25-2.74,3.44-1.71.2-3.25-1.03-3.44-2.74-.2-1.71,1.03-3.25,2.74-3.44,1.71-.2,3.25,1.03,3.44,2.74Z" fill="#1e224f"></path><path d="m1284.69,1292.17c.2,1.71-1.03,3.25-2.74,3.44-1.71.2-3.25-1.03-3.44-2.74s1.03-3.25,2.74-3.44,3.25,1.03,3.44,2.74Z" fill="#1e224f"></path><path d="m1281.6,1293.82c-.15,0-.31-.03-.46-.09-.67-.26-1.01-1.01-.75-1.68.06-.16,5.95-15.91.68-28.35-.28-.66.03-1.43.69-1.71.66-.28,1.43.03,1.71.69,5.69,13.42-.38,29.61-.64,30.3-.2.52-.69.84-1.22.84Z" fill="#1e224f"></path><path d="m1301.09,1302.02c-.16,0-.32-.03-.48-.09-.51-.2-.84-.7-.83-1.25.14-4.55-4.56-24.51-7.07-34.43-.18-.7.25-1.41.94-1.58.7-.18,1.41.25,1.58.94.26,1.02,5.51,21.87,6.84,31.5,4.22-6.63,10.88-20.76,9.44-26.84-.17-.7.27-1.4.97-1.57.7-.17,1.4.27,1.57.97,1.99,8.4-8.28,27.67-12,31.92-.25.29-.61.45-.98.45Z" fill="#1e224f"></path><path d="m1318.23,1306.32c-.35,0-.7-.14-.96-.42-4.15-4.53-11.17-33.61-11.95-36.91-.17-.7.27-1.4.97-1.57.7-.16,1.4.27,1.57.97,2.77,11.62,7.62,29.36,10.57,34.63,5.59-6.17,14.69-25.91,15.01-29.59.06-.72.68-1.26,1.41-1.19.72.06,1.25.69,1.19,1.41-.39,4.54-10.95,27.32-16.96,32.38-.24.21-.54.31-.84.31Z" fill="#1e224f"></path><path d="m1337.79,1312.09c-.42,0-.83-.2-1.08-.57-.47-.69-11.52-17.24-12.23-39.14-.02-.72.54-1.32,1.26-1.35.72,0,1.32.54,1.35,1.26.68,21.12,11.67,37.6,11.78,37.76.4.6.25,1.41-.35,1.81-.22.15-.48.22-.73.22Z" fill="#1e224f"></path><path d="m1326.41,1274.66c-.14,0-.29-.02-.44-.07-29.47-10.44-37.87-27.65-35.89-40.27,1.28-8.19,7.07-14.06,14.07-14.27,4.29-.13,18.88,2.08,26.35,36.13.15.7-.29,1.4-.99,1.55-.7.15-1.4-.29-1.55-.99-5.59-25.49-15.92-34.35-23.73-34.08-5.73.17-10.49,5.14-11.58,12.07-1.73,11.06,6.19,27.5,34.19,37.41.68.24,1.03.99.79,1.66-.19.53-.69.87-1.23.87Z" fill="#1e224f"></path><path d="m1336.5,1395.78c-1.94,0-3.96-.76-5.93-2.27-12.61-9.67-21.85-48.9-2.92-105.86.23-.68.96-1.05,1.65-.83.68.23,1.05.97.83,1.65-20.3,61.06-7.4,95.74,2.03,102.97,1.78,1.36,4.46,2.61,7.13.85,7.04-4.65,9.96-25.72.6-62.32-.18-.7.24-1.41.94-1.59.69-.18,1.41.24,1.59.94,10.34,40.43,5.55,60.36-1.69,65.14-1.33.88-2.75,1.31-4.22,1.31Z" fill="#1e224f"></path></g><path d="m1387.93,1274.87l55.41,96.14s301.62-195.49,433.22-270.57c93,0,74.87-110.04,74.87-110.04h-115.95l-447.54,284.47Z" fill="#e1e2f2"></path><polygon points="1711.55 1119.11 1714.48 1067.31 1686.87 1084.86 1711.55 1119.11" fill="#1e224f"></polygon><polygon points="1390.7 1286 1401 1343.03 1420.74 1331.81 1393.48 1284.49 1390.7 1286" fill="#1e224f"></polygon><path d="m1804.08,972.82c.05,6.3-1.15,34.8,8.81,33.25,9.15-1.43,22.58-15.67,22.58-15.67l-31.39-17.58Z" fill="#e1e2f2"></path><path d="m1482.74,1351.89c.26-.53.8-5.05-1.3-7.96-2.1-2.92-11.66,7.13-11.66,7.13,0,0,11.53,3.7,12.96.84Z" fill="#1e224f"></path><path d="m1418.68,1268.52l43.56,90.4,25.41-16.49s-41.2-28.67-68.96-73.91Z" fill="#1e224f"></path><path d="m1387.93,1274.87l23.62-19.52s57.63,110.04,71.19,96.54c-.23,8.29-39.4,19.12-39.4,19.12-31.79-24.88-55.41-96.14-55.41-96.14Z" fill="#e1e2f2"></path><path d="m1683.86,1026.05l-46.97-102.28s-28.72-44.98-67.8-28.23c-46.27,19.83-19.89,79.23-19.89,79.23l42.8,110.46c-23.37-41.15,91.86-59.18,91.86-59.18Z" fill="#e1e2f2"></path><polygon points="1611.17 1021.72 1666.51 990.89 1669.03 995.99 1611.17 1021.72" fill="#1e224f"></polygon><path d="m1591.99,1085.23c15.74,21.61,81.74-17.93,91.86-59.18-7.36-22.52-56.05,4.11-56.05,4.11,0,0-51.41,33.64-35.81,55.07Z" fill="#1e224f"></path><path d="m1634.96,1099.57l-30.71-64.63,47.29-26.71,30.28,60.8s2.03,41.65-46.86,30.54Z" fill="#ffad94"></path><path d="m1607.33,1041.41l10.65,22.4s12.85-15.93,46.32-29.98h0l-7.82-15.7-49.14,23.28Z" fill="#1e224f"></path><path d="m1683.86,1026.05l-12.71-31.05c-19.9,9.51-102.36,39.31-99.27,60.37l20.11,29.86c-21.26-32.69,91.86-59.18,91.86-59.18Z" fill="#e1e2f2"></path><g><path d="m1557.47,1160.85s37.32-37.11,31.82-70.8c0,0,23.04,1.73,36.51-9.74,7.02,8.67.29,27.88.29,27.88,0,0-38.5,86.81-58.37,81.59-13.15-3.45-10.25-28.93-10.25-28.93Z" fill="#e1e2f2"></path><path d="m1539.72,1192.08s-4.2-11.3,6.05-20.17c10.25-8.87,64.29-61.86,65.89-83.98,1.6-22.12,24.01-1.84,31.18-6.45,7.18-4.61,14.94-37.78,28.11-31.33,13.17,6.45,28.37,38.71,27.22,46.54-1.15,7.83-158.46,95.39-158.46,95.39Z" fill="#fff"></path><path d="m1539.87,1205.35s-3.23-5.99-1-11.84c3.91-10.24,71.76-41.24,84.66-52.79,12.9-11.55,51.38-53.82,74.65-44.03,9.06,4.38,9.58,15.28,9.58,15.28l-167.89,93.38Z" fill="#1e224f"></path><path d="m1539.87,1205.35c6.45,15.67,56.21,11.38,81.6-5.9,25.38-17.28,33.33-36.63,48.22-42.62,14.9-5.99,58.02-28,35.86-47-18-15.44-64.95,38.02-84.09,48.15-19.13,10.14-82.75,35.97-81.6,47.37Z" fill="#fff"></path><path d="m1641.67,1142.72s0,0-.01,0l-20.19,15.24,27.49,16.54c7.28-8.02,13.09-14.62,20.74-17.69.94-.38,2-.82,3.14-1.33l-31.17-12.77Z" fill="#1e224f"></path><path d="m1586.79,1133.15c1.71-.2,2.93-1.74,2.74-3.44-.1-.91-.6-1.68-1.3-2.17-1.31,1.58-2.64,3.15-3.98,4.72.65.65,1.56,1.01,2.54.9Z" fill="#1e224f"></path><path d="m1598.02,1117.52c1.71-.2,2.93-1.74,2.74-3.44-.08-.68-.37-1.28-.81-1.74-1.13,1.62-2.34,3.26-3.58,4.91.5.23,1.06.34,1.65.27Z" fill="#1e224f"></path><path d="m1608.22,1101.43c1.71-.2,2.93-1.74,2.74-3.44-.11-.96-.65-1.75-1.4-2.24-.73,1.76-1.62,3.61-2.67,5.54.42.14.87.2,1.33.15Z" fill="#1e224f"></path><path d="m1586.9,1131.37c-.27,0-.54-.08-.77-.26l-6.25-4.62c-.36-.26-.55-.69-.53-1.13.03-.44.28-.84.66-1.06l16.6-9.36-11.15-6.15c-.44-.24-.7-.72-.67-1.22.03-.5.35-.94.82-1.13l22.85-9.06c.67-.26,1.43.06,1.69.73.27.67-.06,1.43-.73,1.69l-20.28,8.04,10.77,5.94c.41.23.67.66.67,1.13,0,.47-.25.91-.66,1.14l-16.88,9.52,4.63,3.42c.58.43.7,1.24.27,1.82-.26.35-.65.53-1.05.53Z" fill="#1e224f"></path></g><path d="m1809.41,977.7c32.13,21.37,107.3,64.92,142.87,35.18.19-.16.38-.32.57-.48.07-12.93-1.42-22-1.42-22l-142.02-12.7Z" fill="#1e224f"></path><path d="m2138.19,908.15c-1.33,0-2.65-.55-3.61-1.62-1.78-1.99-1.61-5.05.39-6.83,6.01-5.37,9.09-11.42,9.39-18.48.71-16.44-14.08-32.37-14.23-32.53-1.83-1.94-1.74-5,.2-6.84,1.94-1.83,5-1.75,6.83.19.72.77,17.73,18.99,16.87,39.55-.41,9.69-4.65,18.21-12.62,25.32-.92.82-2.07,1.23-3.22,1.23Z" fill="#f8f8fc"></path><path d="m1843.02,650.26s-129.71,1.18-134.92-.2c-5.21-1.38-137.12-135.19-149.1-153.72l-35.48-39.76-5.92,42.77c20.2,10.92,99.87,197.34,129.26,206.29,29.38,8.95,196.16,51.07,196.16,51.07v-106.44Z" fill="#ffad94"></path><path d="m1900.46,652.09c-16.9-7.88-151.62-6.27-173.27-9.93-13.39-2.26-30.17-9.26-34.79-13.94,0,0-7.62,40.94-28.27,62.06-8.85,9.06-20.54,11.24-27.68,3.37,9.11,14.38,28.8,27.21,54.59,36.15,59.84,20.75,134.75,27.44,134.75,27.44l74.67-105.15Z" fill="#f8f8fc"></path><path d="m1825.8,748.26s-.08,0-.13,0c-5.58-.54-137.03-13.5-162.48-35.68-.54-.47-.6-1.3-.13-1.84.47-.54,1.3-.6,1.84-.13,24.82,21.64,159.66,34.92,161.01,35.05.72.07,1.24.71,1.17,1.42-.07.67-.63,1.18-1.3,1.18Z" fill="#fff"></path><path d="m1659.94,698.75c-1.65,0-3.25-.84-4.16-2.36-1.37-2.29-.62-5.26,1.67-6.64,14.65-8.76,26.8-48.2,30.24-62.66.62-2.6,3.23-4.2,5.83-3.59,2.6.62,4.21,3.23,3.59,5.83-1.36,5.73-13.93,56.31-34.69,68.72-.78.46-1.63.69-2.48.69Z" fill="#f8f8fc"></path><path d="m1839.9,686.64s-41.04,53.39-46.24,93.18c-9.8,75-18.8,177.65-18.8,177.65,0,0,144.01,92.52,193.77,38.46,15.31-91.66,53.91-274.92,53.91-274.92,0,0-26.96-57.08-86.8-42.34-44.6,10.98-95.84,7.97-95.84,7.97Z" fill="#fff"></path><path d="m2002.33,819.17l-47.43-21.12,27.94,119.79c6.29-32.86,13.21-67.64,19.49-98.67Z" fill="#e1e2f2"></path><path d="m1845.67,650.49c-.31-5.83,12.19-9.59,33.33-3.75,21.14,5.83,3.68,30.28,3.68,30.28,0,0-36.13-9.84-37.01-26.53Z" fill="#1e224f"></path><path d="m1933.17,650.49s-5.16-.98-9.45,0-.74,8.58-.74,8.58c0,0,8.36-2.7,10.18-8.58Z" fill="#1e224f"></path><path d="m1861.45,529.36s-23.07-26.88-1.2-45.52c7.43-6.34,19.05-3.68,19.05-3.68,0,0,4.97-33.82,30.95-36.03,26.25-2.23,47.3,36.73,92.27,70.09,12.57,9.32-2.94,29.67-2.94,29.67,0,0,8.09,6.24,5.39,21.3-4.62,25.82-77.67,68.62-77.67,68.62l-65.84-104.46Z" fill="#1e224f"></path><path d="m1873.35,612.37s-.24,42.29-6.61,51.6c14.21,13.72,60.29,4.9,60.29,4.9l7.15-60.29-60.83,3.78Z" fill="#ffad94"></path><path d="m1933.38,615.33l.1-.86-17.19-4.77-42.94,2.67s-.11,19-2.1,34.33c21.67,1.24,56.51-26.73,62.13-31.37Z" fill="#f59881"></path><path d="m1902.52,499.65s-81.98,57.11-72.42,88.66c9.56,31.55,55.25,46.21,113.46,22.89,58.21-23.32,54.91-146.56-41.04-111.55Z" fill="#ffad94"></path><path d="m1901.79,492.18l-14.24,15.83c12.28,14.31,39.24,28.28,56.01,29.65-9.38,9.48-16.5,23.38-17.9,32.55,0,0,12.04,25.4,29.61,39.49,52.2-47.58,32.4-148.87-53.49-117.52Z" fill="#1e224f"></path><path d="m1949.23,608.5l-32.13-11.72,6.24,21.15c6.54-1.74,13.28-3.96,20.21-6.73,1.96-.79,3.85-1.69,5.67-2.7Z" fill="#f59881"></path><path d="m1918.42,576.97s26.1-29.25,48.28-14.73c20.16,13.21-12.03,50.74-29.53,50.12-14.92-.53-22.53-20.71-22.53-20.71l3.77-14.68Z" fill="#ffad94"></path><path d="m1924.13,586.83s5.49-7.83,11.94-11.29c20.86,25.64-3.96,36.38-11.94,11.29Z" fill="#f59881"></path><path d="m1924.13,588.14c-.25,0-.5-.07-.72-.21-.6-.4-.77-1.2-.37-1.81,8.65-13.14,24.14-19.23,32.02-18.57,3.84.32,7.21,2.65,8.58,5.93,1.29,3.08.66,6.49-1.74,9.36-.46.55-1.28.63-1.84.17-.55-.46-.63-1.28-.17-1.84,1.77-2.13,2.25-4.5,1.33-6.68-1-2.39-3.51-4.1-6.39-4.34-7.02-.59-21.63,5.27-29.62,17.41-.25.38-.67.59-1.09.59Z" fill="#1e224f"></path><path d="m1872.55,525.09s-35.36,16.57-35.47,16.82c-.1.24,4.08,16.29,15.19,20.82" fill="#ffad94"></path><path d="m1920.76,548.88c-11.02-25.76-32.38-25.81-32.58-25.76" fill="none" stroke="#1e224f" stroke-linecap="round" stroke-miterlimit="10" stroke-width="2.22"></path><path d="m1997.61,545.21c-.72,0-1.3-.58-1.3-1.3,0-.72.58-1.3,1.3-1.31.99,0,24.33-.38,26.64-27.26.06-.72.68-1.26,1.41-1.19.72.06,1.25.69,1.19,1.41-2.52,29.3-28.97,29.64-29.24,29.64Z" fill="#1e224f"></path><path d="m2010.19,553.53c-5.86,0-13.06-1.22-21.7-4.2-.68-.23-1.04-.98-.81-1.66.23-.68.98-1.04,1.66-.81,21.7,7.48,33.6,3.32,37.2-2.51,2.15-3.48,1.53-7.69-1.56-10.72-5.48-5.36-18.86-7.1-38.54,5.66-.6.39-1.41.22-1.8-.38-.39-.6-.22-1.41.38-1.8,20.97-13.59,35.61-11.37,41.78-5.34,3.94,3.86,4.73,9.46,1.96,13.95-2.7,4.37-8.74,7.81-18.57,7.81Z" fill="#1e224f"></path><path d="m1845.67,650.49c1.35,17.89,76,12.25,87.5,0,14.94,1.35,8.32,67.52,8.32,67.52,0,0-82.1,7.72-95.82-1.59-13.72-9.31,0-65.92,0-65.92Z" fill="#fff"></path><path d="m1853.55,598.93c-.17,0-.35,0-.52,0-.72-.03-1.28-.63-1.25-1.35.03-.7.6-1.25,1.3-1.25.02,0,.03,0,.05,0,5.62.21,10.82-3.8,13.99-6.87-11.43,2-21.79-6.41-22.29-6.82-.55-.46-.63-1.28-.18-1.83.46-.56,1.28-.63,1.83-.18.12.1,12.6,10.2,24.23,5.02.54-.24,1.18-.09,1.55.38.37.47.38,1.12.02,1.6-.36.47-8.67,11.31-18.74,11.31Z" fill="#1e224f"></path><path d="m1955.85,676.25c79.15-1.08,143.98,165.3,177.21,167.66l5.15,75.53c-18.73,0-40.78,2.07-56.22-5.9-66.14-34.18-121.64-85.02-134-134.87-19.49-78.6,7.86-102.42,7.86-102.42Z" fill="#f8f8fc"></path><path d="m1519.72,431.66c-17.49-12.12-38.57-2.41-61.8,4.34l23.31,6.7,38.49-11.04Z" fill="#f59881"></path><path d="m1542.9,446.34c3.56,2.87,15.04,17.03,18.11,53l-22.11-6.49,4.01-46.51Z" fill="#ffad94"></path><rect x="1246.26" y="435.87" width="271.43" height="120.93" rx="11.56" ry="11.56" fill="#e1e2f2"></rect><path d="m1542.9,446.34s-23.95-18.25-32.03-17.03c-8.08,1.22-58.58,19.42-60.81,19.51,3.18,12.19,21.4,7.89,44.32,3.99,22.91-3.9,33.85,28.13,55.32,22.3l-6.8-28.77Z" fill="#ffad94"></path><polygon points="1517.6 460.68 1517.6 499.34 1523.75 465.64 1517.6 460.68" fill="#1e224f"></polygon><path d="m2066.69,599.11l-16.5-16.86s-6.47,2.4-3.57,9.7c2.9,7.3,20.07,7.16,20.07,7.16Z" fill="#f59881"></path><path d="m2130.55,668.18c-.3,0-.6-.1-.85-.32l-96.71-83.57c-.55-.47-.6-1.29-.13-1.84.47-.54,1.29-.6,1.84-.13l96.71,83.57c.55.47.6,1.29.13,1.84-.26.3-.62.45-.99.45Z" fill="#1e224f"></path><path d="m2075.82,647.13s6.61-37.47,5.55-39.45c-1.06-1.98-4.57-4.38-7.63-5.44l2.08,44.88Z" fill="#f59881"></path><path d="m2044.89,707.36s-2.97-9.71-.84-15.31c2.14-5.6,29.74-36.53,31.31-42.18,1.57-5.66,2.31-42.43,1.21-45.32-.79-2.06-24.75-14.88-25.24-14.69-.49.19-18.55,2.13-18.55,2.13,0,0-2.19,3.79,2.54,6.6,4.73,2.81,25.42,7.2,25.42,7.2l-.49,38.23-50.49,53.73s2.49,13.27,3.55,16.04c1.07,2.77,31.58-6.45,31.58-6.45Z" fill="#ffad94"></path><path d="m2031.14,602.31s7.65-6.46,9.68-6.81,22.5,5.47,24.16,10.12c1.66,4.65-.56,40.46-1.05,42.47-.49,2.01-54.17,49.67-54.17,49.67,0,0-3.17-5.33-1.21-14.32,1.97-8.99,18.4-45.69,24.31-48.94,5.91-3.26,11.39-11.26,11.39-11.26l-13.11-20.93Z" fill="#ffad94"></path><path d="m2048.87,635.73s2.06-22.51,1.27-23.46c-.79-.96-5.56-2.78-5.56-2.78l4.29,26.24Z" fill="#f59881"></path><path d="m2049.56,652.36s-1.29-38.3-3.79-42.39c-2.5-4.09-13.52-8.55-14.79-8.06-2.57.98-10.53,11.54-10.53,11.54,0,0,4.32,5.64,10,.46l4.43,4.47-4.39,18.42,19.06,15.57Z" fill="#ffad94"></path><path d="m2138.21,844.56c-10.24-19.35-84.63-109.85-94.51-142.58l-35.79-13.23c-1.2,8.21-.08,19.1,2.44,31.16h0,0c4.59,22.03,54.32,167.5,56.82,172.62,4.5,9.22,46.43,32.28,62.56,25.82,16.13-6.46,20.93-50.28,8.49-73.78Z" fill="#ffad94"></path></g><path d="m1173.9,1410.18c-.72,0-1.3-.58-1.3-1.3v-467c0-.72.58-1.3,1.3-1.3s1.3.58,1.3,1.3v467c0,.72-.58,1.3-1.3,1.3Z" fill="#1e224f"></path><path d="m1789.58,1410.18c-.72,0-1.3-.58-1.3-1.3v-467c0-.72.58-1.3,1.3-1.3s1.3.58,1.3,1.3v467c0,.72-.58,1.3-1.3,1.3Z" fill="#1e224f"></path><path d="m1563.49,1410.18c-.72,0-1.3-.58-1.3-1.3v-467c0-.72.58-1.3,1.3-1.3s1.3.58,1.3,1.3v467c0,.72-.58,1.3-1.3,1.3Z" fill="#1e224f"></path><g><path d="m1358.79,690.51h291.86c7.31,0,13.47,5.47,14.34,12.73l62.1,182.1c1.03,8.59-5.68,16.15-14.34,16.15h-291.86c-7.31,0-13.47-5.47-14.34-12.72l-62.1-182.1c-1.03-8.59,5.68-16.15,14.34-16.15Z" fill="#eeeff8"></path><path d="m1346.54,690.51h291.86c7.31,0,13.47,5.47,14.34,12.73l62.1,182.1c1.03,8.59-5.68,16.15-14.34,16.15h-291.86c-7.31,0-13.47-5.47-14.34-12.72l-62.1-182.1c-1.03-8.59,5.68-16.15,14.34-16.15Z" fill="#e1e2f2"></path><path d="m1432.17,919.45h416.64c9.92,0,17.96-8.04,17.96-17.96h-452.57c0,9.92,8.04,17.96,17.96,17.96Z" fill="#e1e2f2"></path><ellipse cx="1511.72" cy="805.11" rx="16.56" ry="24.68" transform="translate(-199.11 724.03) rotate(-25.33)" fill="#fff"></ellipse><path d="m1866.77,901.49h-146.21c0,9.92,8.04,17.96,17.96,17.96h110.29c9.92,0,17.96-8.04,17.96-17.96Z" fill="#eeeff8"></path></g><path d="m1126.02,941.87h736.41c8.18,0,14.82-6.63,14.82-14.82v-7.58h-766.05v7.58c0,8.18,6.63,14.82,14.82,14.82Z" fill="#1e224f"></path><path d="m1863.86,941.87h371.23c8.18,0,14.82-6.63,14.82-14.82v-7.58h-400.87v7.58c0,8.18,6.63,14.82,14.82,14.82Z" fill="#e1e2f2"></path><path d="m2179.17,1410.18c-.72,0-1.3-.58-1.3-1.3v-467c0-.72.58-1.3,1.3-1.3s1.3.58,1.3,1.3v467c0,.72-.58,1.3-1.3,1.3Z" fill="#1e224f"></path></g><g id="Girl"><path d="m196.27,367.2c2.25-4.71-16.91-12.24-28.03-12.17-11.12.07-4.17,15.43-4.17,15.43,0,0,25.25,11.3,32.2-3.26Z" fill="#1e224f"></path><path d="m324.6,461.7l-135.39,127.14c-7.76,7.29-19.06,8.46-27.95,3.7l-1.52-.82h0s-3.37-1.82-3.37-1.82l-2.81-1.59c-1.83-1.06-3.6-2.12-5.34-3.21-3.48-2.17-6.86-4.42-10.17-6.75-6.61-4.66-12.96-9.65-19.07-15-12.2-10.69-23.46-22.82-33.23-36.48-9.77-13.64-18.01-28.85-23.97-45.18-1.51-4.07-2.84-8.22-4.05-12.42-1.22-4.19-2.24-8.44-3.16-12.72-.87-4.28-1.66-8.6-2.24-12.93-.62-4.34-1.02-8.69-1.35-13.05l-.05-.62c-1.5-19.79,13.33-37.06,33.12-38.56,19.79-1.5,37.06,13.33,38.56,33.12.11,1.47.12,3.13.06,4.56-.56,10.95.32,21.88,2.87,32.65,2.51,10.77,6.65,21.4,12.26,31.61,5.6,10.21,12.68,20,20.86,29.06,4.09,4.53,8.45,8.87,13.02,12.96.29.26.58.52.87.77l131.03-99.34c7.18-5.44,17.42-4.04,22.86,3.15,5.08,6.7,4.14,16.11-1.83,21.75Z" fill="#ffad94"></path><path d="m137.8,493.34c-5.62-10.21-9.75-20.84-12.26-31.61-2.54-10.77-3.43-21.7-2.87-32.65.06-1.43.06-3.09-.06-4.56-1.5-19.79-18.77-34.62-38.56-33.12-19.79,1.5-34.62,18.77-33.12,38.56l.05.62c.33,4.36.73,8.71,1.35,13.05.57,4.34,1.36,8.65,2.24,12.93.93,4.28,1.95,8.53,3.16,12.72,1.21,4.19,2.54,8.34,4.05,12.42,5.96,16.33,14.2,31.54,23.97,45.18,4.25,5.95,8.8,11.58,13.57,16.96l49.1-33.98c-3.94-5.34-7.51-10.87-10.62-16.52Z" fill="#e1e2f2"></path><circle cx="85.76" cy="319.64" r="71.83" transform="translate(-69.29 27.26) rotate(-12.92)" fill="#1e224f"></circle><path d="m80.81,405.83c-40.33,0-73.14-32.81-73.14-73.14s32.81-73.14,73.14-73.14c.72,0,1.3.58,1.3,1.3s-.58,1.3-1.3,1.3c-38.89,0-70.53,31.64-70.53,70.53s31.64,70.53,70.53,70.53c.72,0,1.3.58,1.3,1.3s-.58,1.3-1.3,1.3Z" fill="#1e224f"></path><path d="m1.3,298.86c-.14,0-.28-.02-.42-.07-.68-.23-1.05-.97-.82-1.65,12.87-38.22,54.43-58.85,92.65-45.98.68.23,1.05.97.82,1.65-.23.68-.97,1.05-1.65.82-36.86-12.41-76.94,7.48-89.35,44.34-.18.54-.69.89-1.24.89Z" fill="#1e224f"></path><path d="m107.4,299.83c5.62,6.79,20.17,50.32,5.88,79.99-14.28,29.68,69.76-6.69,69.76-6.69,0,0-11.06-14.59-4.1-39.57l-71.54-33.73Z" fill="#ffad94"></path><path d="m149.79,320.62h0l29.16,12.94c-6.96,24.98,4.1,39.57,4.1,39.57,0,0-32.07-30.94-33.26-52.51Z" fill="#1e224f"></path><path d="m72.86,258.89s-14.45-43.31,18.45-63.55c16.95-10.43,42.38-3.56,52.47-7.5,14.2-5.54,23.05-35.86,54.1-39.76,51.05-6.41,80.88,74.11,23.74,97.77-52.22,21.62-76.35,52.06-97.56,65.3-4.56,7.05-6.52,18.48-6.52,18.48-34.76-32.31-44.67-70.75-44.67-70.75Z" fill="#1e224f"></path><path d="m200.36,217.73s39.84,91.62,15.16,113.47c-24.68,21.85-71.27,10.36-108.6-40.02-37.33-50.39,30.12-153.58,93.45-73.45Z" fill="#ffad94"></path><path d="m204.91,211.75l3.82,20.95c-17.96,5.74-48.24,3.5-63.24-4.13,3.01,13,1.79,28.56-1.83,37.1,0,0-23.57,15.31-45.93,18.09-19.49-67.89,50.49-143.74,107.18-72.01Z" fill="#1e224f"></path><path d="m103.5,285.9l29.87,8.72-9.32,16.53c-6-4.59-12.11-12.45-17.14-19.98-1.17-1.76-2.39-3.46-3.41-5.27Z" fill="#1e224f"></path><path d="m213.9,255.84s.74,16.23,12.27,34.89c2.33,3.76-8.29,9.1-14.57,8.75" fill="#ffad94"></path><path d="m146.11,278.16s-6.88-38.6-33.38-37.86c-24.09.67-16.37,49.51-1.15,58.16,12.98,7.38,30.04-5.82,30.04-5.82l4.49-14.47Z" fill="#ffad94"></path><path d="m136.07,283.56s-.57-9.54-4.24-15.88c-31.21,10.89-15.71,33.05,4.24,15.88Z" fill="#f59881"></path><path d="m136.07,284.86c-.7,0-1.28-.56-1.3-1.26-.44-14.52-9.79-27.17-16.09-30.36-2.58-1.31-5.61-1.17-7.72.34-1.92,1.38-2.76,3.65-2.37,6.39.1.71-.39,1.37-1.11,1.48-.7.1-1.37-.39-1.48-1.11-.53-3.7.72-6.93,3.43-8.88,2.89-2.07,6.98-2.29,10.41-.55,7.04,3.56,17.04,16.88,17.52,32.61.02.72-.54,1.32-1.26,1.34-.01,0-.03,0-.04,0Z" fill="#1e224f"></path><path d="m200.27,245.24c-.15-.16-14.51-8.7-26.32,6.2" fill="none" stroke="#1e224f" stroke-linecap="round" stroke-miterlimit="10" stroke-width="2.22"></path><path d="m191.07,328.37c-.22,0-.44-.05-.64-.17-8.97-5.07-10.41-19.13-10.47-19.72-.06-.59.29-1.15.85-1.35.56-.2,1.18,0,1.52.49,7.2,10.53,23.11,8.46,23.26,8.43.7-.1,1.37.4,1.47,1.11.1.71-.4,1.37-1.11,1.47-.63.09-13.86,1.81-22.54-5.88,1.09,4.28,3.44,10.43,8.3,13.18.63.35.85,1.15.49,1.78-.24.42-.68.66-1.14.66Z" fill="#1e224f"></path><circle cx="130.85" cy="299.09" r="8.36" transform="translate(-160.4 151.61) rotate(-39.52)" fill="#fff"></circle><path d="m122.49,194.68s-.07,0-.11,0c-.72-.06-1.25-.69-1.19-1.41.21-2.53,4.32-10.74,12.81-15.13,6.32-3.27,16.98-5.31,31.86,3.52.62.37.82,1.17.46,1.79-.37.62-1.17.82-1.79.46-10.97-6.5-21.11-7.69-29.34-3.44-7.55,3.9-11.26,11.23-11.41,13.03-.06.68-.63,1.2-1.3,1.2Z" fill="#1e224f"></path><path d="m125.07,210c-.15,0-.29-.03-.44-.08-26.76-9.58-27.1-24.33-26.56-28.62.96-7.73,7.3-13.88,15.07-14.63,4.08-.39,18.02.2,25.92,24.34.22.68-.15,1.42-.83,1.64-.68.22-1.42-.15-1.64-.83-4.92-15.05-13.61-23.49-23.19-22.56-6.57.63-11.92,5.83-12.73,12.36-1.26,10.16,8.03,19.82,24.85,25.84.68.24,1.03.99.79,1.67-.19.53-.69.86-1.23.86Z" fill="#1e224f"></path><path d="m328.25,378.32l29.65-11.48c.63-5.26,2.26-9.46,2.26-9.46-9.28-1.52-34.91,10.23-34.91,10.23l3.01,10.71Z" fill="#f59881"></path><path d="m249.76,452.54s36.58,46.32,32.99,67.1c-6.64,38.41-47.8,51.37-47.8,51.37l14.81-118.47Z" fill="#fff"></path><path d="m270.38,1409.36c-.16,0-.31-.03-.47-.09-.63-.26-.92-.98-.66-1.6,3.06-7.39,1-14.65-6.11-21.59-25.03-24.4-100.27-36.23-106.06-33.66-.62.27-1.34,0-1.62-.62-.28-.62,0-1.34.62-1.62,3.97-1.77,26.63,1.43,47.53,6.7,16.67,4.21,46.79,13.36,61.24,27.44,7.9,7.7,10.15,15.87,6.66,24.28-.2.47-.65.76-1.13.76Z" fill="#1e224f"></path><path d="m225.77,1408.94c-12.51,0-34.14-7.99-65.56-46.64-.45-.56-.37-1.38.19-1.83.56-.45,1.38-.37,1.83.19,34.99,43.04,60.93,50.58,73.54,43.3,8.3-4.8,11-16.21,6.57-27.75-7.42-19.33-34.25-38.07-85.47-27.25-.7.15-1.4-.3-1.54-1.01s.3-1.4,1.01-1.55c52.83-11.16,80.66,8.58,88.45,28.87,4.9,12.76,1.73,25.49-7.7,30.94-2.02,1.17-5.77,2.74-11.31,2.74Z" fill="#1e224f"></path><path d="m157.94,1347.16c-.91-10.91,5.38-22.18,4.29-23.82s-8.15-7.96-20.59-7.21c-12.43.76-6.61,56.58-6.61,56.58,0,0,23.82-14.64,22.91-25.55Z" fill="#1e224f"></path><path d="m115.49,670.24c-9.68,12.7-48.41,61.86-48.41,103.04,0,26.7,12.17,31.99,23.51,45.47,12.16,100.08,14.61,192.51,17.22,211.22,2.61,18.71-13.33,113.1-12.21,133.99,2.61,48.73,6.93,115.81,8.29,192.95.29,16.38,44.94,24.09,43.02-5.87-3.48-54.39,43.02-339.56,43.02-340.26s9.5-340.55,9.5-340.55h-83.94Z" fill="#ffad94"></path><polygon points="102.65 1308.77 149.13 1304.39 149.48 1300.65 102.65 1300.44 102.65 1308.77" fill="#1e224f"></polygon><path d="m216.32,1397.29s2.18-17.46-7.36-21.14c-9.55-3.68-17.86-.59-17.86-.59-16.58-4.2-33.37-32.19-33.37-32.19,0,0-5.11,29.34-74.95,46.96,53.03,27.37,133.54,6.96,133.54,6.96Z" fill="#fff"></path><path d="m94.92,1338.58c1.35-1.09,14.19-3.99,20.59.95,5,3.86,14.33,10.58,23.57,12.26,17.52,3.17,19.18-10.9,19.18-10.9l11.78,19.17s-20.88,20.79-19.53,38.17c.25,3.21-2.78,0-7.87,1.1-20.28-.98-41.69,4.79-59.86-4.59-6.38-23.32,11.87-38.34,12.14-56.16Z" fill="#e1e2f2"></path><path d="m82.77,1394.74c21.99,2.23,133.76.68,133.76.68,0,0,2.24,9.92-1.17,11.42-3.41,1.5-48.28,1.29-48.28,1.29l-76.8-.24c-14.94,0-9.23-11.33-7.51-13.15Z" fill="#1e224f"></path><path d="m111.93,1340.9c-.11,0-.21-.01-.32-.04-.61-.18-.97-.82-.79-1.43,4.25-14.78-.79-23.85-6.39-27.13-3.38-1.98-6.96-1.85-9.12.33-3.29,3.33-3.7,12.04,5,26.52.33.55.15,1.26-.39,1.59-.55.33-1.26.15-1.59-.4-7.97-13.26-9.72-24.22-4.66-29.33,2.92-2.96,7.6-3.23,11.93-.7,6.32,3.7,12.05,13.71,7.44,29.76-.15.51-.61.84-1.11.84Z" fill="#e1e2f2"></path><path d="m199.43,670.24h-89.75c-9.68,12.7-51.3,48.81-45.08,100.62,3.18,26.51,13.53,37.12,25.99,49.98,12.16,100.08,14.61,190.42,17.22,209.13,2.61,18.71-11.71,82.28-13.92,132.04-1.61,36.4-4.08,84.37-2.17,137.76,15.25,1.06,47.04,2.62,57.76.88,9.52-99.48,40.45-289.29,40.45-289.87,0-.7,9.5-340.55,9.5-340.55Z" fill="#1e224f"></path><path d="m136.25,1301.96s-.08,0-.13,0c-.72-.07-1.24-.7-1.17-1.42,5.48-57.29,19.49-158,39.46-283.56.56-3.51.94-5.88.99-6.28.16-6.48,9.11-326.73,9.5-340.49.02-.72.6-1.31,1.34-1.27.72.02,1.29.62,1.27,1.34-.09,3.39-9.47,338.76-9.5,340.53q0,.15-1.02,6.57c-19.96,125.51-33.96,226.16-39.44,283.4-.06.68-.63,1.18-1.3,1.18Z" fill="#e1e2f2"></path><path d="m107.81,1031.28c-.4,0-.78-.18-1.03-.51-.35-.46-.36-1.1-.02-1.56l8.46-11.58c.42-.58,1.24-.71,1.82-.28.58.43.71,1.24.28,1.82l-6.01,8.22c9.08-2.89,31.81-8.73,50.36-1.74.67.25,1.01,1.01.76,1.68-.25.67-1.01,1.02-1.68.76-22.33-8.42-52.18,2.99-52.48,3.11-.15.06-.31.09-.47.09Z" fill="#e1e2f2"></path><path d="m193.99,865.22l-45.77-44.38s16.95,109.95,42.41,164.72c.75-26.94,2.01-72.3,3.36-120.34Z" fill="#1e224f"></path><path d="m126.74,829.99h-.02c-25.22-.29-43.31-9.47-53.76-27.3-6.94-11.84-10.46-27.61-10.46-46.87,0-33.1,26.55-60.04,42.42-76.13,4.05-4.11,7.55-7.65,9.52-10.24.44-.57,1.25-.68,1.83-.25.57.44.68,1.25.25,1.83-2.07,2.72-5.46,6.15-9.74,10.49-15.59,15.81-41.67,42.26-41.67,74.29,0,47.02,20.74,71.1,61.64,71.56.72,0,1.3.6,1.29,1.32,0,.71-.59,1.29-1.3,1.29Z" fill="#e1e2f2"></path><path d="m150.5,1400.2c-.66,0-1.22-.49-1.29-1.16-.92-8.34,1.67-21.91,19.22-39.21.31-.3.53-.53.67-.67.5-.52,1.32-.55,1.84-.05.52.49.55,1.32.05,1.84-.15.16-.4.4-.73.73-16.8,16.56-19.31,29.3-18.46,37.07.08.72-.44,1.36-1.15,1.44-.05,0-.1,0-.14,0Z" fill="#1e224f"></path><path d="m429.38,1277.86s10.53,33.75,21.03,57.11c-5.29,39.02-45.05,16.39-45.05,16.39l-22.83-64.5,46.85-8.99Z" fill="#ffad94"></path><g><path d="m378.36,1410.22c-3.98,0-7.74-.6-11.19-1.74-9.49-3.14-14.98-10.18-14-17.93,1.61-12.77,21.38-27.64,72.03-31.1.63-.07,1.21.45,1.26,1.1.04.65-.45,1.21-1.1,1.26-49.21,3.36-68.35,17.21-69.84,29.04-.83,6.58,4.04,12.62,12.4,15.39,13.71,4.54,43.24,1.02,66.93-40.97.32-.57,1.04-.77,1.61-.45.57.32.77,1.04.45,1.61-17.56,31.13-40.29,43.8-58.54,43.8Z" fill="#1e224f"></path><path d="m466.18,1341.7c-7.91-11.35-12.9-26.25-14.45-30.86-8.26-3.54-18.21,11.42-18.61,20.11,4.33,10.84,15.41,21.99,15.41,21.99l17.65-11.24Z" fill="#f8f8fc"></path><path d="m398.02,1392.5s-1.27-1.83-1.46-.85.37,18.35.37,18.35l168.89.22s4.41-12.12,1.96-13.13c-2.44-1.01-169.76-4.59-169.76-4.59Z" fill="#1e224f"></path><path d="m396.52,1396.97s120.27,2.97,171.26.11c.83-49.72-64.55,8.06-110.8-70.89,0,0-4.56-4.4-7.34,3.41-2.78,7.82-3.04,28.65-24.39,23.59-21.36-5.06-18.18-15.8-25.06-20.9-9.11-6.74-20.35,2.09-2.19,9.82-5.81,14.14-9.74,42.67-1.48,54.85Z" fill="#fff"></path><path d="m456.97,1326.19s-4.56-4.4-7.34,3.41c-2.78,7.82-3.04,28.65-24.39,23.59-21.36-5.06-18.18-15.8-25.06-20.9-9.11-6.74-20.35,2.09-2.19,9.82-5.81,14.14-9.74,42.67-1.48,54.85,0,0,26.89.66,60.63,1.06,5.42-23.96,20.79-29.48,20.79-29.48v-15.61c-7.22-6.43-14.29-15.36-20.97-26.75Z" fill="#e1e2f2"></path><path d="m456.97,1326.19c12.91,26.3,37.2,40.08,56.41,43.75-21.24,17.45-59.82-16.35-66.67-29.27.6-2.49,1.22-14.04,1.82-15.72,2.78-7.82,8.44,1.24,8.44,1.24Z" fill="#f8f8fc"></path><path d="m468.24,1376.86c-.53,0-1.01-.36-1.15-.9-.16-.63.23-1.27.86-1.43l33.88-8.44c.63-.16,1.27.23,1.43.86.16.63-.23,1.27-.86,1.43l-33.88,8.44c-.1.02-.19.04-.29.04Z" fill="#1e224f"></path><path d="m469.04,1376.03c-.14,0-.28-.02-.42-.08-.61-.23-.92-.92-.68-1.53,4.64-12.15,17.2-15.96,17.73-16.12.63-.18,1.28.18,1.47.8.18.63-.17,1.28-.8,1.47-.12.04-11.98,3.65-16.19,14.69-.18.47-.63.76-1.1.76Z" fill="#1e224f"></path><path d="m456.11,1357.54c-.23,0-.47-.07-.68-.21-.53-.37-.67-1.11-.29-1.65,4.84-6.92,14.64-10.06,15.06-10.19.63-.2,1.29.15,1.48.77.2.62-.15,1.29-.77,1.48-.09.03-9.46,3.04-13.83,9.29-.23.33-.6.5-.97.5Z" fill="#1e224f"></path><path d="m394.38,1410c-4.84,0-9.19-1.36-13.03-4.09-.53-.38-.66-1.12-.28-1.65.38-.53,1.12-.66,1.65-.28,21.79,15.48,60.61-21.61,87.23-58.07.39-.53,1.13-.64,1.65-.26.53.38.64,1.12.26,1.65-6.67,9.14-24.34,32.07-44.31,47.68-12.78,9.99-23.88,15.01-33.17,15.01Z" fill="#1e224f"></path><path d="m447.71,1333.99c-.08,2-.4,4.19-.99,6.69,4.7,8.86,24.33,27.55,43.05,32.78-19.05-7.14-36.66-25.88-42.05-39.47Z" fill="#1e224f"></path><path d="m394.78,1348.5c-17.73,0-21.32-6.77-22.01-8.9-.92-2.86.22-5.82,2.98-7.71,4.94-3.38,15.25-3.62,28.04,6.8.48.39.55,1.09.16,1.57-.39.48-1.09.55-1.57.16-11.08-9.02-20.72-9.86-25.37-6.69-1.94,1.33-2.74,3.27-2.12,5.18,1.16,3.59,7.51,7.66,21.61,7.33,0,0,.02,0,.03,0,.6,0,1.1.48,1.11,1.09.01.62-.47,1.13-1.09,1.14-.6.02-1.2.02-1.77.02Z" fill="#e1e2f2"></path><path d="m566.84,1399.22s-.08,0-.12,0c-.65-.06-1.13-.64-1.06-1.29.68-6.96-.49-12.12-3.58-15.78-5.83-6.92-18.08-7.81-31.04-8.75-10.1-.73-20.55-1.49-29.37-5.06-.61-.25-.9-.93-.65-1.54.24-.6.93-.9,1.54-.65,8.47,3.43,18.73,4.17,28.65,4.89,13.47.98,26.2,1.9,32.68,9.58,3.52,4.17,4.87,9.91,4.12,17.53-.06.61-.57,1.07-1.17,1.07Z" fill="#1e224f"></path><path d="m457.15,1399.22c-.07,0-.14,0-.21-.02-.64-.12-1.07-.73-.95-1.37,3.8-21.08,18.53-28.97,21.45-30.34.59-.27,1.3-.02,1.57.57.28.59.02,1.29-.57,1.57-2.73,1.28-16.53,8.68-20.12,28.62-.1.57-.6.97-1.16.97Z" fill="#1e224f"></path></g><path d="m432.73,1288.16s-19.28,20.02-41.16,24.23l-6.05-17.1,43.86-16.76,3.35,9.64Z" fill="#1e224f"></path><path d="m141.87,670.24s-58.4,121.09,6.35,150.6c22.4,69.03,108.86,150.18,135.32,220.13,6.48,17.14,7.92,38.91,12.89,51.95,4.97,13.04,83.46,207.8,83.46,207.8,0,0,45.36-10.29,54.63-22.86,0,0-84.23-290.54-92.7-320.53-8.47-29.98-79.52-287.1-79.52-287.1h-120.42Z" fill="#1e224f"></path><path d="m416.83,1292.86c-.55,0-1.06-.35-1.24-.89-.45-1.37-45.81-138.29-89.58-272.19-25.76-78.81-54.64-157.29-73.76-209.22-10.29-27.96-18.42-50.04-22.1-61.4-.12-.36-.07-.75.12-1.07.19-.32.52-.55.88-.61,5.44-1,19.01-4.76,27.42-18.17,8.6-13.72,9.43-33.48,2.45-58.71-.19-.69.21-1.41.91-1.6.7-.2,1.41.22,1.6.91,7.18,25.97,6.25,46.43-2.76,60.79-8.28,13.21-21.22,17.63-27.7,19.06,3.86,11.68,11.74,33.09,21.61,59.92,19.12,51.95,48.01,130.46,73.79,209.31,43.77,133.89,89.13,270.81,89.58,272.18.23.68-.14,1.42-.83,1.65-.14.04-.27.07-.41.07Z" fill="#e1e2f2"></path><path d="m284.27,1044.3c-.16,0-.32-.03-.48-.09-.56-.22-.89-.79-.81-1.39l2.14-15.92c.1-.71.75-1.21,1.47-1.12.71.1,1.21.75,1.12,1.47l-1.56,11.63c3.63-3.63,10.44-8.87,19.5-8.87.72,0,1.3.58,1.3,1.3s-.58,1.3-1.3,1.3c-12.19,0-20.23,11.03-20.31,11.14-.25.35-.65.55-1.06.55Z" fill="#e1e2f2"></path><path d="m163.86,824.53c-8.9,0-16.76-2.19-23.51-6.58-20.6-13.37-23.31-41.79-23.64-47.36-2.68-44.76,23.83-100.31,24.1-100.87.28-.59.99-.84,1.58-.55.59.28.83.99.55,1.58-.27.55-26.51,55.56-23.87,99.7.32,5.36,2.92,32.76,22.57,45.51,12.31,7.99,28.66,8.25,48.57.77.61-.23,1.29.08,1.52.69.23.61-.08,1.29-.69,1.52-9.9,3.72-18.98,5.58-27.18,5.58Z" fill="#e1e2f2"></path><path d="m212.35,837.71s-.06,0-.09,0c-38.25-3.03-63.72-15.68-63.97-15.81-.58-.29-.82-1-.52-1.59.29-.58,1-.82,1.59-.52.25.12,25.34,12.58,63.09,15.56.65.05,1.14.62,1.09,1.27-.05.62-.57,1.09-1.18,1.09Z" fill="#e1e2f2"></path><path d="m215.07,1399.28c-.05,0-.11,0-.16,0-.71-.09-1.22-.74-1.13-1.45.02-.13,1.51-12.85-4.82-17.23-7.88-5.45-17.53-3.76-17.63-3.75-.18.03-.37.03-.55-.02-6.6-1.67-13.9-7.02-21.71-15.91-.48-.54-.42-1.36.12-1.84.54-.47,1.36-.42,1.84.12,7.24,8.24,14.2,13.43,20.13,15.03,1.81-.27,11.23-1.35,19.28,4.22,7.64,5.28,6,19.11,5.93,19.7-.08.66-.64,1.14-1.29,1.14Z" fill="#1e224f"></path><path d="m63.81,755.82c4.24,3.22,30.5,45.33,122.39-32.3-38.3-27.3-119.12,13.62-119.12,13.62l-3.27,18.68Z" fill="#1e224f"></path><path d="m164.06,1359.97c-.33,0-.66-.14-.89-.4-.43-.49-.38-1.24.11-1.67l3.38-2.96c.49-.43,1.24-.38,1.67.11.43.49.38,1.24-.11,1.67l-3.38,2.96c-.22.2-.5.29-.78.29Z" fill="#1e224f"></path><path d="m173.1,1371.46c-.3,0-.6-.12-.83-.35-.46-.46-.46-1.21,0-1.67l3.49-3.5c.46-.46,1.21-.46,1.67,0,.46.46.46,1.21,0,1.67l-3.49,3.5c-.23.23-.53.35-.84.35Z" fill="#1e224f"></path><path d="m182.96,1378.47c-.17,0-.34-.04-.51-.12-.59-.28-.84-.99-.56-1.58l2.03-4.25c.28-.59.99-.84,1.58-.56.59.28.84.99.56,1.58l-2.03,4.25c-.2.42-.63.67-1.07.67Z" fill="#1e224f"></path><path d="m192.58,384.8l3.69-17.6c-7.6,11.3-55.77-27.82-84.33-27.75.15,10.91,5.14,26.56,5.14,26.56l75.5,18.79Z" fill="#fff"></path><path d="m181.14,369.18l25.75,12.39s-26.03,24.65-21.99,54.45c4.04,29.8,90.81,162.95,83.04,254.67,0,0-12.94-8.09-36.55,0-12.29,4.21-132.95,119.98-171.68,43.54,16.5-17.85,40.39-121.39,40.39-142.3,0-28.88-21.84-105.18-29.85-136.07-9.91-38.25,9.87-60.94,10.76-64.29.9-3.35,34.97-24.72,35.13-25.62.15-.9,65,3.24,65,3.24Z" fill="#fff"></path><path d="m419.33,658.44c20.31-6.33,25.63-28.92,34.6-51.39l-19.63,14.25-14.98,37.13Z" fill="#f59881"></path><path d="m366.63,655.33s-100.6,4.14-94.75,0c5.85-4.14,144.95-19.73,144.95-19.73l-50.2,19.73Z" fill="#f59881"></path><path d="m480.16,512.26l-351.93,62.92c-5.93,1.06-9.88,6.73-8.82,12.65l16.23,90.8c1.06,5.93,6.73,9.88,12.65,8.82l351.93-62.92c5.93-1.06,9.88-6.73,8.82-12.65l-16.23-90.8c-1.06-5.93-6.73-9.88-12.65-8.82Z" fill="#eeeff8"></path><path d="m393.5,667.67s29.13-7.65,33.14-14.77c4.01-7.12,15.03-42.85,19.95-49.74-11.57-4.99-17.3,1.81-28.32,22.28-11.02,20.46-43,9.38-51.62,29.89l26.86,12.34Z" fill="#ffad94"></path><path d="m208.97,383.87c12.73-6.71,60.51-3.6,57.49,52.27-2.99,55.27-15.71,183.88-9.53,219.68,0,0,82.76.36,109.71-.49l26.86,12.34c-20.58,8.06-195.98,56.97-196.93,18.99-1.01-40.65-20.25-160.54-18.25-201.61,1.32-27.08-2.53-83.71,30.64-101.19Z" fill="#ffad94"></path><path d="m308.64,430.62c1.18-1.96,3.81-52.45,5.62-54.29s8.18-7.16,8.18-7.16c0,0,6.11,45.01,2.32,52.56-3.79,7.55-16.12,8.89-16.12,8.89Z" fill="#f59881"></path><path d="m311.32,473.2c18.17-7.25,46.45-31.33,49.92-32.62,5.28-1.96,12.77-3.9,14.81-5.56,6.5-5.26,15.3-8.83,19.26-8.7,3.41-3.02-1.65-12.97-17.85-6.9-16.2,6.07-26.09,11.03-35.09-.34-9-11.36-11.21-38.07-9.7-44.31,2.28-9.47,21.55-14.24,23.53-15.06,8.45-3.54,3.24-11.51,3.24-11.51,0,0-11.45,3.42-19.19,5.98-2.08.69-20.5,6.32-21.2,18.35-.16,2.73-1.37,36.33-3.68,40.97-2.31,4.64-18.19,30.93-18.19,30.93l14.14,28.77Z" fill="#ffad94"></path><path d="m192.42,638.42l63.77-48.1h0c.22-4.94.47-9.99.75-15.14l-69.64,19.25c1.79,15.24,3.59,30.26,5.12,44Z" fill="#1e224f"></path><path d="m266.45,436.14c3.03-55.87-44.76-58.98-57.49-52.27-33.18,17.48-29.33,74.11-30.64,101.19-1.24,25.56,5.73,81.64,11.43,130.15l73.6-36.27c2.58-50.43,1.29-109.26,3.11-142.8Z" fill="#e1e2f2"></path></g><path d="m193.69,259.89c-5.03-.98-6.37,3.11-14.05,1.3" fill="none" stroke="#1e224f" stroke-linecap="round" stroke-miterlimit="10" stroke-width="2.22"></path><path d="m1886.24,538.94c7.49,1.34,9.24,9.04,9.24,9.04" fill="none" stroke="#1e224f" stroke-linecap="round" stroke-miterlimit="10" stroke-width="2.22"></path><path d="m213.9,255.84s.74,16.23,12.27,34.89c2.33,3.76-8.29,9.1-14.57,8.75" fill="none" stroke="#1e224f" stroke-linecap="round" stroke-miterlimit="10" stroke-width="2.22"></path><path d="m1872.55,525.09s-35.36,16.57-35.47,16.82c-.1.24,4.08,16.29,15.19,20.82" fill="none" stroke="#1e224f" stroke-linecap="round" stroke-miterlimit="10" stroke-width="2.22"></path><rect x="189.74" y="258.63" width="7.55" height="18.11" rx="3.77" ry="3.77" fill="#1e224f"></rect><rect x="1878.9" y="536.5" width="7.55" height="18.11" rx="3.77" ry="3.77" transform="translate(805.09 -1091.8) rotate(40.49)" fill="#1e224f"></rect></svg>